<svg width="44" height="88" viewBox="0 0 44 88" fill="none" xmlns="http://www.w3.org/2000/svg">
<path d="M13.5451 87.0883C13.8142 87.1506 14.0828 86.983 14.1451 86.714L15.1604 82.33C15.2227 82.061 15.0551 81.7924 14.7861 81.7301C14.5171 81.6678 14.2485 81.8354 14.1862 82.1044L13.2837 86.0012L9.38681 85.0987C9.11779 85.0364 8.8492 85.204 8.78689 85.473C8.72458 85.742 8.89216 86.0106 9.16118 86.0729L13.5451 87.0883ZM14.0822 86.3365C13.3911 85.2289 12.7287 84.1268 12.095 83.0303L11.2292 83.5307C11.8687 84.6372 12.537 85.749 13.2337 86.8658L14.0822 86.3365ZM8.49303 76.2214C7.34658 73.8276 6.3442 71.4646 5.48675 69.1347L4.54829 69.4801C5.41727 71.8413 6.43205 74.2332 7.59113 76.6533L8.49303 76.2214ZM3.23583 61.7832C2.61432 59.2184 2.18132 56.6999 1.93794 54.2311L0.942761 54.3292C1.19099 56.8472 1.6322 59.4116 2.26396 62.0187L3.23583 61.7832ZM1.80258 46.5785C1.97551 44.0008 2.37601 41.4855 3.00598 39.0365L2.03751 38.7874C1.39177 41.2976 0.981771 43.874 0.804822 46.5116L1.80258 46.5785ZM5.60374 31.8559C6.67346 29.5944 7.96557 27.3985 9.48286 25.2725L8.66889 24.6916C7.11826 26.8643 5.79572 29.1113 4.69977 31.4283L5.60374 31.8559ZM14.4149 19.4104C16.1417 17.6461 18.048 15.9396 20.1357 14.294L19.5167 13.5087C17.3974 15.1791 15.4589 16.9141 13.7003 18.7109L14.4149 19.4104ZM26.4181 9.87329C28.5107 8.55404 30.7395 7.28252 33.1057 6.06077L32.6469 5.17223C30.2569 6.40626 28.0031 7.6919 25.8848 9.02736L26.4181 9.87329ZM40.084 2.7746C41.2482 2.27439 42.4397 1.78439 43.6584 1.30476L43.2922 0.374224C42.0642 0.857513 40.8632 1.35143 39.6893 1.85582L40.084 2.7746Z" fill="#CECECE"/>
</svg>
