<svg width="44" height="88" viewBox="0 0 44 88" fill="none" xmlns="http://www.w3.org/2000/svg"><path d="M13.545 87.088a.5.5 0 0 0 .6-.374l1.015-4.384a.5.5 0 0 0-.974-.226l-.902 3.897-3.897-.902a.5.5 0 1 0-.226.974l4.384 1.015Zm.537-.751a114.214 114.214 0 0 1-1.987-3.307l-.866.5c.64 1.107 1.308 2.219 2.005 3.336l.848-.53ZM8.493 76.222a81.952 81.952 0 0 1-3.006-7.087l-.939.345a82.933 82.933 0 0 0 3.043 7.173l.902-.431ZM3.236 61.783a54.971 54.971 0 0 1-1.298-7.552l-.995.098a55.97 55.97 0 0 0 1.321 7.69l.972-.236ZM1.803 46.58a41.313 41.313 0 0 1 1.203-7.542l-.968-.25a42.313 42.313 0 0 0-1.233 7.725l.998.067Zm3.8-14.723a42.917 42.917 0 0 1 3.88-6.584l-.814-.58a43.919 43.919 0 0 0-3.97 6.736l.905.428Zm8.812-12.446a59.696 59.696 0 0 1 5.72-5.116l-.618-.785A60.68 60.68 0 0 0 13.7 18.71l.715.7Zm12.003-9.537a89.71 89.71 0 0 1 6.688-3.812l-.46-.889a90.707 90.707 0 0 0-6.761 3.855l.533.846Zm13.666-7.098c1.164-.5 2.356-.99 3.574-1.47l-.366-.93a126.18 126.18 0 0 0-3.603 1.48l.395.92Z" fill="#CECECE"/></svg>