<svg width="104" height="208" viewBox="0 0 104 208" fill="none" xmlns="http://www.w3.org/2000/svg"><path d="M31.057 207.725a.5.5 0 0 0 .6-.375l1.015-4.384a.5.5 0 1 0-.974-.225l-.902 3.897-3.897-.903a.5.5 0 0 0-.226.974l4.384 1.016Zm.537-.752c-.73-1.17-1.447-2.338-2.15-3.503l-.857.517a285.242 285.242 0 0 0 2.159 3.515l.848-.529Zm-6.252-10.532a246.939 246.939 0 0 1-3.875-7.15l-.887.461a247.429 247.429 0 0 0 3.89 7.18l.872-.491Zm-7.5-14.428a208.086 208.086 0 0 1-3.355-7.42l-.92.394a209.256 209.256 0 0 0 3.372 7.455l.903-.429Zm-6.406-14.972a174.957 174.957 0 0 1-2.71-7.675l-.95.31a176.092 176.092 0 0 0 2.725 7.72l.935-.355Zm-5.041-15.468a146.708 146.708 0 0 1-1.914-7.901l-.978.208c.56 2.632 1.202 5.284 1.927 7.955l.965-.262Zm-3.367-15.895a124.33 124.33 0 0 1-.95-8.077l-.996.084c.226 2.691.545 5.405.957 8.142l.989-.149Zm-1.349-16.197c-.036-2.734.027-5.441.192-8.121l-.998-.062c-.166 2.706-.23 5.438-.193 8.197l1-.014Zm1.008-16.199c.38-2.691.867-5.352 1.461-7.982l-.975-.22c-.6 2.657-1.093 5.345-1.476 8.062l.99.14Zm3.577-15.817a97.291 97.291 0 0 1 2.763-7.634l-.926-.38a98.29 98.29 0 0 0-2.791 7.713l.954.301Zm6.145-15.008a102.647 102.647 0 0 1 3.966-7.08l-.852-.522a103.666 103.666 0 0 0-4.005 7.148l.891.454Zm8.468-13.834a115.073 115.073 0 0 1 4.984-6.412l-.768-.641a116.124 116.124 0 0 0-5.027 6.468l.81.585Zm10.396-12.474c1.84-1.932 3.769-3.836 5.784-5.71l-.68-.733a135.327 135.327 0 0 0-5.829 5.753l.725.69Zm11.892-11.077c2.05-1.705 4.18-3.384 6.385-5.036l-.599-.8a160.946 160.946 0 0 0-6.425 5.067l.639.769Zm13.01-9.757a191.328 191.328 0 0 1 6.83-4.423l-.526-.85a192.256 192.256 0 0 0-6.866 4.446l.562.827Zm13.84-8.568a228.28 228.28 0 0 1 7.168-3.885l-.46-.887a229.17 229.17 0 0 0-7.2 3.902l.492.87ZM84.493 9.22a269.887 269.887 0 0 1 7.384-3.394l-.404-.915a270.794 270.794 0 0 0-7.411 3.407l.431.902Zm14.863-6.574a310.455 310.455 0 0 1 3.824-1.534l-.366-.93c-1.291.508-2.57 1.02-3.836 1.539l.378.925Z" fill="#CECECE"/></svg>