<svg width="495" height="318" viewBox="0 0 495 318" fill="none" xmlns="http://www.w3.org/2000/svg">
<g opacity="0.9" filter="url(#filter0_d_172_357)">
<path d="M430.03 69.8204V207.408C430.03 219.969 419.848 230.151 407.287 230.151H90.9055C89.5166 230.151 88.1394 230.406 86.8422 230.902L72.7156 236.306C68.9928 237.731 64.998 234.982 64.998 230.996V69.8204C64.998 57.2595 75.1806 47.0769 87.7415 47.0769H407.287C419.848 47.0769 430.03 57.2595 430.03 69.8204Z" fill="white"/>
</g>
<rect x="83.1934" y="65.2717" width="50.0356" height="50.0356" rx="25.0178" fill="#F5F4FF"/>
<path fill-rule="evenodd" clip-rule="evenodd" d="M96.8394 82.4189C96.8394 79.2293 99.4473 76.6436 102.664 76.6436H114.314C117.531 76.6436 120.139 79.2293 120.139 82.4189C120.139 82.4622 120.139 82.5054 120.138 82.5485L120.139 82.5473V88.542C120.139 90.1616 118.582 90.7487 117.373 89.6599C116.413 88.7954 115.065 88.1943 111.984 88.1943H102.664C99.4474 88.1943 96.8394 85.6086 96.8394 82.4189ZM103.57 81.3922C102.927 81.3922 102.405 81.9093 102.405 82.5473C102.405 83.1852 102.927 83.7023 103.57 83.7023C104.214 83.7023 104.735 83.1852 104.735 82.5473C104.735 81.9093 104.214 81.3922 103.57 81.3922ZM107.324 82.5473C107.324 81.9093 107.846 81.3922 108.489 81.3922C109.133 81.3922 109.654 81.9093 109.654 82.5473C109.654 83.1852 109.133 83.7023 108.489 83.7023C107.846 83.7023 107.324 83.1852 107.324 82.5473ZM113.408 81.3922C112.765 81.3922 112.243 81.9093 112.243 82.5473C112.243 83.1852 112.765 83.7023 113.408 83.7023C114.052 83.7023 114.573 83.1852 114.573 82.5473C114.573 81.9093 114.052 81.3922 113.408 81.3922Z" fill="url(#paint0_linear_172_357)"/>
<path fill-rule="evenodd" clip-rule="evenodd" d="M120.139 98.1603C120.139 101.35 117.531 103.936 114.314 103.936H102.664C99.4473 103.936 96.8394 101.35 96.8394 98.1603C96.8394 98.1171 96.8399 98.0738 96.8409 98.0308L96.8394 98.0319V91.8446C96.8394 90.2612 98.3 89.7128 99.5226 90.7315C100.615 91.642 102.17 92.3849 104.994 92.3849H114.314C117.531 92.3849 120.139 94.9706 120.139 98.1603ZM103.571 96.8128C102.927 96.8128 102.406 97.3299 102.406 97.9677C102.406 98.6058 102.927 99.1229 103.571 99.1229C104.214 99.1229 104.736 98.6058 104.736 97.9677C104.736 97.3299 104.214 96.8128 103.571 96.8128ZM107.324 97.9677C107.324 97.3299 107.846 96.8128 108.489 96.8128C109.133 96.8128 109.654 97.3299 109.654 97.9677C109.654 98.6058 109.133 99.1229 108.489 99.1229C107.846 99.1229 107.324 98.6058 107.324 97.9677ZM113.408 96.8128C112.765 96.8128 112.243 97.3299 112.243 97.9677C112.243 98.6058 112.765 99.1229 113.408 99.1229C114.052 99.1229 114.573 98.6058 114.573 97.9677C114.573 97.3299 114.052 96.8128 113.408 96.8128Z" fill="url(#paint1_linear_172_357)"/>
<mask id="mask0_172_357" style="mask-type:alpha" maskUnits="userSpaceOnUse" x="149" y="65" width="263" height="154">
<rect x="149.149" y="65.2717" width="262.687" height="153.518" fill="url(#paint2_linear_172_357)"/>
</mask>
<g mask="url(#mask0_172_357)">
<path d="M150.714 71.1358H159.63V83.2717H158.283V72.4095H152.061V83.2717H150.714V71.1358ZM163.744 82.2164V87.4565H162.434V75.7209H163.744V76.7762C164.411 75.9514 165.272 75.539 166.327 75.539C167.455 75.539 168.347 75.9392 169.002 76.7398C169.669 77.5282 170.003 78.4622 170.003 79.5418C170.003 80.6335 169.675 81.5675 169.02 82.3438C168.365 83.108 167.486 83.4901 166.382 83.4901C165.278 83.4901 164.399 83.0655 163.744 82.2164ZM166.2 82.3256C166.94 82.3256 167.534 82.0587 167.983 81.525C168.432 80.9792 168.656 80.3181 168.656 79.5418C168.656 78.6685 168.408 77.9771 167.91 77.4676C167.413 76.9581 166.837 76.7034 166.182 76.7034C165.527 76.7034 164.944 76.9581 164.435 77.4676C163.926 77.9771 163.671 78.6624 163.671 79.5236C163.671 80.312 163.901 80.9792 164.362 81.525C164.835 82.0587 165.448 82.3256 166.2 82.3256ZM172.011 75.7209H173.321V80.7063L178.488 75.1387V83.2717H177.178V78.2318L172.011 83.7994V75.7209ZM180.966 75.7209H183.823C184.514 75.7209 185.042 75.8665 185.405 76.1576C185.842 76.5093 186.06 76.9824 186.06 77.5768C186.06 78.2318 185.788 78.7352 185.242 79.0869C185.618 79.184 185.933 79.3538 186.188 79.5964C186.588 79.9845 186.788 80.4697 186.788 81.052C186.788 81.7798 186.527 82.3499 186.006 82.7623C185.557 83.1019 184.963 83.2717 184.223 83.2717H180.966V75.7209ZM182.276 78.7958H183.659C184.011 78.7958 184.29 78.723 184.496 78.5775C184.738 78.3955 184.86 78.1347 184.86 77.7951C184.86 77.4919 184.738 77.2493 184.496 77.0673C184.314 76.946 183.962 76.8854 183.44 76.8854H182.276V78.7958ZM182.276 82.1073H183.895C184.453 82.1073 184.847 82.0224 185.078 81.8525C185.369 81.6342 185.515 81.3552 185.515 81.0156C185.515 80.6517 185.387 80.3666 185.133 80.1604C184.902 79.9785 184.508 79.8875 183.95 79.8875H182.276V82.1073ZM194.388 80.7427L195.48 81.3431C195.225 81.8283 194.916 82.2346 194.552 82.5621C193.86 83.1808 193.023 83.4901 192.041 83.4901C191.022 83.4901 190.143 83.1626 189.403 82.5075C188.675 81.8404 188.311 80.8518 188.311 79.5418C188.311 78.3895 188.638 77.4373 189.293 76.6852C189.961 75.921 190.852 75.539 191.968 75.539C193.23 75.539 194.182 75.9999 194.825 76.9218C195.334 77.6495 195.571 78.5957 195.534 79.7601H189.657C189.669 80.5243 189.906 81.1429 190.367 81.616C190.828 82.0891 191.392 82.3256 192.059 82.3256C192.653 82.3256 193.169 82.1437 193.606 81.7798C193.945 81.4886 194.206 81.1429 194.388 80.7427ZM189.748 78.6685H194.188C194.079 78.0741 193.818 77.601 193.405 77.2493C193.005 76.8854 192.526 76.7034 191.968 76.7034C191.422 76.7034 190.937 76.8914 190.512 77.2675C190.1 77.6314 189.845 78.0984 189.748 78.6685ZM202.493 76.9218H200.127V83.2717H198.817V76.9218H196.452V75.7209H202.493V76.9218ZM203.246 85.6916L204.738 81.4886L205.939 81.9253L204.102 86.0373L203.246 85.6916ZM213.287 83.2717V75.7209H214.597V78.814H218.163V75.7209H219.473V83.2717H218.163V80.0149H214.597V83.2717H213.287ZM227.726 76.7944V75.7209H229.036V83.2717H227.726V82.2164C227.071 83.0655 226.209 83.4901 225.142 83.4901C224.123 83.4901 223.256 83.1383 222.54 82.4348C221.824 81.7312 221.467 80.7487 221.467 79.4872C221.467 78.25 221.818 77.2857 222.522 76.5943C223.238 75.8907 224.111 75.539 225.142 75.539C226.234 75.539 227.095 75.9574 227.726 76.7944ZM225.288 76.7034C224.596 76.7034 224.008 76.9521 223.523 77.4494C223.05 77.9346 222.813 78.6139 222.813 79.4872C222.813 80.3242 223.031 81.0095 223.468 81.5432C223.917 82.0648 224.523 82.3256 225.288 82.3256C226.052 82.3256 226.658 82.0527 227.107 81.5068C227.568 80.961 227.798 80.2939 227.798 79.5054C227.798 78.6078 227.544 77.9164 227.034 77.4312C226.525 76.946 225.943 76.7034 225.288 76.7034ZM231.517 83.2717V75.7209H232.827V82.0709H235.738V75.7209H237.048V82.0709H239.959V75.7209H241.269V83.2717H231.517ZM247.988 83.2717V75.7209H249.298V78.814H252.864V75.7209H254.174V83.2717H252.864V80.0149H249.298V83.2717H247.988ZM263.028 82.362C262.276 83.114 261.323 83.4901 260.171 83.4901C259.019 83.4901 258.06 83.114 257.296 82.362C256.544 81.6099 256.168 80.6638 256.168 79.5236C256.168 78.3713 256.544 77.4191 257.296 76.667C258.06 75.915 259.019 75.539 260.171 75.539C261.323 75.539 262.276 75.915 263.028 76.667C263.792 77.4191 264.174 78.3713 264.174 79.5236C264.174 80.6638 263.792 81.6099 263.028 82.362ZM262.045 77.4494C261.536 76.9521 260.911 76.7034 260.171 76.7034C259.431 76.7034 258.8 76.9581 258.279 77.4676C257.769 77.9649 257.515 78.6503 257.515 79.5236C257.515 80.397 257.775 81.0823 258.297 81.5796C258.819 82.0769 259.443 82.3256 260.171 82.3256C260.899 82.3256 261.523 82.0769 262.045 81.5796C262.567 81.0823 262.827 80.397 262.827 79.5236C262.827 78.6381 262.567 77.9467 262.045 77.4494ZM266.183 75.7209H269.039C269.731 75.7209 270.258 75.8665 270.622 76.1576C271.059 76.5093 271.277 76.9824 271.277 77.5768C271.277 78.2318 271.004 78.7352 270.459 79.0869C270.835 79.184 271.15 79.3538 271.405 79.5964C271.805 79.9845 272.005 80.4697 272.005 81.052C272.005 81.7798 271.744 82.3499 271.223 82.7623C270.774 83.1019 270.18 83.2717 269.44 83.2717H266.183V75.7209ZM267.493 78.7958H268.876C269.227 78.7958 269.506 78.723 269.713 78.5775C269.955 78.3955 270.076 78.1347 270.076 77.7951C270.076 77.4919 269.955 77.2493 269.713 77.0673C269.531 76.946 269.179 76.8854 268.657 76.8854H267.493V78.7958ZM267.493 82.1073H269.112C269.67 82.1073 270.064 82.0224 270.295 81.8525C270.586 81.6342 270.731 81.3552 270.731 81.0156C270.731 80.6517 270.604 80.3666 270.349 80.1604C270.119 79.9785 269.725 79.8875 269.167 79.8875H267.493V82.1073ZM274.001 83.2717V75.7209H275.311V78.6139H276.657C277.7 78.6139 278.465 78.8625 278.95 79.3599C279.338 79.748 279.532 80.2757 279.532 80.9428C279.532 81.6463 279.308 82.2104 278.859 82.6349C278.41 83.0595 277.67 83.2717 276.639 83.2717H274.001ZM275.311 82.1073H276.53C277.076 82.1073 277.464 82.0405 277.694 81.9071C278.022 81.6888 278.186 81.3673 278.186 80.9428C278.186 80.5061 278.028 80.1907 277.713 79.9967C277.494 79.8511 277.106 79.7783 276.548 79.7783H275.311V82.1073ZM280.442 83.2717V75.7209H281.752V83.2717H280.442ZM284.218 75.7209H285.528V80.7063L290.695 75.1387V83.2717H289.385V78.2318L284.218 83.7994V75.7209ZM284.873 72.464L285.964 72.0456C286.183 72.7734 286.698 73.1372 287.511 73.1372C288.324 73.1372 288.839 72.7734 289.057 72.0456L290.149 72.464C289.955 73.0099 289.621 73.4405 289.148 73.7559C288.687 74.0712 288.142 74.2289 287.511 74.2289C286.88 74.2289 286.328 74.0712 285.855 73.7559C285.394 73.4405 285.067 73.0099 284.873 72.464ZM303.333 76.2667V77.8315C302.738 77.0794 301.95 76.7034 300.967 76.7034C300.228 76.7034 299.597 76.9581 299.075 77.4676C298.554 77.9649 298.293 78.6503 298.293 79.5236C298.293 80.397 298.554 81.0823 299.075 81.5796C299.597 82.0769 300.222 82.3256 300.949 82.3256C301.92 82.3256 302.732 81.9314 303.387 81.1429V82.7077C302.672 83.2293 301.871 83.4901 300.986 83.4901C299.809 83.4901 298.839 83.1201 298.075 82.3802C297.322 81.6281 296.946 80.682 296.946 79.5418C296.946 78.3895 297.329 77.4373 298.093 76.6852C298.857 75.921 299.821 75.539 300.986 75.539C301.859 75.539 302.641 75.7816 303.333 76.2667ZM311.588 82.362C310.836 83.114 309.884 83.4901 308.732 83.4901C307.579 83.4901 306.621 83.114 305.857 82.362C305.105 81.6099 304.729 80.6638 304.729 79.5236C304.729 78.3713 305.105 77.4191 305.857 76.667C306.621 75.915 307.579 75.539 308.732 75.539C309.884 75.539 310.836 75.915 311.588 76.667C312.353 77.4191 312.735 78.3713 312.735 79.5236C312.735 80.6638 312.353 81.6099 311.588 82.362ZM310.606 77.4494C310.096 76.9521 309.472 76.7034 308.732 76.7034C307.992 76.7034 307.361 76.9581 306.84 77.4676C306.33 77.9649 306.075 78.6503 306.075 79.5236C306.075 80.397 306.336 81.0823 306.858 81.5796C307.379 82.0769 308.004 82.3256 308.732 82.3256C309.46 82.3256 310.084 82.0769 310.606 81.5796C311.127 81.0823 311.388 80.397 311.388 79.5236C311.388 78.6381 311.127 77.9467 310.606 77.4494ZM319.515 76.9218H317.15V83.2717H315.84V76.9218H313.474V75.7209H319.515V76.9218ZM322.201 82.2164V87.4565H320.891V75.7209H322.201V76.7762C322.869 75.9514 323.73 75.539 324.785 75.539C325.913 75.539 326.805 75.9392 327.46 76.7398C328.127 77.5282 328.46 78.4622 328.46 79.5418C328.46 80.6335 328.133 81.5675 327.478 82.3438C326.823 83.108 325.944 83.4901 324.84 83.4901C323.736 83.4901 322.856 83.0655 322.201 82.2164ZM324.658 82.3256C325.398 82.3256 325.992 82.0587 326.441 81.525C326.89 80.9792 327.114 80.3181 327.114 79.5418C327.114 78.6685 326.865 77.9771 326.368 77.4676C325.871 76.9581 325.295 76.7034 324.64 76.7034C323.985 76.7034 323.402 76.9581 322.893 77.4676C322.383 77.9771 322.129 78.6624 322.129 79.5236C322.129 80.312 322.359 80.9792 322.82 81.525C323.293 82.0587 323.906 82.3256 324.658 82.3256ZM330.45 87.4565L332.852 82.5621L329.377 75.7209H330.869L333.543 81.1247L336 75.7209H337.455L331.906 87.4565H330.45ZM339.383 75.7209H344.696V82.0709H345.824V85.2732H344.623V83.2717H338.874V85.2732H337.673V82.0709C338.304 82.0587 338.771 81.7312 339.074 81.0884C339.28 80.6638 339.383 79.9967 339.383 79.0869V75.7209ZM343.386 82.0709V76.9218H340.693V79.7601C340.693 80.7669 340.39 81.5372 339.784 82.0709H343.386ZM347.206 83.2717V75.7209H348.516V78.814H352.083V75.7209H353.393V83.2717H352.083V80.0149H348.516V83.2717H347.206ZM355.86 75.7209H357.17V80.7063L362.337 75.1387V83.2717H361.027V78.2318L355.86 83.7994V75.7209ZM364.815 75.7209H366.125V78.814L369.181 75.7209H370.783L367.508 79.0869L371.183 83.2717H369.473L366.525 79.9603L366.125 80.3424V83.2717H364.815V75.7209ZM374.456 80.8154H373.146V71.1358H374.456V80.8154ZM373.164 83.1808C372.982 82.9988 372.891 82.7865 372.891 82.5439C372.891 82.3013 372.982 82.0891 373.164 81.9071C373.346 81.7252 373.558 81.6342 373.801 81.6342C374.043 81.6342 374.256 81.7252 374.438 81.9071C374.619 82.0891 374.71 82.3013 374.71 82.5439C374.71 82.7865 374.619 82.9988 374.438 83.1808C374.256 83.3627 374.043 83.4537 373.801 83.4537C373.558 83.4537 373.346 83.3627 373.164 83.1808ZM149.695 128.272L153.261 122.886C152.437 122.801 151.757 122.546 151.224 122.122C150.52 121.552 150.168 120.727 150.168 119.647C150.168 118.653 150.447 117.846 151.005 117.228C151.66 116.5 152.667 116.136 154.026 116.136H156.864V128.272H155.518V122.959H154.79L151.333 128.272H149.695ZM155.518 117.409H154.208C153.237 117.409 152.546 117.622 152.133 118.046C151.745 118.459 151.551 118.98 151.551 119.611C151.551 120.327 151.782 120.873 152.243 121.249C152.679 121.588 153.298 121.758 154.098 121.758H155.518V117.409ZM168.857 121.922H166.492V128.272H165.182V121.922H162.817V120.721H168.857V121.922ZM170.234 120.721H173.09C173.782 120.721 174.309 120.866 174.673 121.158C175.11 121.509 175.328 121.982 175.328 122.577C175.328 123.232 175.055 123.735 174.51 124.087C174.886 124.184 175.201 124.354 175.456 124.596C175.856 124.985 176.056 125.47 176.056 126.052C176.056 126.78 175.795 127.35 175.274 127.762C174.825 128.102 174.231 128.272 173.491 128.272H170.234V120.721ZM171.544 123.796H172.927C173.278 123.796 173.557 123.723 173.764 123.577C174.006 123.396 174.128 123.135 174.128 122.795C174.128 122.492 174.006 122.249 173.764 122.067C173.582 121.946 173.23 121.885 172.708 121.885H171.544V123.796ZM171.544 127.107H173.163C173.721 127.107 174.115 127.022 174.346 126.853C174.637 126.634 174.783 126.355 174.783 126.016C174.783 125.652 174.655 125.367 174.4 125.16C174.17 124.978 173.776 124.888 173.218 124.888H171.544V127.107ZM184.438 127.362C183.686 128.114 182.734 128.49 181.582 128.49C180.429 128.49 179.471 128.114 178.707 127.362C177.955 126.61 177.579 125.664 177.579 124.524C177.579 123.371 177.955 122.419 178.707 121.667C179.471 120.915 180.429 120.539 181.582 120.539C182.734 120.539 183.686 120.915 184.438 121.667C185.202 122.419 185.585 123.371 185.585 124.524C185.585 125.664 185.202 126.61 184.438 127.362ZM183.456 122.449C182.946 121.952 182.322 121.703 181.582 121.703C180.842 121.703 180.211 121.958 179.689 122.468C179.18 122.965 178.925 123.65 178.925 124.524C178.925 125.397 179.186 126.082 179.708 126.58C180.229 127.077 180.854 127.326 181.582 127.326C182.31 127.326 182.934 127.077 183.456 126.58C183.977 126.082 184.238 125.397 184.238 124.524C184.238 123.638 183.977 122.947 183.456 122.449ZM187.594 120.721H188.904V125.706L194.071 120.139V128.272H192.761V123.232L187.594 128.799V120.721ZM188.249 117.464L189.34 117.046C189.559 117.773 190.074 118.137 190.887 118.137C191.699 118.137 192.215 117.773 192.433 117.046L193.525 117.464C193.331 118.01 192.997 118.44 192.524 118.756C192.063 119.071 191.518 119.229 190.887 119.229C190.256 119.229 189.704 119.071 189.231 118.756C188.77 118.44 188.443 118.01 188.249 117.464ZM200.795 120.721H206.872V128.272H205.562V121.922H202.105V128.272H200.795V120.721ZM214.946 125.743L216.038 126.343C215.783 126.828 215.474 127.235 215.11 127.562C214.418 128.181 213.581 128.49 212.599 128.49C211.58 128.49 210.7 128.163 209.961 127.508C209.233 126.84 208.869 125.852 208.869 124.542C208.869 123.389 209.196 122.437 209.851 121.685C210.519 120.921 211.41 120.539 212.526 120.539C213.788 120.539 214.74 121 215.383 121.922C215.892 122.65 216.129 123.596 216.092 124.76H210.215C210.227 125.524 210.464 126.143 210.925 126.616C211.386 127.089 211.95 127.326 212.617 127.326C213.211 127.326 213.727 127.144 214.164 126.78C214.503 126.489 214.764 126.143 214.946 125.743ZM210.306 123.668H214.746C214.637 123.074 214.376 122.601 213.963 122.249C213.563 121.885 213.084 121.703 212.526 121.703C211.98 121.703 211.495 121.891 211.07 122.267C210.658 122.631 210.403 123.098 210.306 123.668ZM219.412 127.216V132.457H218.102V120.721H219.412V121.776C220.079 120.951 220.94 120.539 221.995 120.539C223.123 120.539 224.015 120.939 224.67 121.74C225.337 122.528 225.671 123.462 225.671 124.542C225.671 125.633 225.343 126.567 224.688 127.344C224.033 128.108 223.154 128.49 222.05 128.49C220.946 128.49 220.067 128.066 219.412 127.216ZM221.868 127.326C222.608 127.326 223.202 127.059 223.651 126.525C224.1 125.979 224.324 125.318 224.324 124.542C224.324 123.668 224.076 122.977 223.578 122.468C223.081 121.958 222.505 121.703 221.85 121.703C221.195 121.703 220.613 121.958 220.103 122.468C219.594 122.977 219.339 123.662 219.339 124.524C219.339 125.312 219.569 125.979 220.03 126.525C220.503 127.059 221.116 127.326 221.868 127.326ZM233.592 121.267V122.831C232.998 122.079 232.209 121.703 231.227 121.703C230.487 121.703 229.856 121.958 229.335 122.468C228.813 122.965 228.552 123.65 228.552 124.524C228.552 125.397 228.813 126.082 229.335 126.58C229.856 127.077 230.481 127.326 231.209 127.326C232.179 127.326 232.992 126.931 233.647 126.143V127.708C232.931 128.229 232.13 128.49 231.245 128.49C230.068 128.49 229.098 128.12 228.334 127.38C227.582 126.628 227.206 125.682 227.206 124.542C227.206 123.389 227.588 122.437 228.352 121.685C229.116 120.921 230.081 120.539 231.245 120.539C232.118 120.539 232.901 120.782 233.592 121.267ZM241.848 127.362C241.096 128.114 240.143 128.49 238.991 128.49C237.839 128.49 236.881 128.114 236.116 127.362C235.364 126.61 234.988 125.664 234.988 124.524C234.988 123.371 235.364 122.419 236.116 121.667C236.881 120.915 237.839 120.539 238.991 120.539C240.143 120.539 241.096 120.915 241.848 121.667C242.612 122.419 242.994 123.371 242.994 124.524C242.994 125.664 242.612 126.61 241.848 127.362ZM240.865 122.449C240.356 121.952 239.731 121.703 238.991 121.703C238.251 121.703 237.62 121.958 237.099 122.468C236.589 122.965 236.335 123.65 236.335 124.524C236.335 125.397 236.596 126.082 237.117 126.58C237.639 127.077 238.263 127.326 238.991 127.326C239.719 127.326 240.344 127.077 240.865 126.58C241.387 126.082 241.648 125.397 241.648 124.524C241.648 123.638 241.387 122.947 240.865 122.449ZM245.003 128.272V120.721H246.313V123.814H249.879V120.721H251.189V128.272H249.879V125.015H246.313V128.272H245.003ZM259.442 121.794V120.721H260.752V128.272H259.442V127.216C258.787 128.066 257.926 128.49 256.858 128.49C255.84 128.49 254.972 128.138 254.257 127.435C253.541 126.731 253.183 125.749 253.183 124.487C253.183 123.25 253.535 122.286 254.238 121.594C254.954 120.891 255.827 120.539 256.858 120.539C257.95 120.539 258.811 120.957 259.442 121.794ZM257.004 121.703C256.313 121.703 255.724 121.952 255.239 122.449C254.766 122.935 254.529 123.614 254.529 124.487C254.529 125.324 254.748 126.01 255.184 126.543C255.633 127.065 256.24 127.326 257.004 127.326C257.768 127.326 258.375 127.053 258.823 126.507C259.284 125.961 259.515 125.294 259.515 124.505C259.515 123.608 259.26 122.916 258.751 122.431C258.241 121.946 257.659 121.703 257.004 121.703ZM268.946 120.721V128.272H267.636V121.922H264.944V125.324C264.944 126.307 264.749 127.034 264.361 127.508C263.925 128.041 263.318 128.308 262.542 128.308C262.445 128.308 262.311 128.296 262.142 128.272V127.071C262.263 127.095 262.36 127.107 262.433 127.107C262.857 127.107 263.173 126.944 263.379 126.616C263.549 126.349 263.634 125.919 263.634 125.324V120.721H268.946ZM271.424 128.272V120.721H272.734V123.614H274.081C275.124 123.614 275.888 123.863 276.373 124.36C276.762 124.748 276.956 125.276 276.956 125.943C276.956 126.646 276.731 127.21 276.282 127.635C275.834 128.059 275.094 128.272 274.063 128.272H271.424ZM272.734 127.107H273.954C274.499 127.107 274.888 127.041 275.118 126.907C275.445 126.689 275.609 126.367 275.609 125.943C275.609 125.506 275.452 125.191 275.136 124.997C274.918 124.851 274.53 124.778 273.972 124.778H272.734V127.107ZM278.709 128.272V120.721H280.019V123.814H283.586V120.721H284.896V128.272H283.586V125.015H280.019V128.272H278.709ZM287.363 128.272V120.721H288.673V123.614H290.019C291.062 123.614 291.826 123.863 292.312 124.36C292.7 124.748 292.894 125.276 292.894 125.943C292.894 126.646 292.669 127.21 292.221 127.635C291.772 128.059 291.032 128.272 290.001 128.272H287.363ZM288.673 127.107H289.892C290.438 127.107 290.826 127.041 291.056 126.907C291.384 126.689 291.547 126.367 291.547 125.943C291.547 125.506 291.39 125.191 291.074 124.997C290.856 124.851 290.468 124.778 289.91 124.778H288.673V127.107ZM293.804 128.272V120.721H295.114V128.272H293.804ZM297.579 120.721H298.889V125.706L304.057 120.139V128.272H302.747V123.232L297.579 128.799V120.721ZM298.234 117.464L299.326 117.046C299.544 117.773 300.06 118.137 300.873 118.137C301.685 118.137 302.201 117.773 302.419 117.046L303.511 117.464C303.317 118.01 302.983 118.44 302.51 118.756C302.049 119.071 301.503 119.229 300.873 119.229C300.242 119.229 299.69 119.071 299.217 118.756C298.756 118.44 298.429 118.01 298.234 117.464ZM310.781 120.721H316.858V128.272H315.548V121.922H312.091V128.272H310.781V120.721ZM325.714 127.362C324.962 128.114 324.01 128.49 322.858 128.49C321.705 128.49 320.747 128.114 319.983 127.362C319.231 126.61 318.855 125.664 318.855 124.524C318.855 123.371 319.231 122.419 319.983 121.667C320.747 120.915 321.705 120.539 322.858 120.539C324.01 120.539 324.962 120.915 325.714 121.667C326.478 122.419 326.86 123.371 326.86 124.524C326.86 125.664 326.478 126.61 325.714 127.362ZM324.732 122.449C324.222 121.952 323.598 121.703 322.858 121.703C322.118 121.703 321.487 121.958 320.965 122.468C320.456 122.965 320.201 123.65 320.201 124.524C320.201 125.397 320.462 126.082 320.984 126.58C321.505 127.077 322.13 127.326 322.858 127.326C323.585 127.326 324.21 127.077 324.732 126.58C325.253 126.082 325.514 125.397 325.514 124.524C325.514 123.638 325.253 122.947 324.732 122.449ZM327.996 128.272L329.816 120.139L332.945 126.288L336.002 120.139L337.821 128.272H336.475L335.474 123.596L332.909 128.799L330.307 123.596L329.342 128.272H327.996ZM345.81 127.362C345.058 128.114 344.106 128.49 342.954 128.49C341.801 128.49 340.843 128.114 340.079 127.362C339.327 126.61 338.951 125.664 338.951 124.524C338.951 123.371 339.327 122.419 340.079 121.667C340.843 120.915 341.801 120.539 342.954 120.539C344.106 120.539 345.058 120.915 345.81 121.667C346.574 122.419 346.956 123.371 346.956 124.524C346.956 125.664 346.574 126.61 345.81 127.362ZM344.828 122.449C344.318 121.952 343.694 121.703 342.954 121.703C342.214 121.703 341.583 121.958 341.061 122.468C340.552 122.965 340.297 123.65 340.297 124.524C340.297 125.397 340.558 126.082 341.08 126.58C341.601 127.077 342.226 127.326 342.954 127.326C343.681 127.326 344.306 127.077 344.828 126.58C345.349 126.082 345.61 125.397 345.61 124.524C345.61 123.638 345.349 122.947 344.828 122.449ZM348.965 128.272V120.721H350.275V127.071H353.187V120.721H354.497V127.071H357.408V120.721H358.718V127.071H359.955V130.273H358.754V128.272H348.965ZM361.332 128.272V120.721H362.642V123.814H366.208V120.721H367.518V128.272H366.208V125.015H362.642V128.272H361.332ZM369.985 120.721H371.295V125.706L376.463 120.139V128.272H375.153V123.232L369.985 128.799V120.721ZM378.941 120.721H380.251V123.814L383.307 120.721H384.908L381.633 124.087L385.309 128.272H383.598L380.651 124.96L380.251 125.342V128.272H378.941V120.721ZM390.863 128.272V120.721H392.173V123.814H395.739V120.721H397.049V128.272H395.739V125.015H392.173V128.272H390.863ZM405.302 121.794V120.721H406.612V128.272H405.302V127.216C404.647 128.066 403.786 128.49 402.719 128.49C401.7 128.49 400.832 128.138 400.117 127.435C399.401 126.731 399.043 125.749 399.043 124.487C399.043 123.25 399.395 122.286 400.098 121.594C400.814 120.891 401.688 120.539 402.719 120.539C403.81 120.539 404.671 120.957 405.302 121.794ZM402.864 121.703C402.173 121.703 401.584 121.952 401.099 122.449C400.626 122.935 400.39 123.614 400.39 124.487C400.39 125.324 400.608 126.01 401.045 126.543C401.493 127.065 402.1 127.326 402.864 127.326C403.628 127.326 404.235 127.053 404.684 126.507C405.145 125.961 405.375 125.294 405.375 124.505C405.375 123.608 405.12 122.916 404.611 122.431C404.101 121.946 403.519 121.703 402.864 121.703ZM155.336 144.922H152.97V151.272H151.66V144.922H149.295V143.721H155.336V144.922ZM156.712 143.721H159.569C160.26 143.721 160.788 143.866 161.152 144.158C161.588 144.509 161.807 144.982 161.807 145.577C161.807 146.232 161.534 146.735 160.988 147.087C161.364 147.184 161.679 147.354 161.934 147.596C162.334 147.985 162.535 148.47 162.535 149.052C162.535 149.78 162.274 150.35 161.752 150.762C161.303 151.102 160.709 151.272 159.969 151.272H156.712V143.721ZM158.022 146.796H159.405C159.757 146.796 160.036 146.723 160.242 146.577C160.485 146.396 160.606 146.135 160.606 145.795C160.606 145.492 160.485 145.249 160.242 145.067C160.06 144.946 159.708 144.885 159.187 144.885H158.022V146.796ZM158.022 150.107H159.642C160.2 150.107 160.594 150.022 160.824 149.853C161.115 149.634 161.261 149.355 161.261 149.016C161.261 148.652 161.134 148.367 160.879 148.16C160.648 147.978 160.254 147.888 159.696 147.888H158.022V150.107ZM170.917 150.362C170.165 151.114 169.212 151.49 168.06 151.49C166.908 151.49 165.949 151.114 165.185 150.362C164.433 149.61 164.057 148.664 164.057 147.524C164.057 146.371 164.433 145.419 165.185 144.667C165.949 143.915 166.908 143.539 168.06 143.539C169.212 143.539 170.165 143.915 170.917 144.667C171.681 145.419 172.063 146.371 172.063 147.524C172.063 148.664 171.681 149.61 170.917 150.362ZM169.934 145.449C169.425 144.952 168.8 144.703 168.06 144.703C167.32 144.703 166.689 144.958 166.168 145.468C165.658 145.965 165.404 146.65 165.404 147.524C165.404 148.397 165.664 149.082 166.186 149.58C166.708 150.077 167.332 150.326 168.06 150.326C168.788 150.326 169.413 150.077 169.934 149.58C170.456 149.082 170.716 148.397 170.716 147.524C170.716 146.638 170.456 145.947 169.934 145.449ZM179.676 148.743L180.768 149.343C180.513 149.828 180.203 150.235 179.84 150.562C179.148 151.181 178.311 151.49 177.329 151.49C176.31 151.49 175.43 151.163 174.69 150.508C173.963 149.84 173.599 148.852 173.599 147.542C173.599 146.389 173.926 145.437 174.581 144.685C175.248 143.921 176.14 143.539 177.256 143.539C178.517 143.539 179.47 144 180.112 144.922C180.622 145.65 180.858 146.596 180.822 147.76H174.945C174.957 148.524 175.194 149.143 175.655 149.616C176.116 150.089 176.68 150.326 177.347 150.326C177.941 150.326 178.457 150.144 178.893 149.78C179.233 149.489 179.494 149.143 179.676 148.743ZM175.036 146.668H179.476C179.367 146.074 179.106 145.601 178.693 145.249C178.293 144.885 177.814 144.703 177.256 144.703C176.71 144.703 176.225 144.891 175.8 145.267C175.388 145.631 175.133 146.098 175.036 146.668ZM181.958 151.272L183.778 143.139L186.907 149.288L189.964 143.139L191.783 151.272H190.437L189.436 146.596L186.871 151.799L184.269 146.596L183.305 151.272H181.958ZM197.633 151.272V143.721H198.943V146.814H202.509V143.721H203.819V151.272H202.509V148.015H198.943V151.272H197.633ZM212.672 150.362C211.92 151.114 210.968 151.49 209.816 151.49C208.663 151.49 207.705 151.114 206.941 150.362C206.189 149.61 205.813 148.664 205.813 147.524C205.813 146.371 206.189 145.419 206.941 144.667C207.705 143.915 208.663 143.539 209.816 143.539C210.968 143.539 211.92 143.915 212.672 144.667C213.436 145.419 213.818 146.371 213.818 147.524C213.818 148.664 213.436 149.61 212.672 150.362ZM211.69 145.449C211.18 144.952 210.555 144.703 209.816 144.703C209.076 144.703 208.445 144.958 207.923 145.468C207.414 145.965 207.159 146.65 207.159 147.524C207.159 148.397 207.42 149.082 207.942 149.58C208.463 150.077 209.088 150.326 209.816 150.326C210.543 150.326 211.168 150.077 211.69 149.58C212.211 149.082 212.472 148.397 212.472 147.524C212.472 146.638 212.211 145.947 211.69 145.449ZM215.827 143.721H218.684C219.375 143.721 219.903 143.866 220.267 144.158C220.704 144.509 220.922 144.982 220.922 145.577C220.922 146.232 220.649 146.735 220.103 147.087C220.479 147.184 220.795 147.354 221.049 147.596C221.45 147.985 221.65 148.47 221.65 149.052C221.65 149.78 221.389 150.35 220.867 150.762C220.419 151.102 219.824 151.272 219.084 151.272H215.827V143.721ZM217.137 146.796H218.52C218.872 146.796 219.151 146.723 219.357 146.577C219.6 146.396 219.721 146.135 219.721 145.795C219.721 145.492 219.6 145.249 219.357 145.067C219.175 144.946 218.823 144.885 218.302 144.885H217.137V146.796ZM217.137 150.107H218.757C219.315 150.107 219.709 150.022 219.939 149.853C220.231 149.634 220.376 149.355 220.376 149.016C220.376 148.652 220.249 148.367 219.994 148.16C219.764 147.978 219.369 147.888 218.811 147.888H217.137V150.107ZM230.032 150.362C229.28 151.114 228.328 151.49 227.175 151.49C226.023 151.49 225.065 151.114 224.3 150.362C223.548 149.61 223.172 148.664 223.172 147.524C223.172 146.371 223.548 145.419 224.3 144.667C225.065 143.915 226.023 143.539 227.175 143.539C228.328 143.539 229.28 143.915 230.032 144.667C230.796 145.419 231.178 146.371 231.178 147.524C231.178 148.664 230.796 149.61 230.032 150.362ZM229.049 145.449C228.54 144.952 227.915 144.703 227.175 144.703C226.435 144.703 225.805 144.958 225.283 145.468C224.774 145.965 224.519 146.65 224.519 147.524C224.519 148.397 224.78 149.082 225.301 149.58C225.823 150.077 226.447 150.326 227.175 150.326C227.903 150.326 228.528 150.077 229.049 149.58C229.571 149.082 229.832 148.397 229.832 147.524C229.832 146.638 229.571 145.947 229.049 145.449ZM232.314 151.272L234.133 143.139L237.263 149.288L240.319 143.139L242.139 151.272H240.792L239.792 146.596L237.226 151.799L234.624 146.596L233.66 151.272H232.314ZM249.298 150.216V155.457H247.988V143.721H249.298V144.776C249.965 143.951 250.826 143.539 251.882 143.539C253.01 143.539 253.901 143.939 254.556 144.74C255.223 145.528 255.557 146.462 255.557 147.542C255.557 148.633 255.23 149.567 254.575 150.344C253.92 151.108 253.04 151.49 251.936 151.49C250.832 151.49 249.953 151.066 249.298 150.216ZM251.754 150.326C252.494 150.326 253.089 150.059 253.537 149.525C253.986 148.979 254.211 148.318 254.211 147.542C254.211 146.668 253.962 145.977 253.465 145.468C252.967 144.958 252.391 144.703 251.736 144.703C251.081 144.703 250.499 144.958 249.989 145.468C249.48 145.977 249.225 146.662 249.225 147.524C249.225 148.312 249.456 148.979 249.917 149.525C250.39 150.059 251.002 150.326 251.754 150.326ZM263.351 144.794V143.721H264.661V151.272H263.351V150.216C262.696 151.066 261.835 151.49 260.767 151.49C259.749 151.49 258.881 151.138 258.166 150.435C257.45 149.731 257.092 148.749 257.092 147.487C257.092 146.25 257.444 145.286 258.147 144.594C258.863 143.891 259.736 143.539 260.767 143.539C261.859 143.539 262.72 143.957 263.351 144.794ZM260.913 144.703C260.222 144.703 259.633 144.952 259.148 145.449C258.675 145.935 258.439 146.614 258.439 147.487C258.439 148.324 258.657 149.01 259.094 149.543C259.542 150.065 260.149 150.326 260.913 150.326C261.677 150.326 262.284 150.053 262.732 149.507C263.193 148.961 263.424 148.294 263.424 147.505C263.424 146.608 263.169 145.916 262.66 145.431C262.15 144.946 261.568 144.703 260.913 144.703ZM272.965 138.535H274.42C274.287 138.984 274.056 139.366 273.729 139.682C273.413 139.985 273.122 140.191 272.855 140.3C272.601 140.409 272.297 140.506 271.946 140.591C271.885 140.604 271.739 140.64 271.509 140.701C271.279 140.749 271.103 140.792 270.981 140.828C270.86 140.864 270.702 140.913 270.508 140.973C270.314 141.034 270.138 141.107 269.981 141.192C269.823 141.277 269.677 141.368 269.544 141.465C269.083 141.817 268.707 142.308 268.416 142.939C268.137 143.557 267.985 144.218 267.961 144.922H267.997C268.543 144 269.459 143.539 270.745 143.539C271.873 143.539 272.807 143.921 273.547 144.685C274.299 145.449 274.675 146.396 274.675 147.524C274.675 148.664 274.293 149.61 273.529 150.362C272.764 151.114 271.77 151.49 270.545 151.49C269.489 151.49 268.622 151.175 267.943 150.544C267.094 149.768 266.669 148.47 266.669 146.65C266.669 143.484 267.385 141.41 268.816 140.428C268.925 140.355 269.041 140.288 269.162 140.228C269.283 140.155 269.411 140.094 269.544 140.046C269.69 139.985 269.811 139.936 269.908 139.9C270.005 139.851 270.138 139.809 270.308 139.773C270.49 139.724 270.611 139.694 270.672 139.682C270.745 139.657 270.878 139.627 271.072 139.591C271.279 139.542 271.406 139.512 271.454 139.5C271.94 139.391 272.291 139.263 272.51 139.118C272.728 138.96 272.88 138.766 272.965 138.535ZM272.546 145.449C272.037 144.952 271.412 144.703 270.672 144.703C269.932 144.703 269.301 144.958 268.78 145.468C268.27 145.965 268.016 146.65 268.016 147.524C268.016 148.397 268.276 149.082 268.798 149.58C269.32 150.077 269.944 150.326 270.672 150.326C271.4 150.326 272.025 150.077 272.546 149.58C273.068 149.082 273.329 148.397 273.329 147.524C273.329 146.638 273.068 145.947 272.546 145.449ZM283.07 150.362C282.318 151.114 281.366 151.49 280.214 151.49C279.061 151.49 278.103 151.114 277.339 150.362C276.587 149.61 276.211 148.664 276.211 147.524C276.211 146.371 276.587 145.419 277.339 144.667C278.103 143.915 279.061 143.539 280.214 143.539C281.366 143.539 282.318 143.915 283.07 144.667C283.834 145.419 284.217 146.371 284.217 147.524C284.217 148.664 283.834 149.61 283.07 150.362ZM282.088 145.449C281.578 144.952 280.954 144.703 280.214 144.703C279.474 144.703 278.843 144.958 278.321 145.468C277.812 145.965 277.557 146.65 277.557 147.524C277.557 148.397 277.818 149.082 278.34 149.58C278.861 150.077 279.486 150.326 280.214 150.326C280.941 150.326 281.566 150.077 282.088 149.58C282.609 149.082 282.87 148.397 282.87 147.524C282.87 146.638 282.609 145.947 282.088 145.449ZM290.265 151.272V148.306C289.549 148.415 288.955 148.47 288.482 148.47C287.657 148.47 287.044 148.288 286.644 147.924C286.219 147.548 286.007 146.929 286.007 146.068V143.721H287.317V145.886C287.317 146.298 287.372 146.596 287.481 146.778C287.651 147.105 288.033 147.269 288.627 147.269C289.161 147.269 289.707 147.214 290.265 147.105V143.721H291.575V151.272H290.265ZM299.648 148.743L300.739 149.343C300.484 149.828 300.175 150.235 299.811 150.562C299.12 151.181 298.283 151.49 297.3 151.49C296.281 151.49 295.402 151.163 294.662 150.508C293.934 149.84 293.57 148.852 293.57 147.542C293.57 146.389 293.898 145.437 294.553 144.685C295.22 143.921 296.112 143.539 297.228 143.539C298.489 143.539 299.441 144 300.084 144.922C300.594 145.65 300.83 146.596 300.794 147.76H294.917C294.929 148.524 295.166 149.143 295.626 149.616C296.087 150.089 296.651 150.326 297.319 150.326C297.913 150.326 298.428 150.144 298.865 149.78C299.205 149.489 299.466 149.143 299.648 148.743ZM295.008 146.668H299.447C299.338 146.074 299.077 145.601 298.665 145.249C298.265 144.885 297.786 144.703 297.228 144.703C296.682 144.703 296.197 144.891 295.772 145.267C295.36 145.631 295.105 146.098 295.008 146.668ZM301.93 151.272L303.749 143.139L306.879 149.288L309.936 143.139L311.755 151.272H310.409L309.408 146.596L306.843 151.799L304.241 146.596L303.276 151.272H301.93ZM316.731 151.272L318.55 143.139L321.68 149.288L324.737 143.139L326.556 151.272H325.21L324.209 146.596L321.644 151.799L319.042 146.596L318.077 151.272H316.731ZM333.763 148.743L334.854 149.343C334.6 149.828 334.29 150.235 333.926 150.562C333.235 151.181 332.398 151.49 331.416 151.49C330.397 151.49 329.517 151.163 328.777 150.508C328.05 149.84 327.686 148.852 327.686 147.542C327.686 146.389 328.013 145.437 328.668 144.685C329.335 143.921 330.227 143.539 331.343 143.539C332.604 143.539 333.556 144 334.199 144.922C334.709 145.65 334.945 146.596 334.909 147.76H329.032C329.044 148.524 329.281 149.143 329.742 149.616C330.203 150.089 330.767 150.326 331.434 150.326C332.028 150.326 332.544 150.144 332.98 149.78C333.32 149.489 333.581 149.143 333.763 148.743ZM329.123 146.668H333.563C333.453 146.074 333.193 145.601 332.78 145.249C332.38 144.885 331.901 144.703 331.343 144.703C330.797 144.703 330.312 144.891 329.887 145.267C329.475 145.631 329.22 146.098 329.123 146.668ZM342.832 144.267V145.831C342.237 145.079 341.449 144.703 340.466 144.703C339.727 144.703 339.096 144.958 338.574 145.468C338.053 145.965 337.792 146.65 337.792 147.524C337.792 148.397 338.053 149.082 338.574 149.58C339.096 150.077 339.72 150.326 340.448 150.326C341.419 150.326 342.231 149.931 342.886 149.143V150.708C342.171 151.229 341.37 151.49 340.485 151.49C339.308 151.49 338.338 151.12 337.573 150.38C336.821 149.628 336.445 148.682 336.445 147.542C336.445 146.389 336.828 145.437 337.592 144.685C338.356 143.921 339.32 143.539 340.485 143.539C341.358 143.539 342.14 143.782 342.832 144.267ZM349.845 144.922H347.48V151.272H346.17V144.922H343.805V143.721H349.845V144.922ZM356.648 148.743L357.74 149.343C357.485 149.828 357.176 150.235 356.812 150.562C356.121 151.181 355.284 151.49 354.301 151.49C353.282 151.49 352.403 151.163 351.663 150.508C350.935 149.84 350.571 148.852 350.571 147.542C350.571 146.389 350.899 145.437 351.554 144.685C352.221 143.921 353.112 143.539 354.228 143.539C355.49 143.539 356.442 144 357.085 144.922C357.594 145.65 357.831 146.596 357.795 147.76H351.918C351.93 148.524 352.166 149.143 352.627 149.616C353.088 150.089 353.652 150.326 354.319 150.326C354.914 150.326 355.429 150.144 355.866 149.78C356.206 149.489 356.466 149.143 356.648 148.743ZM352.009 146.668H356.448C356.339 146.074 356.078 145.601 355.666 145.249C355.265 144.885 354.786 144.703 354.228 144.703C353.683 144.703 353.197 144.891 352.773 145.267C352.36 145.631 352.106 146.098 352.009 146.668ZM360.004 151.181C359.822 150.999 359.731 150.787 359.731 150.544C359.731 150.301 359.822 150.089 360.004 149.907C360.186 149.725 360.398 149.634 360.641 149.634C360.884 149.634 361.096 149.725 361.278 149.907C361.46 150.089 361.551 150.301 361.551 150.544C361.551 150.787 361.46 150.999 361.278 151.181C361.096 151.363 360.884 151.454 360.641 151.454C360.398 151.454 360.186 151.363 360.004 151.181ZM374.45 140.409H371.502V151.272H370.156V140.409H367.208V139.136H374.45V140.409ZM375.032 151.272V143.721H376.342V146.614H377.688C378.731 146.614 379.495 146.863 379.98 147.36C380.369 147.748 380.563 148.276 380.563 148.943C380.563 149.646 380.338 150.21 379.89 150.635C379.441 151.059 378.701 151.272 377.67 151.272H375.032ZM376.342 150.107H377.561C378.106 150.107 378.495 150.041 378.725 149.907C379.053 149.689 379.216 149.367 379.216 148.943C379.216 148.506 379.059 148.191 378.743 147.997C378.525 147.851 378.137 147.778 377.579 147.778H376.342V150.107ZM381.472 151.272V143.721H382.782V151.272H381.472ZM149.513 174.272L151.333 166.139L154.462 172.288L157.519 166.139L159.338 174.272H157.992L156.991 169.596L154.426 174.799L151.824 169.596L150.86 174.272H149.513ZM167.327 173.362C166.575 174.114 165.623 174.49 164.471 174.49C163.318 174.49 162.36 174.114 161.596 173.362C160.844 172.61 160.468 171.664 160.468 170.524C160.468 169.371 160.844 168.419 161.596 167.667C162.36 166.915 163.318 166.539 164.471 166.539C165.623 166.539 166.575 166.915 167.327 167.667C168.092 168.419 168.474 169.371 168.474 170.524C168.474 171.664 168.092 172.61 167.327 173.362ZM166.345 168.449C165.835 167.952 165.211 167.703 164.471 167.703C163.731 167.703 163.1 167.958 162.579 168.468C162.069 168.965 161.814 169.65 161.814 170.524C161.814 171.397 162.075 172.082 162.597 172.58C163.118 173.077 163.743 173.326 164.471 173.326C165.199 173.326 165.823 173.077 166.345 172.58C166.866 172.082 167.127 171.397 167.127 170.524C167.127 169.638 166.866 168.947 166.345 168.449ZM174.012 166.721H175.322V169.814L178.161 166.721H179.689L176.414 170.214L180.017 174.272H178.379L175.577 171.088L175.322 171.342V174.272H174.012V171.342L173.758 171.088L170.956 174.272H169.318L172.921 170.214L169.646 166.721H171.174L174.012 169.814V166.721ZM186.748 171.743L187.839 172.343C187.585 172.828 187.275 173.235 186.911 173.562C186.22 174.181 185.383 174.49 184.4 174.49C183.382 174.49 182.502 174.163 181.762 173.508C181.034 172.84 180.671 171.852 180.671 170.542C180.671 169.389 180.998 168.437 181.653 167.685C182.32 166.921 183.212 166.539 184.328 166.539C185.589 166.539 186.541 167 187.184 167.922C187.694 168.65 187.93 169.596 187.894 170.76H182.017C182.029 171.524 182.266 172.143 182.727 172.616C183.187 173.089 183.752 173.326 184.419 173.326C185.013 173.326 185.529 173.144 185.965 172.78C186.305 172.489 186.566 172.143 186.748 171.743ZM182.108 169.668H186.547C186.438 169.074 186.178 168.601 185.765 168.249C185.365 167.885 184.886 167.703 184.328 167.703C183.782 167.703 183.297 167.891 182.872 168.267C182.46 168.631 182.205 169.098 182.108 169.668ZM189.903 174.272V166.721H191.213V173.071H194.125V166.721H195.435V173.071H198.346V166.721H199.656V174.272H189.903ZM202.128 174.272V166.721H203.438V169.614H204.784C205.828 169.614 206.592 169.863 207.077 170.36C207.465 170.748 207.659 171.276 207.659 171.943C207.659 172.646 207.435 173.21 206.986 173.635C206.537 174.059 205.797 174.272 204.766 174.272H202.128ZM203.438 173.107H204.657C205.203 173.107 205.591 173.041 205.822 172.907C206.149 172.689 206.313 172.367 206.313 171.943C206.313 171.506 206.155 171.191 205.84 170.997C205.621 170.851 205.233 170.778 204.675 170.778H203.438V173.107ZM214.642 168.65L213.732 167.904C214.024 167.479 214.345 167.164 214.697 166.957C215.17 166.678 215.722 166.539 216.352 166.539C217.117 166.539 217.711 166.715 218.136 167.067C218.572 167.443 218.791 167.922 218.791 168.504C218.791 169.208 218.506 169.735 217.935 170.087C218.299 170.172 218.59 170.336 218.809 170.578C219.161 170.954 219.336 171.415 219.336 171.961C219.336 172.774 219.009 173.423 218.354 173.908C217.82 174.296 217.105 174.49 216.207 174.49C215.406 174.49 214.733 174.278 214.187 173.853C213.775 173.55 213.441 173.119 213.187 172.561L214.315 172.088C214.448 172.428 214.672 172.713 214.988 172.944C215.327 173.198 215.74 173.326 216.225 173.326C216.795 173.326 217.22 173.229 217.499 173.034C217.851 172.804 218.026 172.452 218.026 171.979C218.026 171.591 217.875 171.3 217.572 171.106C217.317 170.936 216.904 170.851 216.334 170.851H215.57V169.65H216.207C216.668 169.65 216.995 169.584 217.189 169.45C217.456 169.28 217.59 169.05 217.59 168.759C217.59 168.419 217.481 168.158 217.262 167.976C217.056 167.794 216.735 167.703 216.298 167.703C215.922 167.703 215.576 167.8 215.261 167.995C214.994 168.164 214.788 168.383 214.642 168.65ZM227.121 167.794V166.721H228.432V174.272H227.121V173.216C226.466 174.066 225.605 174.49 224.538 174.49C223.519 174.49 222.652 174.138 221.936 173.435C221.22 172.731 220.862 171.749 220.862 170.487C220.862 169.25 221.214 168.286 221.918 167.594C222.633 166.891 223.507 166.539 224.538 166.539C225.63 166.539 226.491 166.957 227.121 167.794ZM224.683 167.703C223.992 167.703 223.404 167.952 222.919 168.449C222.445 168.935 222.209 169.614 222.209 170.487C222.209 171.324 222.427 172.01 222.864 172.543C223.313 173.065 223.919 173.326 224.683 173.326C225.448 173.326 226.054 173.053 226.503 172.507C226.964 171.961 227.194 171.294 227.194 170.505C227.194 169.608 226.94 168.916 226.43 168.431C225.921 167.946 225.338 167.703 224.683 167.703ZM231.459 166.721H236.771V173.071H237.899V176.273H236.699V174.272H230.949V176.273H229.748V173.071C230.379 173.059 230.846 172.731 231.149 172.088C231.355 171.664 231.459 170.997 231.459 170.087V166.721ZM235.461 173.071V167.922H232.769V170.76C232.769 171.767 232.465 172.537 231.859 173.071H235.461ZM245.067 167.794V166.721H246.378V174.272H245.067V173.216C244.412 174.066 243.551 174.49 242.484 174.49C241.465 174.49 240.598 174.138 239.882 173.435C239.166 172.731 238.808 171.749 238.808 170.487C238.808 169.25 239.16 168.286 239.864 167.594C240.579 166.891 241.453 166.539 242.484 166.539C243.576 166.539 244.437 166.957 245.067 167.794ZM242.629 167.703C241.938 167.703 241.35 167.952 240.865 168.449C240.391 168.935 240.155 169.614 240.155 170.487C240.155 171.324 240.373 172.01 240.81 172.543C241.259 173.065 241.865 173.326 242.629 173.326C243.394 173.326 244 173.053 244.449 172.507C244.91 171.961 245.14 171.294 245.14 170.505C245.14 169.608 244.886 168.916 244.376 168.431C243.867 167.946 243.284 167.703 242.629 167.703ZM253.808 167.922H251.442V174.272H250.132V167.922H247.767V166.721H253.808V167.922ZM255.184 174.272V166.721H256.494V169.614H257.841C258.884 169.614 259.648 169.863 260.133 170.36C260.521 170.748 260.715 171.276 260.715 171.943C260.715 172.646 260.491 173.21 260.042 173.635C259.593 174.059 258.853 174.272 257.822 174.272H255.184ZM256.494 173.107H257.713C258.259 173.107 258.647 173.041 258.878 172.907C259.205 172.689 259.369 172.367 259.369 171.943C259.369 171.506 259.211 171.191 258.896 170.997C258.678 170.851 258.289 170.778 257.731 170.778H256.494V173.107ZM265.843 174.272L267.662 166.139L270.791 172.288L273.848 166.139L275.668 174.272H274.321L273.321 169.596L270.755 174.799L268.153 169.596L267.189 174.272H265.843ZM277.27 174.272V166.721H278.58V169.814H282.146V166.721H283.456V174.272H282.146V171.015H278.58V174.272H277.27ZM291.527 171.743L292.619 172.343C292.364 172.828 292.055 173.235 291.691 173.562C291 174.181 290.163 174.49 289.18 174.49C288.161 174.49 287.282 174.163 286.542 173.508C285.814 172.84 285.45 171.852 285.45 170.542C285.45 169.389 285.778 168.437 286.433 167.685C287.1 166.921 287.992 166.539 289.107 166.539C290.369 166.539 291.321 167 291.964 167.922C292.474 168.65 292.71 169.596 292.674 170.76H286.797C286.809 171.524 287.045 172.143 287.506 172.616C287.967 173.089 288.531 173.326 289.198 173.326C289.793 173.326 290.308 173.144 290.745 172.78C291.085 172.489 291.345 172.143 291.527 171.743ZM286.888 169.668H291.327C291.218 169.074 290.957 168.601 290.545 168.249C290.145 167.885 289.665 167.703 289.107 167.703C288.562 167.703 288.076 167.891 287.652 168.267C287.239 168.631 286.985 169.098 286.888 169.668ZM304.643 166.721V174.272H303.333V167.922H300.64V171.324C300.64 172.307 300.446 173.034 300.058 173.508C299.621 174.041 299.015 174.308 298.238 174.308C298.141 174.308 298.008 174.296 297.838 174.272V173.071C297.959 173.095 298.056 173.107 298.129 173.107C298.554 173.107 298.869 172.944 299.075 172.616C299.245 172.349 299.33 171.919 299.33 171.324V166.721H304.643ZM308.431 169.814H309.796C309.917 168.965 310.257 168.249 310.815 167.667C311.53 166.915 312.482 166.539 313.671 166.539C314.836 166.539 315.794 166.915 316.546 167.667C317.298 168.419 317.674 169.371 317.674 170.524C317.674 171.664 317.292 172.61 316.528 173.362C315.776 174.114 314.823 174.49 313.671 174.49C312.349 174.49 311.312 174.017 310.56 173.071C310.075 172.464 309.796 171.779 309.723 171.015H308.431V174.272H307.121V166.721H308.431V169.814ZM313.671 167.703C312.943 167.703 312.325 167.958 311.815 168.468C311.318 168.965 311.069 169.65 311.069 170.524C311.069 171.409 311.324 172.1 311.833 172.598C312.343 173.083 312.955 173.326 313.671 173.326C314.399 173.326 315.024 173.077 315.545 172.58C316.067 172.082 316.328 171.397 316.328 170.524C316.328 169.65 316.067 168.965 315.545 168.468C315.036 167.958 314.411 167.703 313.671 167.703ZM325.506 161.535H326.961C326.828 161.984 326.597 162.366 326.27 162.682C325.954 162.985 325.663 163.191 325.396 163.3C325.142 163.409 324.838 163.506 324.487 163.591C324.426 163.604 324.28 163.64 324.05 163.701C323.819 163.749 323.644 163.792 323.522 163.828C323.401 163.864 323.243 163.913 323.049 163.973C322.855 164.034 322.679 164.107 322.522 164.192C322.364 164.277 322.218 164.368 322.085 164.465C321.624 164.817 321.248 165.308 320.957 165.939C320.678 166.557 320.526 167.218 320.502 167.922H320.538C321.084 167 322 166.539 323.286 166.539C324.414 166.539 325.348 166.921 326.088 167.685C326.84 168.449 327.216 169.396 327.216 170.524C327.216 171.664 326.834 172.61 326.07 173.362C325.305 174.114 324.311 174.49 323.086 174.49C322.03 174.49 321.163 174.175 320.484 173.544C319.635 172.768 319.21 171.47 319.21 169.65C319.21 166.484 319.926 164.41 321.357 163.428C321.466 163.355 321.582 163.288 321.703 163.228C321.824 163.155 321.951 163.094 322.085 163.046C322.23 162.985 322.352 162.936 322.449 162.9C322.546 162.851 322.679 162.809 322.849 162.773C323.031 162.724 323.152 162.694 323.213 162.682C323.286 162.657 323.419 162.627 323.613 162.591C323.819 162.542 323.947 162.512 323.995 162.5C324.481 162.391 324.832 162.263 325.051 162.118C325.269 161.96 325.421 161.766 325.506 161.535ZM325.087 168.449C324.578 167.952 323.953 167.703 323.213 167.703C322.473 167.703 321.842 167.958 321.321 168.468C320.811 168.965 320.557 169.65 320.557 170.524C320.557 171.397 320.817 172.082 321.339 172.58C321.861 173.077 322.485 173.326 323.213 173.326C323.941 173.326 324.565 173.077 325.087 172.58C325.609 172.082 325.869 171.397 325.869 170.524C325.869 169.638 325.609 168.947 325.087 168.449ZM329.225 174.272V166.721H330.535V169.614H331.881C332.924 169.614 333.689 169.863 334.174 170.36C334.562 170.748 334.756 171.276 334.756 171.943C334.756 172.646 334.532 173.21 334.083 173.635C333.634 174.059 332.894 174.272 331.863 174.272H329.225ZM330.535 173.107H331.754C332.3 173.107 332.688 173.041 332.918 172.907C333.246 172.689 333.41 172.367 333.41 171.943C333.41 171.506 333.252 171.191 332.937 170.997C332.718 170.851 332.33 170.778 331.772 170.778H330.535V173.107ZM335.666 174.272V166.721H336.976V174.272H335.666ZM345.046 171.743L346.137 172.343C345.883 172.828 345.573 173.235 345.209 173.562C344.518 174.181 343.681 174.49 342.698 174.49C341.68 174.49 340.8 174.163 340.06 173.508C339.332 172.84 338.969 171.852 338.969 170.542C338.969 169.389 339.296 168.437 339.951 167.685C340.618 166.921 341.51 166.539 342.626 166.539C343.887 166.539 344.839 167 345.482 167.922C345.992 168.65 346.228 169.596 346.192 170.76H340.315C340.327 171.524 340.564 172.143 341.025 172.616C341.485 173.089 342.049 173.326 342.717 173.326C343.311 173.326 343.827 173.144 344.263 172.78C344.603 172.489 344.864 172.143 345.046 171.743ZM340.406 169.668H344.845C344.736 169.074 344.475 168.601 344.063 168.249C343.663 167.885 343.184 167.703 342.626 167.703C342.08 167.703 341.595 167.891 341.17 168.267C340.758 168.631 340.503 169.098 340.406 169.668ZM150.387 188.721H153.243C153.935 188.721 154.462 188.866 154.826 189.158C155.263 189.509 155.481 189.982 155.481 190.577C155.481 191.232 155.208 191.735 154.662 192.087C155.038 192.184 155.354 192.354 155.609 192.596C156.009 192.985 156.209 193.47 156.209 194.052C156.209 194.78 155.948 195.35 155.427 195.762C154.978 196.102 154.383 196.272 153.644 196.272H150.387V188.721ZM151.697 191.796H153.079C153.431 191.796 153.71 191.723 153.916 191.577C154.159 191.396 154.28 191.135 154.28 190.795C154.28 190.492 154.159 190.249 153.916 190.067C153.734 189.946 153.383 189.885 152.861 189.885H151.697V191.796ZM151.697 195.107H153.316C153.874 195.107 154.268 195.022 154.499 194.853C154.79 194.634 154.935 194.355 154.935 194.016C154.935 193.652 154.808 193.367 154.553 193.16C154.323 192.978 153.929 192.888 153.371 192.888H151.697V195.107ZM164.591 195.362C163.839 196.114 162.887 196.49 161.735 196.49C160.582 196.49 159.624 196.114 158.86 195.362C158.108 194.61 157.732 193.664 157.732 192.524C157.732 191.371 158.108 190.419 158.86 189.667C159.624 188.915 160.582 188.539 161.735 188.539C162.887 188.539 163.839 188.915 164.591 189.667C165.355 190.419 165.737 191.371 165.737 192.524C165.737 193.664 165.355 194.61 164.591 195.362ZM163.609 190.449C163.099 189.952 162.474 189.703 161.735 189.703C160.995 189.703 160.364 189.958 159.842 190.468C159.333 190.965 159.078 191.65 159.078 192.524C159.078 193.397 159.339 194.082 159.86 194.58C160.382 195.077 161.007 195.326 161.735 195.326C162.462 195.326 163.087 195.077 163.609 194.58C164.13 194.082 164.391 193.397 164.391 192.524C164.391 191.638 164.13 190.947 163.609 190.449ZM167.746 188.721H173.823V196.272H172.513V189.922H169.056V196.272H167.746V188.721ZM177.603 195.216V200.457H176.293V188.721H177.603V189.776C178.27 188.951 179.131 188.539 180.187 188.539C181.315 188.539 182.206 188.939 182.861 189.74C183.528 190.528 183.862 191.462 183.862 192.542C183.862 193.633 183.534 194.567 182.879 195.344C182.224 196.108 181.345 196.49 180.241 196.49C179.137 196.49 178.258 196.066 177.603 195.216ZM180.059 195.326C180.799 195.326 181.393 195.059 181.842 194.525C182.291 193.979 182.515 193.318 182.515 192.542C182.515 191.668 182.267 190.977 181.769 190.468C181.272 189.958 180.696 189.703 180.041 189.703C179.386 189.703 178.804 189.958 178.294 190.468C177.785 190.977 177.53 191.662 177.53 192.524C177.53 193.312 177.761 193.979 178.222 194.525C178.695 195.059 179.307 195.326 180.059 195.326ZM192.256 195.362C191.504 196.114 190.552 196.49 189.4 196.49C188.247 196.49 187.289 196.114 186.525 195.362C185.773 194.61 185.397 193.664 185.397 192.524C185.397 191.371 185.773 190.419 186.525 189.667C187.289 188.915 188.247 188.539 189.4 188.539C190.552 188.539 191.504 188.915 192.256 189.667C193.021 190.419 193.403 191.371 193.403 192.524C193.403 193.664 193.021 194.61 192.256 195.362ZM191.274 190.449C190.764 189.952 190.14 189.703 189.4 189.703C188.66 189.703 188.029 189.958 187.508 190.468C186.998 190.965 186.743 191.65 186.743 192.524C186.743 193.397 187.004 194.082 187.526 194.58C188.047 195.077 188.672 195.326 189.4 195.326C190.128 195.326 190.752 195.077 191.274 194.58C191.795 194.082 192.056 193.397 192.056 192.524C192.056 191.638 191.795 190.947 191.274 190.449ZM201.325 189.267V190.831C200.731 190.079 199.942 189.703 198.96 189.703C198.22 189.703 197.589 189.958 197.067 190.468C196.546 190.965 196.285 191.65 196.285 192.524C196.285 193.397 196.546 194.082 197.067 194.58C197.589 195.077 198.214 195.326 198.941 195.326C199.912 195.326 200.724 194.931 201.379 194.143V195.708C200.664 196.229 199.863 196.49 198.978 196.49C197.801 196.49 196.831 196.12 196.067 195.38C195.315 194.628 194.939 193.682 194.939 192.542C194.939 191.389 195.321 190.437 196.085 189.685C196.849 188.921 197.813 188.539 198.978 188.539C199.851 188.539 200.633 188.782 201.325 189.267ZM203.39 196.272V188.721H204.7V191.614H206.046C207.089 191.614 207.853 191.863 208.339 192.36C208.727 192.748 208.921 193.276 208.921 193.943C208.921 194.646 208.696 195.21 208.248 195.635C207.799 196.059 207.059 196.272 206.028 196.272H203.39ZM204.7 195.107H205.919C206.464 195.107 206.853 195.041 207.083 194.907C207.411 194.689 207.574 194.367 207.574 193.943C207.574 193.506 207.417 193.191 207.101 192.997C206.883 192.851 206.495 192.778 205.937 192.778H204.7V195.107ZM209.831 196.272V188.721H211.141V196.272H209.831ZM217.853 188.721H219.163V193.706L224.33 188.139V196.272H223.02V191.232L217.853 196.799V188.721ZM230.181 196.272L232.529 193.16C232.456 193.16 232.353 193.148 232.219 193.124C232.098 193.1 231.916 193.039 231.673 192.942C231.431 192.845 231.231 192.718 231.073 192.56C230.673 192.184 230.473 191.681 230.473 191.05C230.473 190.334 230.697 189.77 231.146 189.358C231.595 188.933 232.335 188.721 233.366 188.721H236.004V196.272H234.694V193.233H233.893L231.746 196.272H230.181ZM234.694 192.142V189.885H233.475C232.905 189.885 232.51 189.952 232.292 190.086C231.977 190.292 231.819 190.601 231.819 191.013C231.819 191.426 231.977 191.729 232.292 191.923C232.523 192.069 232.911 192.142 233.457 192.142H234.694ZM248.642 189.267V190.831C248.048 190.079 247.259 189.703 246.277 189.703C245.537 189.703 244.906 189.958 244.384 190.468C243.863 190.965 243.602 191.65 243.602 192.524C243.602 193.397 243.863 194.082 244.384 194.58C244.906 195.077 245.531 195.326 246.258 195.326C247.229 195.326 248.041 194.931 248.696 194.143V195.708C247.981 196.229 247.18 196.49 246.295 196.49C245.118 196.49 244.148 196.12 243.384 195.38C242.632 194.628 242.256 193.682 242.256 192.542C242.256 191.389 242.638 190.437 243.402 189.685C244.166 188.921 245.13 188.539 246.295 188.539C247.168 188.539 247.951 188.782 248.642 189.267ZM256.263 195.216V200.457H254.953V188.721H256.263V189.776C256.93 188.951 257.792 188.539 258.847 188.539C259.975 188.539 260.867 188.939 261.522 189.74C262.189 190.528 262.522 191.462 262.522 192.542C262.522 193.633 262.195 194.567 261.54 195.344C260.885 196.108 260.005 196.49 258.901 196.49C257.798 196.49 256.918 196.066 256.263 195.216ZM258.72 195.326C259.459 195.326 260.054 195.059 260.503 194.525C260.951 193.979 261.176 193.318 261.176 192.542C261.176 191.668 260.927 190.977 260.43 190.468C259.933 189.958 259.356 189.703 258.701 189.703C258.046 189.703 257.464 189.958 256.955 190.468C256.445 190.977 256.19 191.662 256.19 192.524C256.19 193.312 256.421 193.979 256.882 194.525C257.355 195.059 257.967 195.326 258.72 195.326ZM270.316 189.794V188.721H271.626V196.272H270.316V195.216C269.661 196.066 268.8 196.49 267.733 196.49C266.714 196.49 265.846 196.138 265.131 195.435C264.415 194.731 264.057 193.749 264.057 192.487C264.057 191.25 264.409 190.286 265.113 189.594C265.828 188.891 266.702 188.539 267.733 188.539C268.824 188.539 269.686 188.957 270.316 189.794ZM267.878 189.703C267.187 189.703 266.598 189.952 266.113 190.449C265.64 190.935 265.404 191.614 265.404 192.487C265.404 193.324 265.622 194.01 266.059 194.543C266.508 195.065 267.114 195.326 267.878 195.326C268.642 195.326 269.249 195.053 269.698 194.507C270.159 193.961 270.389 193.294 270.389 192.505C270.389 191.608 270.134 190.916 269.625 190.431C269.115 189.946 268.533 189.703 267.878 189.703ZM274.653 188.721H279.966V195.071H281.094V198.273H279.893V196.272H274.144V198.273H272.943V195.071C273.574 195.059 274.041 194.731 274.344 194.088C274.55 193.664 274.653 192.997 274.653 192.087V188.721ZM278.656 195.071V189.922H275.963V192.76C275.963 193.767 275.66 194.537 275.054 195.071H278.656ZM288.863 195.362C288.111 196.114 287.158 196.49 286.006 196.49C284.854 196.49 283.896 196.114 283.131 195.362C282.379 194.61 282.003 193.664 282.003 192.524C282.003 191.371 282.379 190.419 283.131 189.667C283.896 188.915 284.854 188.539 286.006 188.539C287.158 188.539 288.111 188.915 288.863 189.667C289.627 190.419 290.009 191.371 290.009 192.524C290.009 193.664 289.627 194.61 288.863 195.362ZM287.88 190.449C287.371 189.952 286.746 189.703 286.006 189.703C285.266 189.703 284.635 189.958 284.114 190.468C283.604 190.965 283.35 191.65 283.35 192.524C283.35 193.397 283.61 194.082 284.132 194.58C284.654 195.077 285.278 195.326 286.006 195.326C286.734 195.326 287.359 195.077 287.88 194.58C288.402 194.082 288.663 193.397 288.663 192.524C288.663 191.638 288.402 190.947 287.88 190.449ZM297.931 189.267V190.831C297.337 190.079 296.548 189.703 295.566 189.703C294.826 189.703 294.195 189.958 293.674 190.468C293.152 190.965 292.891 191.65 292.891 192.524C292.891 193.397 293.152 194.082 293.674 194.58C294.195 195.077 294.82 195.326 295.548 195.326C296.518 195.326 297.331 194.931 297.986 194.143V195.708C297.27 196.229 296.47 196.49 295.584 196.49C294.408 196.49 293.437 196.12 292.673 195.38C291.921 194.628 291.545 193.682 291.545 192.542C291.545 191.389 291.927 190.437 292.691 189.685C293.455 188.921 294.42 188.539 295.584 188.539C296.457 188.539 297.24 188.782 297.931 189.267ZM304.945 189.922H302.58V196.272H301.27V189.922H298.904V188.721H304.945V189.922ZM306.321 196.272V188.721H307.631V191.614H308.978C310.021 191.614 310.785 191.863 311.27 192.36C311.659 192.748 311.853 193.276 311.853 193.943C311.853 194.646 311.628 195.21 311.179 195.635C310.731 196.059 309.991 196.272 308.96 196.272H306.321ZM307.631 195.107H308.85C309.396 195.107 309.784 195.041 310.015 194.907C310.342 194.689 310.506 194.367 310.506 193.943C310.506 193.506 310.349 193.191 310.033 192.997C309.815 192.851 309.427 192.778 308.869 192.778H307.631V195.107ZM314.916 191.814H316.281C316.402 190.965 316.742 190.249 317.3 189.667C318.016 188.915 318.968 188.539 320.157 188.539C321.321 188.539 322.279 188.915 323.031 189.667C323.783 190.419 324.159 191.371 324.159 192.524C324.159 193.664 323.777 194.61 323.013 195.362C322.261 196.114 321.309 196.49 320.157 196.49C318.834 196.49 317.797 196.017 317.045 195.071C316.56 194.464 316.281 193.779 316.208 193.015H314.916V196.272H313.606V188.721H314.916V191.814ZM320.157 189.703C319.429 189.703 318.81 189.958 318.301 190.468C317.803 190.965 317.555 191.65 317.555 192.524C317.555 193.409 317.809 194.1 318.319 194.598C318.828 195.083 319.441 195.326 320.157 195.326C320.884 195.326 321.509 195.077 322.031 194.58C322.552 194.082 322.813 193.397 322.813 192.524C322.813 191.65 322.552 190.965 322.031 190.468C321.521 189.958 320.896 189.703 320.157 189.703ZM330.415 188.721H336.492V196.272H335.182V189.922H331.725V196.272H330.415V188.721ZM345.348 195.362C344.596 196.114 343.644 196.49 342.492 196.49C341.339 196.49 340.381 196.114 339.617 195.362C338.865 194.61 338.489 193.664 338.489 192.524C338.489 191.371 338.865 190.419 339.617 189.667C340.381 188.915 341.339 188.539 342.492 188.539C343.644 188.539 344.596 188.915 345.348 189.667C346.112 190.419 346.494 191.371 346.494 192.524C346.494 193.664 346.112 194.61 345.348 195.362ZM344.366 190.449C343.856 189.952 343.232 189.703 342.492 189.703C341.752 189.703 341.121 189.958 340.599 190.468C340.09 190.965 339.835 191.65 339.835 192.524C339.835 193.397 340.096 194.082 340.618 194.58C341.139 195.077 341.764 195.326 342.492 195.326C343.219 195.326 343.844 195.077 344.366 194.58C344.887 194.082 345.148 193.397 345.148 192.524C345.148 191.638 344.887 190.947 344.366 190.449ZM347.63 196.272L349.45 188.139L352.579 194.288L355.636 188.139L357.455 196.272H356.109L355.108 191.596L352.543 196.799L349.941 191.596L348.976 196.272H347.63ZM365.444 195.362C364.692 196.114 363.74 196.49 362.588 196.49C361.435 196.49 360.477 196.114 359.713 195.362C358.961 194.61 358.585 193.664 358.585 192.524C358.585 191.371 358.961 190.419 359.713 189.667C360.477 188.915 361.435 188.539 362.588 188.539C363.74 188.539 364.692 188.915 365.444 189.667C366.208 190.419 366.59 191.371 366.59 192.524C366.59 193.664 366.208 194.61 365.444 195.362ZM364.462 190.449C363.952 189.952 363.328 189.703 362.588 189.703C361.848 189.703 361.217 189.958 360.695 190.468C360.186 190.965 359.931 191.65 359.931 192.524C359.931 193.397 360.192 194.082 360.714 194.58C361.235 195.077 361.86 195.326 362.588 195.326C363.315 195.326 363.94 195.077 364.462 194.58C364.983 194.082 365.244 193.397 365.244 192.524C365.244 191.638 364.983 190.947 364.462 190.449ZM368.599 196.272V188.721H373.075V189.922H369.909V196.272H368.599ZM374.765 200.457L377.166 195.562L373.691 188.721H375.183L377.858 194.125L380.314 188.721H381.77L376.22 200.457H374.765ZM155.336 212.922H152.97V219.272H151.66V212.922H149.295V211.721H155.336V212.922ZM162.138 216.743L163.23 217.343C162.975 217.828 162.666 218.235 162.302 218.562C161.611 219.181 160.774 219.49 159.791 219.49C158.772 219.49 157.893 219.163 157.153 218.508C156.425 217.84 156.061 216.852 156.061 215.542C156.061 214.389 156.389 213.437 157.044 212.685C157.711 211.921 158.603 211.539 159.719 211.539C160.98 211.539 161.932 212 162.575 212.922C163.085 213.65 163.321 214.596 163.285 215.76H157.408C157.42 216.524 157.657 217.143 158.117 217.616C158.578 218.089 159.142 218.326 159.81 218.326C160.404 218.326 160.919 218.144 161.356 217.78C161.696 217.489 161.957 217.143 162.138 216.743ZM157.499 214.668H161.938C161.829 214.074 161.568 213.601 161.156 213.249C160.756 212.885 160.277 212.703 159.719 212.703C159.173 212.703 158.688 212.891 158.263 213.267C157.851 213.631 157.596 214.098 157.499 214.668ZM171.117 206.535H172.572C172.439 206.984 172.208 207.366 171.881 207.682C171.565 207.985 171.274 208.191 171.007 208.3C170.753 208.409 170.449 208.506 170.098 208.591C170.037 208.604 169.891 208.64 169.661 208.701C169.431 208.749 169.255 208.792 169.133 208.828C169.012 208.864 168.854 208.913 168.66 208.973C168.466 209.034 168.29 209.107 168.133 209.192C167.975 209.277 167.829 209.368 167.696 209.465C167.235 209.817 166.859 210.308 166.568 210.939C166.289 211.557 166.137 212.218 166.113 212.922H166.149C166.695 212 167.611 211.539 168.897 211.539C170.025 211.539 170.959 211.921 171.699 212.685C172.451 213.449 172.827 214.396 172.827 215.524C172.827 216.664 172.445 217.61 171.681 218.362C170.916 219.114 169.922 219.49 168.697 219.49C167.641 219.49 166.774 219.175 166.095 218.544C165.246 217.768 164.821 216.47 164.821 214.65C164.821 211.484 165.537 209.41 166.968 208.428C167.077 208.355 167.193 208.288 167.314 208.228C167.435 208.155 167.563 208.094 167.696 208.046C167.842 207.985 167.963 207.936 168.06 207.9C168.157 207.851 168.29 207.809 168.46 207.773C168.642 207.724 168.763 207.694 168.824 207.682C168.897 207.657 169.03 207.627 169.224 207.591C169.431 207.542 169.558 207.512 169.606 207.5C170.092 207.391 170.443 207.263 170.662 207.118C170.88 206.96 171.032 206.766 171.117 206.535ZM170.698 213.449C170.189 212.952 169.564 212.703 168.824 212.703C168.084 212.703 167.453 212.958 166.932 213.468C166.422 213.965 166.168 214.65 166.168 215.524C166.168 216.397 166.428 217.082 166.95 217.58C167.472 218.077 168.096 218.326 168.824 218.326C169.552 218.326 170.177 218.077 170.698 217.58C171.22 217.082 171.48 216.397 171.48 215.524C171.48 214.638 171.22 213.947 170.698 213.449ZM180.44 216.743L181.532 217.343C181.277 217.828 180.967 218.235 180.604 218.562C179.912 219.181 179.075 219.49 178.093 219.49C177.074 219.49 176.194 219.163 175.454 218.508C174.727 217.84 174.363 216.852 174.363 215.542C174.363 214.389 174.69 213.437 175.345 212.685C176.012 211.921 176.904 211.539 178.02 211.539C179.281 211.539 180.234 212 180.877 212.922C181.386 213.65 181.623 214.596 181.586 215.76H175.709C175.721 216.524 175.958 217.143 176.419 217.616C176.88 218.089 177.444 218.326 178.111 218.326C178.705 218.326 179.221 218.144 179.657 217.78C179.997 217.489 180.258 217.143 180.44 216.743ZM175.8 214.668H180.24C180.131 214.074 179.87 213.601 179.457 213.249C179.057 212.885 178.578 212.703 178.02 212.703C177.474 212.703 176.989 212.891 176.564 213.267C176.152 213.631 175.897 214.098 175.8 214.668ZM187.842 219.272V211.721H189.152V214.814H192.718V211.721H194.028V219.272H192.718V216.015H189.152V219.272H187.842ZM202.281 212.794V211.721H203.591V219.272H202.281V218.216C201.626 219.066 200.765 219.49 199.698 219.49C198.679 219.49 197.812 219.138 197.096 218.435C196.38 217.731 196.022 216.749 196.022 215.487C196.022 214.25 196.374 213.286 197.078 212.594C197.793 211.891 198.667 211.539 199.698 211.539C200.789 211.539 201.651 211.957 202.281 212.794ZM199.843 212.703C199.152 212.703 198.564 212.952 198.078 213.449C197.605 213.935 197.369 214.614 197.369 215.487C197.369 216.324 197.587 217.01 198.024 217.543C198.473 218.065 199.079 218.326 199.843 218.326C200.607 218.326 201.214 218.053 201.663 217.507C202.124 216.961 202.354 216.294 202.354 215.505C202.354 214.608 202.099 213.916 201.59 213.431C201.081 212.946 200.498 212.703 199.843 212.703ZM210.319 219.272V211.721H211.629V214.814H215.195V211.721H216.505V219.272H215.195V216.015H211.629V219.272H210.319ZM218.972 211.721H220.282V216.706L225.45 211.139V219.272H224.14V214.232L218.972 219.799V211.721ZM226.836 219.272L230.056 215.232L227.309 211.721H228.91L230.857 214.286L232.84 211.721H234.441L231.676 215.251L234.805 219.272H233.204L230.821 216.197L228.437 219.272H226.836ZM246.823 218.362C246.071 219.114 245.119 219.49 243.966 219.49C242.814 219.49 241.856 219.114 241.092 218.362C240.339 217.61 239.963 216.664 239.963 215.524C239.963 214.371 240.339 213.419 241.092 212.667C241.856 211.915 242.814 211.539 243.966 211.539C245.119 211.539 246.071 211.915 246.823 212.667C247.587 213.419 247.969 214.371 247.969 215.524C247.969 216.664 247.587 217.61 246.823 218.362ZM245.84 213.449C245.331 212.952 244.706 212.703 243.966 212.703C243.226 212.703 242.596 212.958 242.074 213.468C241.565 213.965 241.31 214.65 241.31 215.524C241.31 216.397 241.571 217.082 242.092 217.58C242.614 218.077 243.238 218.326 243.966 218.326C244.694 218.326 245.319 218.077 245.84 217.58C246.362 217.082 246.623 216.397 246.623 215.524C246.623 214.638 246.362 213.947 245.84 213.449ZM254.749 212.922H252.384V219.272H251.074V212.922H248.709V211.721H254.749V212.922ZM256.126 211.721H258.983C259.674 211.721 260.202 211.866 260.565 212.158C261.002 212.509 261.22 212.982 261.22 213.577C261.22 214.232 260.948 214.735 260.402 215.087C260.778 215.184 261.093 215.354 261.348 215.596C261.748 215.985 261.948 216.47 261.948 217.052C261.948 217.78 261.687 218.35 261.166 218.762C260.717 219.102 260.123 219.272 259.383 219.272H256.126V211.721ZM257.436 214.796H258.819C259.171 214.796 259.45 214.723 259.656 214.577C259.898 214.396 260.02 214.135 260.02 213.795C260.02 213.492 259.898 213.249 259.656 213.067C259.474 212.946 259.122 212.885 258.6 212.885H257.436V214.796ZM257.436 218.107H259.055C259.613 218.107 260.007 218.022 260.238 217.853C260.529 217.634 260.675 217.355 260.675 217.016C260.675 216.652 260.547 216.367 260.293 216.16C260.062 215.978 259.668 215.888 259.11 215.888H257.436V218.107ZM269.548 216.743L270.64 217.343C270.385 217.828 270.076 218.235 269.712 218.562C269.02 219.181 268.183 219.49 267.201 219.49C266.182 219.49 265.303 219.163 264.563 218.508C263.835 217.84 263.471 216.852 263.471 215.542C263.471 214.389 263.798 213.437 264.453 212.685C265.121 211.921 266.012 211.539 267.128 211.539C268.39 211.539 269.342 212 269.985 212.922C270.494 213.65 270.731 214.596 270.694 215.76H264.817C264.829 216.524 265.066 217.143 265.527 217.616C265.988 218.089 266.552 218.326 267.219 218.326C267.813 218.326 268.329 218.144 268.766 217.78C269.105 217.489 269.366 217.143 269.548 216.743ZM264.908 214.668H269.348C269.239 214.074 268.978 213.601 268.565 213.249C268.165 212.885 267.686 212.703 267.128 212.703C266.582 212.703 266.097 212.891 265.672 213.267C265.26 213.631 265.005 214.098 264.908 214.668ZM277.653 212.922H275.287V219.272H273.977V212.922H271.612V211.721H277.653V212.922ZM279.029 211.721H280.339V216.706L285.507 211.139V219.272H284.197V214.232L279.029 219.799V211.721ZM292.934 212.922H290.568V219.272H289.258V212.922H286.893V211.721H292.934V212.922ZM294.31 219.272V211.721H295.62V214.614H296.966C298.01 214.614 298.774 214.863 299.259 215.36C299.647 215.748 299.841 216.276 299.841 216.943C299.841 217.646 299.617 218.21 299.168 218.635C298.719 219.059 297.979 219.272 296.948 219.272H294.31ZM295.62 218.107H296.839C297.385 218.107 297.773 218.041 298.004 217.907C298.331 217.689 298.495 217.367 298.495 216.943C298.495 216.506 298.337 216.191 298.022 215.997C297.803 215.851 297.415 215.778 296.857 215.778H295.62V218.107ZM301.795 219.181C301.613 218.999 301.522 218.787 301.522 218.544C301.522 218.301 301.613 218.089 301.795 217.907C301.977 217.725 302.189 217.634 302.432 217.634C302.675 217.634 302.887 217.725 303.069 217.907C303.251 218.089 303.342 218.301 303.342 218.544C303.342 218.787 303.251 218.999 303.069 219.181C302.887 219.363 302.675 219.454 302.432 219.454C302.189 219.454 301.977 219.363 301.795 219.181ZM305.935 219.181C305.753 218.999 305.662 218.787 305.662 218.544C305.662 218.301 305.753 218.089 305.935 217.907C306.117 217.725 306.329 217.634 306.572 217.634C306.815 217.634 307.027 217.725 307.209 217.907C307.391 218.089 307.482 218.301 307.482 218.544C307.482 218.787 307.391 218.999 307.209 219.181C307.027 219.363 306.815 219.454 306.572 219.454C306.329 219.454 306.117 219.363 305.935 219.181ZM310.075 219.181C309.893 218.999 309.802 218.787 309.802 218.544C309.802 218.301 309.893 218.089 310.075 217.907C310.257 217.725 310.469 217.634 310.712 217.634C310.955 217.634 311.167 217.725 311.349 217.907C311.531 218.089 311.622 218.301 311.622 218.544C311.622 218.787 311.531 218.999 311.349 219.181C311.167 219.363 310.955 219.454 310.712 219.454C310.469 219.454 310.257 219.363 310.075 219.181Z" fill="#0C051E"/>
</g>
<defs>
<filter id="filter0_d_172_357" x="0.998047" y="0.0769043" width="493.032" height="317.61" filterUnits="userSpaceOnUse" color-interpolation-filters="sRGB">
<feFlood flood-opacity="0" result="BackgroundImageFix"/>
<feColorMatrix in="SourceAlpha" type="matrix" values="0 0 0 0 0 0 0 0 0 0 0 0 0 0 0 0 0 0 127 0" result="hardAlpha"/>
<feOffset dy="17"/>
<feGaussianBlur stdDeviation="32"/>
<feComposite in2="hardAlpha" operator="out"/>
<feColorMatrix type="matrix" values="0 0 0 0 0.501961 0 0 0 0 0.435294 0 0 0 0 0.960784 0 0 0 0.16 0"/>
<feBlend mode="normal" in2="BackgroundImageFix" result="effect1_dropShadow_172_357"/>
<feBlend mode="normal" in="SourceGraphic" in2="effect1_dropShadow_172_357" result="shape"/>
</filter>
<linearGradient id="paint0_linear_172_357" x1="85.5901" y1="83.1959" x2="96.9889" y2="102.766" gradientUnits="userSpaceOnUse">
<stop stop-color="#EE9AE5"/>
<stop offset="1" stop-color="#736EFE"/>
</linearGradient>
<linearGradient id="paint1_linear_172_357" x1="131.789" y1="97.0752" x2="119.79" y2="76.6995" gradientUnits="userSpaceOnUse">
<stop stop-color="#5EFCE8"/>
<stop offset="1" stop-color="#736EFE"/>
</linearGradient>
<linearGradient id="paint2_linear_172_357" x1="280.493" y1="65.2717" x2="280.493" y2="218.79" gradientUnits="userSpaceOnUse">
<stop stop-color="#D9D9D9"/>
<stop offset="1" stop-color="#D9D9D9" stop-opacity="0"/>
</linearGradient>
</defs>
</svg>
