<svg width="366" height="193" viewBox="0 0 366 193" fill="none" xmlns="http://www.w3.org/2000/svg"><path opacity=".9" d="M365.032 22.744V160.33c0 12.561-10.182 22.743-22.743 22.743H25.908c-1.39 0-2.767.255-4.064.751L7.718 189.23C3.995 190.654 0 187.905 0 183.919V22.744C0 10.183 10.183 0 22.743 0H342.29c12.561 0 22.743 10.183 22.743 22.744Z" fill="#fff"/><rect x="18.195" y="18.195" width="50.036" height="50.036" rx="25.018" fill="#F5F4FF"/><path fill-rule="evenodd" clip-rule="evenodd" d="M31.841 35.342c0-3.19 2.608-5.775 5.825-5.775h11.65c3.217 0 5.825 2.585 5.825 5.775l-.001.13.001-.002v5.995c0 1.62-1.557 2.207-2.766 1.118-.96-.865-2.308-1.466-5.389-1.466h-9.32c-3.217 0-5.825-2.585-5.825-5.775Zm6.731-1.027a1.16 1.16 0 0 0-1.165 1.155 1.16 1.16 0 0 0 1.166 1.155 1.16 1.16 0 0 0 1.164-1.155 1.16 1.16 0 0 0-1.165-1.155Zm3.754 1.155a1.16 1.16 0 0 1 1.165-1.155 1.16 1.16 0 0 1 1.165 1.155 1.16 1.16 0 0 1-1.165 1.155 1.16 1.16 0 0 1-1.165-1.155Zm6.084-1.155a1.16 1.16 0 0 0-1.165 1.155 1.16 1.16 0 0 0 1.165 1.155 1.16 1.16 0 0 0 1.165-1.155 1.16 1.16 0 0 0-1.165-1.155Z" fill="url(#a)"/><path fill-rule="evenodd" clip-rule="evenodd" d="M55.141 51.083c0 3.19-2.608 5.776-5.825 5.776h-11.65c-3.217 0-5.825-2.586-5.825-5.776 0-.043 0-.086.002-.13l-.002.002v-6.187c0-1.584 1.461-2.132 2.684-1.113 1.092.91 2.647 1.653 5.471 1.653h9.32c3.217 0 5.825 2.586 5.825 5.775Zm-16.569-1.347a1.16 1.16 0 0 0-1.165 1.155 1.16 1.16 0 0 0 1.166 1.155 1.16 1.16 0 0 0 1.164-1.155 1.16 1.16 0 0 0-1.165-1.155Zm3.754 1.155a1.16 1.16 0 0 1 1.165-1.155 1.16 1.16 0 0 1 1.165 1.155 1.16 1.16 0 0 1-1.165 1.155 1.16 1.16 0 0 1-1.165-1.155Zm6.084-1.155a1.16 1.16 0 0 0-1.165 1.155 1.16 1.16 0 0 0 1.165 1.155 1.16 1.16 0 0 0 1.165-1.155 1.16 1.16 0 0 0-1.165-1.155Z" fill="url(#b)"/><mask id="d" style="mask-type:alpha" maskUnits="userSpaceOnUse" x="84" y="18" width="263" height="154"><path fill="url(#c)" d="M84.151 18.195h262.687v153.518H84.151z"/></mask><g mask="url(#d)"><path d="M85.716 24.059h8.916v12.136h-1.347V25.333h-6.222v10.862h-1.347V24.059Zm13.03 11.08v5.24h-1.31V28.645h1.31v1.055c.667-.825 1.528-1.237 2.583-1.237 1.128 0 2.02.4 2.675 1.2.667.79 1.001 1.723 1.001 2.803 0 1.092-.328 2.026-.983 2.802-.655.764-1.534 1.146-2.638 1.146-1.104 0-1.983-.424-2.638-1.273Zm2.456.11c.74 0 1.334-.267 1.783-.8.449-.547.673-1.208.673-1.984 0-.874-.249-1.565-.746-2.074-.497-.51-1.073-.764-1.728-.764s-1.238.254-1.747.764c-.51.51-.764 1.195-.764 2.056 0 .788.23 1.455.691 2.001.473.534 1.086.8 1.838.8Zm5.811-6.605h1.31v4.985l5.167-5.567v8.133h-1.31v-5.04l-5.167 5.567v-8.078Zm8.955 0h2.856c.692 0 1.22.146 1.583.437.437.351.655.825.655 1.419 0 .655-.272 1.158-.818 1.51.376.097.691.267.946.51.4.388.6.873.6 1.455 0 .728-.261 1.298-.782 1.71-.449.34-1.043.51-1.783.51h-3.257v-7.551Zm1.31 3.075h1.383c.351 0 .63-.073.837-.218.242-.182.364-.443.364-.783a.866.866 0 0 0-.364-.728c-.182-.12-.534-.181-1.056-.181h-1.164v1.91Zm0 3.311h1.619c.558 0 .952-.084 1.183-.254.291-.219.437-.498.437-.837 0-.364-.128-.65-.383-.855-.23-.182-.624-.273-1.182-.273h-1.674v2.22Zm12.112-1.364 1.092.6a4.323 4.323 0 0 1-.928 1.22c-.692.618-1.529.927-2.511.927-1.019 0-1.899-.327-2.638-.982-.728-.667-1.092-1.656-1.092-2.966 0-1.152.327-2.105.982-2.857.668-.764 1.559-1.146 2.675-1.146 1.262 0 2.214.461 2.857 1.383.509.728.746 1.674.709 2.838h-5.877c.012.764.249 1.383.71 1.856.461.473 1.025.71 1.692.71.594 0 1.11-.182 1.547-.546.339-.291.6-.637.782-1.037Zm-4.64-2.074h4.44c-.109-.595-.37-1.068-.783-1.42a2.062 2.062 0 0 0-1.437-.546c-.546 0-1.031.188-1.456.565-.412.363-.667.83-.764 1.4Zm12.745-1.747h-2.366v6.35h-1.31v-6.35h-2.365v-1.201h6.041v1.2Zm.753 8.77 1.492-4.203 1.201.436-1.837 4.112-.856-.345Zm10.04-2.42v-7.551h1.31v3.093h3.567v-3.093h1.31v7.55h-1.31v-3.256h-3.567v3.257h-1.31Zm14.44-6.477v-1.074h1.31v7.55h-1.31V35.14c-.655.85-1.517 1.274-2.584 1.274-1.019 0-1.886-.352-2.602-1.055-.716-.704-1.073-1.686-1.073-2.948 0-1.237.351-2.201 1.055-2.893.716-.703 1.589-1.055 2.62-1.055 1.092 0 1.953.419 2.584 1.256Zm-2.439-.091c-.691 0-1.279.248-1.764.745-.473.486-.71 1.165-.71 2.038 0 .837.218 1.523.655 2.056.449.522 1.055.783 1.819.783.765 0 1.371-.273 1.82-.82.461-.545.691-1.212.691-2 0-.898-.254-1.59-.764-2.075-.509-.485-1.092-.727-1.747-.727Zm6.23 6.568v-7.551h1.31v6.35h2.911v-6.35h1.31v6.35h2.911v-6.35h1.31v7.55h-9.752Zm16.471 0v-7.551h1.31v3.093h3.566v-3.093h1.31v7.55h-1.31v-3.256H184.3v3.257h-1.31Zm15.04-.91c-.753.752-1.705 1.128-2.857 1.128-1.152 0-2.111-.376-2.875-1.128-.752-.752-1.128-1.698-1.128-2.838 0-1.153.376-2.105 1.128-2.857.764-.752 1.723-1.128 2.875-1.128s2.104.376 2.857 1.128c.764.752 1.146 1.704 1.146 2.857 0 1.14-.382 2.086-1.146 2.838Zm-.983-4.912c-.509-.498-1.134-.747-1.874-.747-.74 0-1.371.255-1.892.765-.51.497-.764 1.182-.764 2.056 0 .873.26 1.558.782 2.056a2.619 2.619 0 0 0 1.874.746 2.62 2.62 0 0 0 1.874-.746c.522-.498.782-1.183.782-2.056 0-.886-.26-1.577-.782-2.075Zm4.138-1.729h2.856c.692 0 1.219.146 1.583.437.437.351.655.825.655 1.419 0 .655-.273 1.158-.818 1.51.376.097.691.267.946.51.4.388.6.873.6 1.455 0 .728-.261 1.298-.782 1.71-.449.34-1.043.51-1.783.51h-3.257v-7.551Zm1.31 3.075h1.383c.351 0 .63-.073.837-.218.242-.182.363-.443.363-.783a.865.865 0 0 0-.363-.728c-.182-.12-.534-.181-1.056-.181h-1.164v1.91Zm0 3.311h1.619c.558 0 .952-.084 1.183-.254.291-.219.436-.498.436-.837 0-.364-.127-.65-.382-.855-.23-.182-.624-.273-1.182-.273h-1.674v2.22Zm6.508 1.165v-7.551h1.31v2.893h1.346c1.043 0 1.808.249 2.293.746.388.388.582.916.582 1.583 0 .703-.224 1.267-.673 1.692-.449.425-1.189.637-2.22.637h-2.638Zm1.31-1.165h1.219c.546 0 .934-.066 1.164-.2.328-.218.492-.54.492-.964 0-.437-.158-.752-.473-.946-.219-.146-.607-.219-1.165-.219h-1.237v2.33Zm5.131 1.165v-7.551h1.31v7.55h-1.31Zm3.776-7.551h1.31v4.985l5.167-5.567v8.133h-1.31v-5.04l-5.167 5.567v-8.078Zm.655-3.257 1.091-.418c.219.727.734 1.091 1.547 1.091s1.328-.364 1.546-1.091l1.092.418a2.53 2.53 0 0 1-1.001 1.292c-.461.315-1.006.473-1.637.473s-1.183-.158-1.656-.473a2.56 2.56 0 0 1-.982-1.292Zm18.46 3.803v1.565c-.595-.752-1.383-1.128-2.366-1.128a2.61 2.61 0 0 0-1.892.764c-.521.497-.782 1.182-.782 2.056 0 .873.261 1.558.782 2.056a2.62 2.62 0 0 0 1.874.746c.971 0 1.783-.395 2.438-1.183v1.565a3.978 3.978 0 0 1-2.401.782c-1.177 0-2.147-.37-2.912-1.11-.752-.752-1.128-1.698-1.128-2.838 0-1.152.382-2.105 1.147-2.857.764-.764 1.728-1.146 2.893-1.146a3.99 3.99 0 0 1 2.347.728Zm8.255 6.095c-.752.752-1.704 1.128-2.856 1.128-1.153 0-2.111-.376-2.875-1.128-.752-.752-1.128-1.698-1.128-2.838 0-1.153.376-2.105 1.128-2.857.764-.752 1.722-1.128 2.875-1.128 1.152 0 2.104.376 2.856 1.128.765.752 1.147 1.704 1.147 2.857 0 1.14-.382 2.086-1.147 2.838Zm-.982-4.912c-.51-.498-1.134-.747-1.874-.747-.74 0-1.371.255-1.892.765-.51.497-.765 1.182-.765 2.056 0 .873.261 1.558.783 2.056a2.619 2.619 0 0 0 1.874.746 2.62 2.62 0 0 0 1.874-.746c.521-.498.782-1.183.782-2.056 0-.886-.261-1.577-.782-2.075Zm8.909-.528h-2.365v6.35h-1.31v-6.35h-2.366v-1.201h6.041v1.2Zm2.686 5.294v5.24h-1.31V28.645h1.31v1.055c.668-.825 1.529-1.237 2.584-1.237 1.128 0 2.02.4 2.675 1.2.667.79 1 1.723 1 2.803 0 1.092-.327 2.026-.982 2.802-.655.764-1.535 1.146-2.638 1.146-1.104 0-1.984-.424-2.639-1.273Zm2.457.11c.74 0 1.334-.267 1.783-.8.449-.547.673-1.208.673-1.984 0-.874-.249-1.565-.746-2.074-.497-.51-1.073-.764-1.728-.764s-1.238.254-1.747.764c-.51.51-.764 1.195-.764 2.056 0 .788.23 1.455.691 2.001.473.534 1.086.8 1.838.8Zm5.792 5.13 2.402-4.894-3.475-6.841h1.492l2.674 5.404 2.457-5.404h1.455l-5.549 11.736h-1.456Zm8.933-11.735h5.313v6.35h1.128v3.202h-1.201v-2.001h-5.749v2.001h-1.201v-3.202c.631-.012 1.098-.34 1.401-.983.206-.424.309-1.091.309-2.001v-3.366Zm4.003 6.35v-5.15h-2.693v2.84c0 1.006-.303 1.776-.909 2.31h3.602Zm3.82 1.2v-7.55h1.31v3.093h3.566v-3.093h1.311v7.55h-1.311v-3.256h-3.566v3.257h-1.31Zm8.653-7.55h1.31v4.985l5.168-5.567v8.133h-1.31v-5.04l-5.168 5.567v-8.078Zm8.956 0h1.31v3.093l3.056-3.093h1.602l-3.275 3.366 3.675 4.185h-1.71l-2.948-3.312-.4.383v2.929h-1.31v-7.551Zm9.641 5.095h-1.31v-9.68h1.31v9.68Zm-1.292 2.365a.873.873 0 0 1-.273-.637c0-.243.091-.455.273-.637a.873.873 0 0 1 .637-.273.87.87 0 0 1 .636.273.873.873 0 0 1 .273.637.873.873 0 0 1-.273.637.87.87 0 0 1-.636.273.873.873 0 0 1-.637-.273ZM84.697 81.194l3.566-5.385c-.824-.085-1.504-.34-2.037-.764-.704-.57-1.056-1.395-1.056-2.475 0-.994.28-1.8.837-2.42.655-.727 1.662-1.091 3.02-1.091h2.839v12.136h-1.347v-5.313h-.727l-3.457 5.313h-1.638Zm5.822-10.861h-1.31c-.97 0-1.661.212-2.074.636-.388.413-.582.934-.582 1.565 0 .716.23 1.262.692 1.638.436.34 1.055.51 1.855.51h1.42v-4.35Zm13.34 4.512h-2.365v6.35h-1.31v-6.35h-2.365v-1.201h6.04v1.2Zm1.377-1.201h2.856c.692 0 1.219.146 1.583.437.437.351.655.825.655 1.419 0 .655-.273 1.158-.818 1.51.376.097.691.267.946.51.4.388.6.873.6 1.455 0 .728-.261 1.298-.782 1.71-.449.34-1.043.51-1.783.51h-3.257v-7.551Zm1.31 3.075h1.383c.351 0 .63-.073.837-.218.242-.182.364-.443.364-.783a.866.866 0 0 0-.364-.728c-.182-.12-.534-.181-1.056-.181h-1.164v1.91Zm0 3.311h1.619c.558 0 .952-.085 1.183-.254.291-.219.437-.498.437-.837 0-.364-.128-.65-.383-.855-.23-.182-.624-.273-1.182-.273h-1.674v2.22Zm12.894.255c-.752.752-1.704 1.128-2.856 1.128-1.153 0-2.111-.376-2.875-1.128-.752-.752-1.128-1.698-1.128-2.838 0-1.153.376-2.105 1.128-2.857.764-.752 1.722-1.128 2.875-1.128 1.152 0 2.104.376 2.856 1.128.764.752 1.147 1.704 1.147 2.857 0 1.14-.383 2.086-1.147 2.838Zm-.982-4.912c-.51-.498-1.134-.747-1.874-.747-.74 0-1.371.255-1.893.765-.509.497-.764 1.182-.764 2.056 0 .873.261 1.558.783 2.056a2.619 2.619 0 0 0 1.874.746c.727 0 1.352-.249 1.874-.746.521-.498.782-1.183.782-2.056 0-.886-.261-1.577-.782-2.075Zm4.137-1.729h1.31v4.985l5.168-5.567v8.133h-1.31v-5.04l-5.168 5.567v-8.078Zm.655-3.257 1.092-.418c.219.727.734 1.091 1.547 1.091.812 0 1.328-.364 1.546-1.091l1.092.418a2.53 2.53 0 0 1-1.001 1.292c-.461.315-1.007.473-1.637.473-.631 0-1.183-.158-1.656-.473a2.566 2.566 0 0 1-.983-1.292Zm12.547 3.257h6.077v7.55h-1.31v-6.35h-3.457v6.35h-1.31v-7.55Zm14.151 5.022 1.092.6a4.323 4.323 0 0 1-.928 1.22c-.692.618-1.529.927-2.511.927-1.019 0-1.899-.327-2.638-.982-.728-.668-1.092-1.656-1.092-2.966 0-1.152.327-2.105.982-2.857.667-.764 1.559-1.146 2.675-1.146 1.261 0 2.214.461 2.857 1.383.509.728.746 1.674.709 2.838h-5.877c.012.764.249 1.383.71 1.856.461.473 1.025.71 1.692.71.594 0 1.11-.182 1.547-.546.339-.291.6-.637.782-1.037Zm-4.64-2.075h4.44c-.109-.594-.37-1.067-.783-1.419a2.062 2.062 0 0 0-1.437-.546c-.546 0-1.031.188-1.456.565-.412.363-.667.83-.764 1.4Zm9.106 3.549v5.24h-1.31V73.644h1.31v1.055c.667-.825 1.528-1.237 2.583-1.237 1.128 0 2.02.4 2.675 1.2.667.79 1.001 1.723 1.001 2.803 0 1.092-.328 2.026-.983 2.802-.655.764-1.534 1.146-2.638 1.146-1.104 0-1.983-.424-2.638-1.273Zm2.456.109c.74 0 1.334-.267 1.783-.8.449-.547.673-1.208.673-1.984 0-.874-.248-1.565-.746-2.074-.497-.51-1.073-.765-1.728-.765s-1.237.255-1.747.765c-.509.51-.764 1.194-.764 2.056 0 .788.23 1.455.691 2.001.473.534 1.086.8 1.838.8Zm11.724-6.06v1.566c-.594-.752-1.383-1.129-2.365-1.129-.74 0-1.371.255-1.892.765-.522.497-.783 1.182-.783 2.056 0 .873.261 1.558.783 2.056a2.619 2.619 0 0 0 1.874.746c.97 0 1.783-.394 2.438-1.183v1.565a3.983 3.983 0 0 1-2.402.782c-1.177 0-2.147-.37-2.911-1.11-.752-.752-1.128-1.698-1.128-2.838 0-1.152.382-2.105 1.146-2.857.764-.764 1.729-1.146 2.893-1.146.873 0 1.656.243 2.347.728Zm8.256 6.096c-.752.752-1.705 1.128-2.857 1.128-1.152 0-2.11-.376-2.875-1.128-.752-.752-1.128-1.698-1.128-2.838 0-1.153.376-2.105 1.128-2.857.765-.752 1.723-1.128 2.875-1.128s2.105.376 2.857 1.128c.764.752 1.146 1.704 1.146 2.857 0 1.14-.382 2.086-1.146 2.838Zm-.983-4.912c-.509-.498-1.134-.747-1.874-.747-.74 0-1.371.255-1.892.765-.51.497-.764 1.182-.764 2.056 0 .873.26 1.558.782 2.056a2.62 2.62 0 0 0 1.874.746c.728 0 1.353-.249 1.874-.746.522-.498.783-1.183.783-2.056 0-.886-.261-1.577-.783-2.075Zm4.138 5.822v-7.551h1.31v3.093h3.566v-3.093h1.31v7.55h-1.31v-3.256h-3.566v3.257h-1.31Zm14.439-6.477v-1.074h1.31v7.55h-1.31V80.14c-.655.85-1.516 1.274-2.584 1.274-1.019 0-1.886-.352-2.601-1.055-.716-.704-1.074-1.686-1.074-2.948 0-1.237.352-2.201 1.055-2.893.716-.703 1.589-1.055 2.62-1.055 1.092 0 1.953.418 2.584 1.255Zm-2.438-.092c-.691 0-1.28.25-1.765.746-.473.486-.71 1.165-.71 2.038 0 .837.219 1.523.655 2.056.449.522 1.056.783 1.82.783s1.371-.273 1.819-.82c.461-.545.692-1.212.692-2 0-.898-.255-1.59-.764-2.075-.51-.485-1.092-.728-1.747-.728Zm11.942-.982v7.55h-1.31v-6.35h-2.692v3.403c0 .983-.195 1.71-.583 2.184-.436.533-1.043.8-1.819.8-.097 0-.231-.012-.4-.036v-1.201c.121.024.218.036.291.036.424 0 .74-.163.946-.49.17-.268.254-.698.254-1.293v-4.603h5.313Zm2.478 7.55v-7.55h1.31v2.893h1.347c1.043 0 1.807.249 2.292.746.389.388.583.916.583 1.583 0 .703-.225 1.267-.674 1.692-.448.425-1.188.637-2.219.637h-2.639Zm1.31-1.164h1.219c.546 0 .934-.066 1.165-.2.327-.218.491-.54.491-.964 0-.437-.157-.752-.473-.946-.218-.146-.606-.219-1.164-.219h-1.238v2.33Zm5.975 1.165v-7.551h1.31v3.093h3.567v-3.093h1.31v7.55h-1.31v-3.256h-3.567v3.257h-1.31Zm8.654 0v-7.551h1.31v2.893h1.346c1.043 0 1.807.249 2.293.746.388.388.582.916.582 1.583 0 .703-.225 1.267-.673 1.692-.449.425-1.189.637-2.22.637h-2.638Zm1.31-1.165h1.219c.546 0 .934-.066 1.164-.2.328-.218.491-.54.491-.964 0-.437-.157-.752-.473-.946-.218-.146-.606-.219-1.164-.219h-1.237v2.33Zm5.131 1.165v-7.551h1.31v7.55h-1.31Zm3.775-7.551h1.31v4.985l5.168-5.567v8.133h-1.31v-5.04l-5.168 5.567v-8.078Zm.655-3.257 1.092-.418c.218.727.734 1.091 1.547 1.091.812 0 1.328-.364 1.546-1.091l1.092.418a2.53 2.53 0 0 1-1.001 1.292c-.461.315-1.007.473-1.637.473-.631 0-1.183-.158-1.656-.473a2.56 2.56 0 0 1-.983-1.292Zm12.547 3.257h6.077v7.55h-1.31v-6.35h-3.457v6.35h-1.31v-7.55Zm14.933 6.641c-.752.752-1.704 1.128-2.856 1.128-1.153 0-2.111-.376-2.875-1.128-.752-.752-1.128-1.698-1.128-2.838 0-1.153.376-2.105 1.128-2.857.764-.752 1.722-1.128 2.875-1.128 1.152 0 2.104.376 2.856 1.128.764.752 1.146 1.704 1.146 2.857 0 1.14-.382 2.086-1.146 2.838Zm-.982-4.912c-.51-.498-1.134-.747-1.874-.747-.74 0-1.371.255-1.893.765-.509.497-.764 1.182-.764 2.056 0 .873.261 1.558.783 2.056a2.619 2.619 0 0 0 1.874.746c.727 0 1.352-.249 1.874-.746.521-.498.782-1.183.782-2.056 0-.886-.261-1.577-.782-2.075Zm3.264 5.822 1.82-8.133 3.129 6.15 3.057-6.15 1.819 8.133h-1.346l-1.001-4.676-2.565 5.203-2.602-5.203-.965 4.676h-1.346Zm17.814-.91c-.752.752-1.704 1.128-2.856 1.128-1.153 0-2.111-.376-2.875-1.128-.752-.752-1.128-1.698-1.128-2.838 0-1.153.376-2.105 1.128-2.857.764-.752 1.722-1.128 2.875-1.128 1.152 0 2.104.376 2.856 1.128.764.752 1.146 1.704 1.146 2.857 0 1.14-.382 2.086-1.146 2.838Zm-.982-4.912c-.51-.498-1.135-.747-1.874-.747-.74 0-1.371.255-1.893.765-.509.497-.764 1.182-.764 2.056 0 .873.261 1.558.782 2.056a2.623 2.623 0 0 0 1.875.746c.727 0 1.352-.249 1.874-.746.521-.498.782-1.183.782-2.056 0-.886-.261-1.577-.782-2.075Zm4.137 5.822v-7.551h1.31v6.35h2.912v-6.35h1.31v6.35h2.911v-6.35h1.31v6.35h1.237v3.202h-1.201v-2.001h-9.789Zm12.367 0v-7.551h1.31v3.093h3.566v-3.093h1.31v7.55h-1.31v-3.256h-3.566v3.257h-1.31Zm8.653-7.551h1.31v4.985l5.168-5.567v8.133h-1.31v-5.04l-5.168 5.567v-8.078Zm8.956 0h1.31v3.093l3.056-3.093h1.601l-3.275 3.366 3.676 4.185H318.6l-2.947-3.312-.4.383v2.929h-1.31v-7.551Zm11.922 7.55v-7.55h1.31v3.093h3.566v-3.093h1.31v7.55h-1.31v-3.256h-3.566v3.257h-1.31Zm14.439-6.477v-1.073h1.31v7.55h-1.31V80.14c-.655.85-1.516 1.274-2.584 1.274-1.018 0-1.886-.352-2.601-1.055-.716-.704-1.074-1.686-1.074-2.948 0-1.237.352-2.201 1.055-2.893.716-.703 1.589-1.055 2.62-1.055 1.092 0 1.953.418 2.584 1.255Zm-2.438-.09c-.691 0-1.28.248-1.765.746-.473.485-.709 1.164-.709 2.037 0 .837.218 1.523.655 2.056.448.522 1.055.783 1.819.783s1.371-.273 1.82-.82c.46-.545.691-1.212.691-2 0-.898-.255-1.59-.764-2.075-.51-.485-1.092-.728-1.747-.728ZM90.338 97.844h-2.366v6.35h-1.31v-6.35h-2.365v-1.201h6.04v1.2Zm1.376-1.201h2.857c.691 0 1.219.146 1.583.437.436.351.655.825.655 1.419 0 .655-.273 1.158-.82 1.51.377.097.692.267.947.509.4.389.6.874.6 1.456 0 .728-.26 1.298-.782 1.71-.449.34-1.043.51-1.783.51h-3.257v-7.551Zm1.31 3.075h1.383c.352 0 .63-.073.837-.218.243-.182.364-.443.364-.783a.865.865 0 0 0-.364-.728c-.182-.12-.534-.181-1.055-.181h-1.165v1.91Zm0 3.311h1.62c.557 0 .952-.085 1.182-.254.291-.219.437-.498.437-.837 0-.364-.128-.649-.382-.855-.23-.182-.625-.273-1.183-.273h-1.674v2.219Zm12.895.255c-.752.752-1.705 1.128-2.857 1.128-1.152 0-2.111-.376-2.875-1.128-.752-.752-1.128-1.698-1.128-2.838 0-1.153.376-2.105 1.128-2.857.764-.752 1.723-1.128 2.875-1.128s2.105.376 2.857 1.128c.764.752 1.146 1.704 1.146 2.857 0 1.14-.382 2.086-1.146 2.838Zm-.983-4.912c-.509-.498-1.134-.747-1.874-.747-.74 0-1.371.255-1.892.765-.51.497-.764 1.182-.764 2.056 0 .873.26 1.558.782 2.056a2.622 2.622 0 0 0 1.874.746c.728 0 1.352-.249 1.874-.746.522-.498.782-1.183.782-2.056 0-.886-.26-1.577-.782-2.075Zm9.742 3.293 1.091.6a4.317 4.317 0 0 1-.927 1.219c-.692.619-1.529.928-2.511.928-1.019 0-1.899-.327-2.639-.982-.727-.667-1.091-1.656-1.091-2.966 0-1.152.327-2.105.982-2.857.667-.764 1.559-1.146 2.675-1.146 1.261 0 2.214.461 2.856 1.383.51.728.746 1.674.71 2.838h-5.877c.012.764.249 1.383.71 1.856.461.473 1.025.71 1.692.71.594 0 1.11-.182 1.546-.546a2.97 2.97 0 0 0 .783-1.037Zm-4.64-2.075h4.44c-.11-.594-.37-1.067-.783-1.419a2.062 2.062 0 0 0-1.437-.546c-.546 0-1.031.188-1.456.565-.412.363-.667.83-.764 1.4Zm6.922 4.604 1.82-8.133 3.129 6.15 3.057-6.15 1.819 8.133h-1.346l-1.001-4.676-2.565 5.203-2.602-5.203-.964 4.676h-1.347Zm15.675 0v-7.551h1.31v3.093h3.566v-3.093h1.31v7.551h-1.31v-3.257h-3.566v3.257h-1.31Zm15.039-.91c-.752.752-1.704 1.128-2.856 1.128-1.153 0-2.111-.376-2.875-1.128-.752-.752-1.128-1.698-1.128-2.838 0-1.153.376-2.105 1.128-2.857.764-.752 1.722-1.128 2.875-1.128 1.152 0 2.104.376 2.856 1.128.764.752 1.146 1.704 1.146 2.857 0 1.14-.382 2.086-1.146 2.838Zm-.982-4.912c-.51-.498-1.135-.747-1.874-.747-.74 0-1.371.255-1.893.765-.509.497-.764 1.182-.764 2.056 0 .873.261 1.558.782 2.056a2.624 2.624 0 0 0 1.875.746c.727 0 1.352-.249 1.874-.746.521-.498.782-1.183.782-2.056 0-.886-.261-1.577-.782-2.075Zm4.137-1.729h2.857c.691 0 1.219.146 1.583.437.437.351.655.825.655 1.419 0 .655-.273 1.158-.819 1.51.376.097.692.267.946.509.401.389.601.874.601 1.456 0 .728-.261 1.298-.783 1.71-.449.34-1.043.51-1.783.51h-3.257v-7.551Zm1.31 3.075h1.383c.352 0 .631-.073.837-.218.243-.182.364-.443.364-.783a.864.864 0 0 0-.364-.728c-.182-.12-.534-.181-1.055-.181h-1.165v1.91Zm0 3.311h1.62c.558 0 .952-.085 1.182-.254.291-.219.437-.498.437-.837 0-.364-.127-.649-.382-.855-.231-.182-.625-.273-1.183-.273h-1.674v2.219Zm12.895.255c-.752.752-1.704 1.128-2.857 1.128-1.152 0-2.11-.376-2.875-1.128-.752-.752-1.128-1.698-1.128-2.838 0-1.153.376-2.105 1.128-2.857.765-.752 1.723-1.128 2.875-1.128 1.153 0 2.105.376 2.857 1.128.764.752 1.146 1.704 1.146 2.857 0 1.14-.382 2.086-1.146 2.838Zm-.983-4.912c-.509-.498-1.134-.747-1.874-.747-.74 0-1.37.255-1.892.765-.51.497-.764 1.182-.764 2.056 0 .873.261 1.558.782 2.056a2.622 2.622 0 0 0 1.874.746 2.62 2.62 0 0 0 1.874-.746c.522-.498.783-1.183.783-2.056 0-.886-.261-1.577-.783-2.075Zm3.265 5.822 1.819-8.133 3.13 6.15 3.056-6.15 1.82 8.133h-1.347l-1-4.676-2.566 5.203-2.602-5.203-.964 4.676h-1.346Zm16.984-1.055v5.24h-1.31V96.644h1.31v1.055c.667-.825 1.528-1.237 2.584-1.237 1.128 0 2.019.4 2.674 1.2.667.79 1.001 1.723 1.001 2.803 0 1.092-.327 2.026-.983 2.802-.655.764-1.534 1.146-2.638 1.146-1.104 0-1.983-.424-2.638-1.273Zm2.456.109c.74 0 1.335-.267 1.783-.801.449-.546.674-1.207.674-1.983 0-.874-.249-1.565-.746-2.074-.498-.51-1.074-.765-1.729-.765s-1.237.255-1.747.765c-.509.51-.764 1.194-.764 2.056 0 .788.231 1.455.692 2.001.473.534 1.085.801 1.837.801Zm11.597-5.531v-1.074h1.31v7.551h-1.31v-1.055c-.655.849-1.516 1.273-2.584 1.273-1.019 0-1.886-.352-2.601-1.055-.716-.704-1.074-1.686-1.074-2.948 0-1.237.352-2.201 1.055-2.893.716-.703 1.589-1.055 2.62-1.055 1.092 0 1.953.418 2.584 1.255Zm-2.438-.092c-.691 0-1.28.25-1.765.746-.473.486-.71 1.165-.71 2.038 0 .837.219 1.523.655 2.056.449.522 1.056.783 1.82.783s1.371-.273 1.819-.819c.461-.546.692-1.213.692-2.001 0-.898-.255-1.59-.764-2.075-.51-.485-1.092-.728-1.747-.728Zm12.052-6.168h1.455c-.133.45-.364.831-.691 1.147-.316.303-.607.51-.874.618-.254.11-.558.207-.909.291-.061.013-.207.049-.437.11-.23.048-.406.09-.528.127-.121.036-.279.085-.473.146-.194.06-.37.133-.527.218a3.767 3.767 0 0 0-.437.273c-.461.352-.837.843-1.128 1.474a5.208 5.208 0 0 0-.455 1.983h.036c.546-.922 1.462-1.383 2.748-1.383 1.128 0 2.062.382 2.802 1.146.752.764 1.128 1.71 1.128 2.839 0 1.14-.382 2.086-1.146 2.838-.765.752-1.759 1.128-2.984 1.128-1.056 0-1.923-.315-2.602-.946-.849-.776-1.274-2.074-1.274-3.894 0-3.165.716-5.24 2.147-6.222a3.25 3.25 0 0 1 .346-.2c.121-.073.249-.134.382-.182.146-.061.267-.11.364-.146.097-.048.23-.09.4-.127.182-.049.303-.08.364-.091a3.55 3.55 0 0 1 .4-.091l.382-.091c.486-.11.837-.237 1.056-.382.218-.158.37-.352.455-.582Zm-.419 6.915c-.509-.498-1.134-.747-1.874-.747-.74 0-1.371.255-1.892.765-.51.497-.764 1.182-.764 2.056 0 .873.26 1.558.782 2.056a2.622 2.622 0 0 0 1.874.746 2.62 2.62 0 0 0 1.874-.746c.522-.498.782-1.183.782-2.056 0-.886-.26-1.577-.782-2.075Zm10.524 4.912c-.752.752-1.704 1.128-2.856 1.128-1.153 0-2.111-.376-2.875-1.128-.752-.752-1.128-1.698-1.128-2.838 0-1.153.376-2.105 1.128-2.857.764-.752 1.722-1.128 2.875-1.128 1.152 0 2.104.376 2.856 1.128.764.752 1.146 1.704 1.146 2.857 0 1.14-.382 2.086-1.146 2.838Zm-.982-4.912c-.51-.498-1.134-.747-1.874-.747-.74 0-1.371.255-1.893.765-.509.497-.764 1.182-.764 2.056 0 .873.261 1.558.783 2.056a2.62 2.62 0 0 0 1.874.746c.727 0 1.352-.249 1.874-.746.521-.498.782-1.183.782-2.056 0-.886-.261-1.577-.782-2.075Zm8.177 5.822v-2.966c-.716.109-1.31.164-1.783.164-.825 0-1.438-.182-1.838-.546-.425-.376-.637-.995-.637-1.856v-2.347h1.31v2.165c0 .413.055.71.164.892.17.327.552.491 1.146.491.534 0 1.08-.055 1.638-.164v-3.384h1.31v7.551h-1.31Zm9.382-2.529 1.092.6a4.32 4.32 0 0 1-.928 1.219c-.691.619-1.528.928-2.511.928-1.019 0-1.898-.327-2.638-.982-.728-.667-1.092-1.656-1.092-2.966 0-1.152.328-2.105.983-2.857.667-.764 1.559-1.146 2.675-1.146 1.261 0 2.213.461 2.856 1.383.51.728.746 1.674.71 2.838h-5.877c.012.764.248 1.383.709 1.856.461.473 1.025.71 1.693.71a2.34 2.34 0 0 0 1.546-.546c.34-.291.601-.637.782-1.037Zm-4.639-2.075h4.439c-.109-.594-.37-1.067-.782-1.419a2.062 2.062 0 0 0-1.437-.546c-.546 0-1.031.188-1.456.565-.412.363-.667.83-.764 1.4Zm6.922 4.604 1.819-8.133 3.13 6.15 3.057-6.15 1.819 8.133h-1.346l-1.001-4.676-2.565 5.203-2.602-5.203-.965 4.676h-1.346Zm14.801 0 1.819-8.133 3.13 6.15 3.057-6.15 1.819 8.133h-1.346l-1.001-4.676-2.565 5.203-2.602-5.203-.965 4.676h-1.346Zm17.032-2.529 1.091.6a4.3 4.3 0 0 1-.928 1.219c-.691.619-1.528.928-2.51.928-1.019 0-1.899-.327-2.639-.982-.728-.667-1.091-1.656-1.091-2.966 0-1.152.327-2.105.982-2.857.667-.764 1.559-1.146 2.675-1.146 1.261 0 2.213.461 2.856 1.383.51.728.746 1.674.71 2.838h-5.877c.012.764.249 1.383.71 1.856.461.473 1.025.71 1.692.71.594 0 1.11-.182 1.546-.546a2.97 2.97 0 0 0 .783-1.037Zm-4.64-2.075h4.44c-.11-.594-.37-1.067-.783-1.419a2.062 2.062 0 0 0-1.437-.546c-.546 0-1.031.188-1.456.565-.412.363-.667.83-.764 1.4Zm13.709-2.401v1.565c-.595-.752-1.383-1.129-2.366-1.129-.74 0-1.37.255-1.892.765-.521.497-.782 1.182-.782 2.056 0 .873.261 1.558.782 2.056a2.622 2.622 0 0 0 1.874.746c.971 0 1.783-.395 2.438-1.183v1.565a3.981 3.981 0 0 1-2.401.782c-1.177 0-2.147-.37-2.912-1.11-.752-.752-1.128-1.698-1.128-2.838 0-1.152.382-2.105 1.147-2.857.764-.764 1.728-1.146 2.893-1.146a3.99 3.99 0 0 1 2.347.728Zm7.013.655h-2.365v6.35h-1.31v-6.35h-2.365v-1.201h6.04v1.2Zm6.803 3.821 1.092.6a4.32 4.32 0 0 1-.928 1.219c-.691.619-1.528.928-2.511.928-1.019 0-1.898-.327-2.638-.982-.728-.667-1.092-1.656-1.092-2.966 0-1.152.328-2.105.983-2.857.667-.764 1.558-1.146 2.674-1.146 1.262 0 2.214.461 2.857 1.383.509.728.746 1.674.71 2.838h-5.877c.012.764.248 1.383.709 1.856.461.473 1.025.71 1.692.71a2.34 2.34 0 0 0 1.547-.546c.339-.291.6-.637.782-1.037Zm-4.639-2.075h4.439c-.109-.594-.37-1.067-.782-1.419a2.066 2.066 0 0 0-1.438-.546 2.13 2.13 0 0 0-1.455.565c-.413.363-.667.83-.764 1.4Zm7.995 4.513a.872.872 0 0 1-.273-.637c0-.243.091-.455.273-.637a.872.872 0 0 1 .637-.273c.243 0 .455.091.637.273a.872.872 0 0 1 .273.637.872.872 0 0 1-.273.637.872.872 0 0 1-.637.273.872.872 0 0 1-.637-.273Zm14.446-10.771h-2.948v10.862h-1.346V93.333h-2.948v-1.274h7.242v1.274Zm.581 10.862v-7.551h1.311v2.893h1.346c1.043 0 1.807.249 2.292.746.389.388.583.916.583 1.583 0 .703-.225 1.267-.674 1.692-.448.425-1.188.637-2.219.637h-2.639Zm1.311-1.165h1.219c.545 0 .934-.066 1.164-.2.328-.218.491-.54.491-.964 0-.437-.157-.752-.473-.946-.218-.146-.606-.219-1.164-.219h-1.237v2.329Zm5.13 1.165v-7.551h1.31v7.551h-1.31Zm-231.959 23 1.82-8.133 3.13 6.15 3.056-6.15 1.82 8.133h-1.347l-1-4.676-2.566 5.203-2.602-5.203-.964 4.676h-1.347Zm17.814-.91c-.752.752-1.704 1.128-2.856 1.128-1.153 0-2.11-.376-2.875-1.128-.752-.752-1.128-1.698-1.128-2.838 0-1.153.376-2.105 1.128-2.857.764-.752 1.722-1.128 2.875-1.128 1.152 0 2.104.376 2.856 1.128.765.752 1.147 1.704 1.147 2.857 0 1.14-.382 2.086-1.147 2.838Zm-.982-4.912c-.51-.498-1.134-.746-1.874-.746-.74 0-1.37.254-1.892.764-.51.497-.765 1.182-.765 2.056 0 .873.261 1.558.783 2.056a2.622 2.622 0 0 0 1.874.746c.728 0 1.352-.249 1.874-.746.521-.498.782-1.183.782-2.056 0-.886-.261-1.577-.782-2.074Zm7.667-1.729h1.31v3.093l2.839-3.093h1.528l-3.275 3.493 3.603 4.058h-1.638l-2.802-3.184-.255.254v2.93h-1.31v-2.93l-.254-.254-2.802 3.184h-1.638l3.603-4.058-3.275-3.493h1.528l2.838 3.093v-3.093Zm12.736 5.022 1.091.6a4.3 4.3 0 0 1-.928 1.219c-.691.619-1.528.928-2.511.928-1.018 0-1.898-.327-2.638-.982-.728-.667-1.091-1.656-1.091-2.966 0-1.152.327-2.105.982-2.857.667-.764 1.559-1.146 2.675-1.146 1.261 0 2.213.461 2.856 1.383.51.728.746 1.674.71 2.838h-5.877c.012.764.249 1.383.71 1.856a2.27 2.27 0 0 0 1.692.71c.594 0 1.11-.182 1.546-.546a2.97 2.97 0 0 0 .783-1.037Zm-4.64-2.074h4.439c-.109-.595-.37-1.068-.782-1.42a2.06 2.06 0 0 0-1.437-.545c-.546 0-1.031.188-1.456.564-.412.363-.667.83-.764 1.401Zm7.795 4.603v-7.551h1.31v6.35h2.912v-6.35h1.31v6.35h2.911v-6.35h1.31v7.551h-9.753Zm12.225 0v-7.551h1.31v2.893h1.346c1.044 0 1.808.249 2.293.746.388.388.582.916.582 1.583 0 .703-.224 1.267-.673 1.692-.449.425-1.189.637-2.22.637h-2.638Zm1.31-1.165h1.219c.546 0 .934-.066 1.164-.2.328-.218.492-.54.492-.964 0-.437-.158-.752-.473-.946-.219-.146-.607-.219-1.165-.219h-1.237v2.329Zm11.204-4.457-.91-.746c.291-.425.613-.74.965-.946.473-.279 1.025-.419 1.655-.419.765 0 1.359.176 1.784.528.436.376.655.855.655 1.437 0 .704-.286 1.231-.856 1.583.364.085.655.249.874.491.351.376.527.837.527 1.383 0 .813-.327 1.462-.982 1.947-.534.388-1.25.582-2.147.582-.801 0-1.474-.212-2.02-.637-.412-.303-.746-.734-1-1.291l1.128-.474c.133.34.357.625.673.856.339.254.752.382 1.237.382.57 0 .995-.097 1.274-.291.351-.231.527-.583.527-1.056 0-.388-.151-.679-.455-.873-.254-.17-.667-.255-1.237-.255h-.764v-1.201h.637c.461 0 .788-.066.982-.2.267-.17.401-.4.401-.691 0-.34-.11-.601-.328-.783-.206-.182-.527-.272-.964-.272a1.94 1.94 0 0 0-1.037.291 1.773 1.773 0 0 0-.619.655Zm12.479-.856v-1.073h1.31v7.551h-1.31v-1.055c-.655.849-1.516 1.273-2.583 1.273-1.019 0-1.886-.352-2.602-1.055-.716-.704-1.074-1.686-1.074-2.948 0-1.237.352-2.201 1.056-2.893.715-.703 1.589-1.055 2.62-1.055 1.091 0 1.953.419 2.583 1.255Zm-2.438-.09c-.691 0-1.279.248-1.765.746-.473.485-.709 1.164-.709 2.037 0 .837.218 1.523.655 2.056.449.522 1.055.783 1.819.783.765 0 1.371-.273 1.82-.819.461-.546.691-1.213.691-2.001 0-.898-.255-1.59-.764-2.075-.509-.485-1.092-.727-1.747-.727Zm6.775-.983h5.313v6.35h1.128v3.202h-1.2v-2.001h-5.75v2.001h-1.201v-3.202c.631-.012 1.098-.34 1.401-.983.206-.424.309-1.091.309-2.001v-3.366Zm4.003 6.35v-5.149h-2.692v2.838c0 1.007-.304 1.777-.91 2.311h3.602Zm9.606-5.277v-1.073h1.31v7.551h-1.31v-1.055c-.655.849-1.516 1.273-2.583 1.273-1.019 0-1.886-.352-2.602-1.055-.716-.704-1.074-1.686-1.074-2.948 0-1.237.352-2.201 1.056-2.893.715-.703 1.589-1.055 2.62-1.055 1.091 0 1.953.419 2.583 1.255Zm-2.438-.09c-.691 0-1.279.248-1.765.746-.473.485-.709 1.164-.709 2.037 0 .837.218 1.523.655 2.056.449.522 1.055.783 1.819.783.765 0 1.371-.273 1.82-.819.461-.546.691-1.213.691-2.001 0-.898-.254-1.59-.764-2.075-.509-.485-1.092-.727-1.747-.727Zm11.179.218h-2.366v6.35h-1.31v-6.35h-2.365v-1.201h6.041v1.201Zm1.376 6.35v-7.551h1.31v2.893h1.347c1.043 0 1.807.249 2.292.746.388.388.582.916.582 1.583 0 .703-.224 1.267-.673 1.692-.449.425-1.189.637-2.22.637h-2.638Zm1.31-1.165h1.219c.546 0 .934-.066 1.165-.2.327-.218.491-.54.491-.964 0-.437-.158-.752-.473-.946-.218-.146-.607-.219-1.165-.219h-1.237v2.329Zm9.348 1.165 1.82-8.133 3.129 6.15 3.057-6.15 1.82 8.133h-1.347l-1-4.676-2.566 5.203-2.602-5.203-.964 4.676h-1.347Zm11.428 0v-7.551h1.31v3.093h3.566v-3.093h1.31v7.551h-1.31v-3.257h-3.566v3.257h-1.31Zm14.257-2.529 1.092.6a4.32 4.32 0 0 1-.928 1.219c-.691.619-1.528.928-2.511.928-1.019 0-1.898-.327-2.638-.982-.728-.667-1.092-1.656-1.092-2.966 0-1.152.328-2.105.983-2.857.667-.764 1.558-1.146 2.674-1.146 1.262 0 2.214.461 2.857 1.383.509.728.746 1.674.71 2.838h-5.877c.012.764.248 1.383.709 1.856.461.473 1.025.71 1.692.71a2.34 2.34 0 0 0 1.547-.546c.34-.291.6-.637.782-1.037Zm-4.639-2.074h4.439c-.109-.595-.37-1.068-.782-1.42-.4-.364-.88-.545-1.438-.545-.545 0-1.031.188-1.455.564-.413.363-.667.83-.764 1.401Zm17.755-2.948v7.551h-1.31v-6.35h-2.693v3.402c0 .983-.194 1.711-.582 2.184-.437.533-1.043.8-1.82.8a3.04 3.04 0 0 1-.4-.036v-1.201c.121.024.218.036.291.036.425 0 .74-.163.946-.491.17-.267.255-.697.255-1.292v-4.603h5.313Zm3.788 3.093h1.365c.121-.849.461-1.565 1.018-2.147.716-.752 1.668-1.128 2.857-1.128 1.165 0 2.123.376 2.875 1.128.752.752 1.128 1.704 1.128 2.857 0 1.14-.382 2.086-1.146 2.838-.752.752-1.705 1.128-2.857 1.128-1.322 0-2.359-.473-3.111-1.419a3.809 3.809 0 0 1-.837-2.056h-1.292v3.257h-1.31v-7.551h1.31v3.093Zm5.24-2.11c-.728 0-1.346.254-1.856.764-.497.497-.746 1.182-.746 2.056 0 .885.255 1.577.764 2.074.51.485 1.122.728 1.838.728a2.62 2.62 0 0 0 1.874-.746c.522-.498.783-1.183.783-2.056 0-.874-.261-1.559-.783-2.056-.509-.51-1.134-.764-1.874-.764Zm11.834-6.169h1.456a2.59 2.59 0 0 1-.691 1.147c-.316.303-.607.509-.874.618-.254.11-.558.207-.909.292a9.307 9.307 0 0 0-.437.109 6.954 6.954 0 0 0-.528.127c-.121.036-.279.085-.473.146-.194.06-.37.133-.527.218a3.781 3.781 0 0 0-.437.273c-.461.352-.837.843-1.128 1.474a5.202 5.202 0 0 0-.455 1.983h.036c.546-.922 1.462-1.383 2.748-1.383 1.128 0 2.062.382 2.802 1.146.752.765 1.128 1.711 1.128 2.839 0 1.14-.382 2.086-1.146 2.838-.765.752-1.759 1.128-2.984 1.128-1.056 0-1.923-.315-2.602-.946-.849-.776-1.274-2.074-1.274-3.894 0-3.166.716-5.24 2.147-6.222a3 3 0 0 1 .346-.2c.121-.073.248-.134.382-.182a9.51 9.51 0 0 1 .364-.146c.097-.048.23-.091.4-.127a6.71 6.71 0 0 1 .364-.091c.073-.024.206-.055.4-.091l.382-.091c.486-.109.837-.237 1.056-.382.218-.158.37-.352.454-.583Zm-.418 6.915c-.509-.498-1.134-.746-1.874-.746-.74 0-1.371.254-1.892.764-.51.497-.764 1.182-.764 2.056 0 .873.26 1.558.782 2.056a2.62 2.62 0 0 0 1.874.746c.728 0 1.352-.249 1.874-.746.522-.498.782-1.183.782-2.056 0-.886-.26-1.577-.782-2.074Zm4.138 5.822v-7.551h1.31v2.893h1.346c1.043 0 1.808.249 2.293.746.388.388.582.916.582 1.583 0 .703-.224 1.267-.673 1.692-.449.425-1.189.637-2.22.637h-2.638Zm1.31-1.165h1.219c.546 0 .934-.066 1.164-.2.328-.218.492-.54.492-.964 0-.437-.158-.752-.474-.946-.218-.146-.606-.219-1.164-.219h-1.237v2.329Zm5.131 1.165v-7.551h1.31v7.551h-1.31Zm9.38-2.529 1.091.6a4.32 4.32 0 0 1-.928 1.219c-.691.619-1.528.928-2.511.928-1.019 0-1.898-.327-2.638-.982-.728-.667-1.092-1.656-1.092-2.966 0-1.152.328-2.105.983-2.857.667-.764 1.559-1.146 2.675-1.146 1.261 0 2.213.461 2.856 1.383.51.728.746 1.674.71 2.838h-5.877c.012.764.249 1.383.709 1.856.461.473 1.025.71 1.693.71a2.34 2.34 0 0 0 1.546-.546 2.97 2.97 0 0 0 .783-1.037Zm-4.64-2.074h4.439c-.109-.595-.37-1.068-.782-1.42a2.06 2.06 0 0 0-1.437-.545c-.546 0-1.031.188-1.456.564-.412.363-.667.83-.764 1.401Zm-190.02 19.052h2.857c.692 0 1.22.146 1.583.437.437.351.655.825.655 1.419 0 .655-.273 1.158-.819 1.51.376.097.692.267.947.509.4.389.6.874.6 1.456 0 .728-.26 1.298-.782 1.71-.45.34-1.044.51-1.784.51H85.39v-7.551Zm1.31 3.075h1.383c.352 0 .631-.073.837-.218.243-.182.364-.443.364-.783a.865.865 0 0 0-.364-.728c-.182-.121-.533-.182-1.055-.182H86.7v1.911Zm0 3.311h1.62c.558 0 .952-.085 1.183-.254.29-.219.436-.498.436-.837 0-.364-.127-.649-.382-.855-.23-.182-.625-.273-1.182-.273h-1.674v2.219Zm12.895.255c-.752.752-1.704 1.128-2.856 1.128-1.153 0-2.111-.376-2.875-1.128-.752-.752-1.128-1.698-1.128-2.838 0-1.153.376-2.105 1.128-2.857.764-.752 1.722-1.128 2.875-1.128 1.152 0 2.104.376 2.856 1.128.764.752 1.146 1.704 1.146 2.857 0 1.14-.382 2.086-1.146 2.838Zm-.983-4.912c-.509-.498-1.134-.746-1.873-.746-.74 0-1.371.254-1.893.764-.51.497-.764 1.182-.764 2.056 0 .873.26 1.558.782 2.056a2.622 2.622 0 0 0 1.875.746c.727 0 1.352-.249 1.874-.746.521-.498.782-1.183.782-2.056 0-.886-.26-1.577-.782-2.074Zm4.138-1.729h6.077v7.551h-1.31v-6.35h-3.457v6.35h-1.31v-7.551Zm9.857 6.496v5.24h-1.31v-11.736h1.31v1.055c.667-.825 1.528-1.237 2.584-1.237 1.128 0 2.019.4 2.674 1.201.667.788 1.001 1.722 1.001 2.802 0 1.092-.328 2.026-.983 2.802-.655.764-1.534 1.146-2.638 1.146-1.104 0-1.983-.424-2.638-1.273Zm2.456.109c.74 0 1.334-.267 1.783-.801.449-.546.673-1.207.673-1.983 0-.873-.248-1.565-.746-2.074-.497-.51-1.073-.764-1.728-.764s-1.237.254-1.747.764c-.509.509-.764 1.194-.764 2.056 0 .788.231 1.455.691 2.001.474.534 1.086.801 1.838.801Zm12.197.036c-.752.752-1.704 1.128-2.856 1.128-1.153 0-2.111-.376-2.875-1.128-.752-.752-1.128-1.698-1.128-2.838 0-1.153.376-2.105 1.128-2.857.764-.752 1.722-1.128 2.875-1.128 1.152 0 2.104.376 2.856 1.128.764.752 1.147 1.704 1.147 2.857 0 1.14-.383 2.086-1.147 2.838Zm-.982-4.912c-.51-.498-1.134-.746-1.874-.746-.74 0-1.371.254-1.893.764-.509.497-.764 1.182-.764 2.056 0 .873.261 1.558.783 2.056a2.62 2.62 0 0 0 1.874.746c.728 0 1.352-.249 1.874-.746.521-.498.782-1.183.782-2.056 0-.886-.261-1.577-.782-2.074Zm10.051-1.183v1.565c-.595-.752-1.383-1.128-2.365-1.128-.74 0-1.371.254-1.893.764-.521.497-.782 1.182-.782 2.056 0 .873.261 1.558.782 2.056a2.623 2.623 0 0 0 1.874.746c.971 0 1.783-.395 2.438-1.183v1.565a3.981 3.981 0 0 1-2.401.782c-1.177 0-2.147-.37-2.911-1.11-.753-.752-1.129-1.698-1.129-2.838 0-1.152.383-2.105 1.147-2.857.764-.764 1.728-1.146 2.893-1.146.873 0 1.655.243 2.347.728Zm2.065 7.005v-7.551h1.31v2.893h1.346c1.043 0 1.807.249 2.292.746.389.388.583.916.583 1.583 0 .703-.225 1.267-.673 1.692-.449.425-1.189.637-2.22.637h-2.638Zm1.31-1.165h1.219c.545 0 .934-.066 1.164-.2.328-.218.491-.54.491-.964 0-.437-.157-.752-.473-.946-.218-.146-.606-.219-1.164-.219h-1.237v2.329Zm5.13 1.165v-7.551h1.31v7.551h-1.31Zm8.023-7.551h1.31v4.985l5.167-5.567v8.133h-1.31v-5.04l-5.167 5.567v-8.078Zm12.328 7.551 2.348-3.111c-.073 0-.176-.013-.31-.037a3.488 3.488 0 0 1-.546-.182 1.762 1.762 0 0 1-.6-.382c-.4-.376-.6-.879-.6-1.51 0-.716.224-1.28.673-1.692.449-.425 1.188-.637 2.22-.637h2.638v7.551h-1.31v-3.039h-.801l-2.147 3.039h-1.565Zm4.513-4.13v-2.257h-1.219c-.57 0-.965.067-1.183.201-.315.206-.473.515-.473.928 0 .412.158.715.473.909.23.146.619.219 1.164.219h1.238Zm13.948-2.875v1.565c-.594-.752-1.383-1.128-2.365-1.128-.74 0-1.371.254-1.893.764-.521.497-.782 1.182-.782 2.056 0 .873.261 1.558.782 2.056a2.623 2.623 0 0 0 1.874.746c.971 0 1.783-.395 2.438-1.183v1.565a3.981 3.981 0 0 1-2.401.782c-1.177 0-2.147-.37-2.911-1.11-.752-.752-1.128-1.698-1.128-2.838 0-1.152.382-2.105 1.146-2.857.764-.764 1.728-1.146 2.893-1.146.873 0 1.655.243 2.347.728Zm7.621 5.95v5.24h-1.31v-11.736h1.31v1.055c.667-.825 1.529-1.237 2.584-1.237 1.128 0 2.019.4 2.674 1.201.668.788 1.001 1.722 1.001 2.802 0 1.092-.327 2.026-.982 2.802-.655.764-1.535 1.146-2.639 1.146-1.103 0-1.983-.424-2.638-1.273Zm2.456.109c.74 0 1.335-.267 1.784-.801.448-.546.673-1.207.673-1.983 0-.873-.249-1.565-.746-2.074-.498-.51-1.074-.764-1.729-.764s-1.237.254-1.746.764c-.51.509-.765 1.194-.765 2.056 0 .788.231 1.455.692 2.001.473.534 1.085.801 1.837.801Zm11.597-5.532v-1.073h1.31v7.551h-1.31v-1.055c-.655.849-1.516 1.273-2.583 1.273-1.019 0-1.887-.352-2.602-1.055-.716-.704-1.074-1.686-1.074-2.948 0-1.237.352-2.201 1.056-2.893.715-.703 1.589-1.055 2.62-1.055 1.091 0 1.952.419 2.583 1.255Zm-2.438-.09c-.691 0-1.28.248-1.765.746-.473.485-.709 1.164-.709 2.037 0 .837.218 1.523.655 2.056.448.522 1.055.783 1.819.783s1.371-.273 1.82-.819c.461-.546.691-1.213.691-2.001 0-.898-.255-1.59-.764-2.075-.51-.485-1.092-.727-1.747-.727Zm6.775-.983h5.313v6.35h1.128v3.202h-1.201v-2.001h-5.749v2.001h-1.201v-3.202c.631-.012 1.098-.34 1.401-.983.206-.424.309-1.091.309-2.001v-3.366Zm4.003 6.35v-5.149h-2.693v2.838c0 1.007-.303 1.777-.909 2.311h3.602Zm10.207.291c-.752.752-1.705 1.128-2.857 1.128-1.152 0-2.111-.376-2.875-1.128-.752-.752-1.128-1.698-1.128-2.838 0-1.153.376-2.105 1.128-2.857.764-.752 1.723-1.128 2.875-1.128s2.105.376 2.857 1.128c.764.752 1.146 1.704 1.146 2.857 0 1.14-.382 2.086-1.146 2.838Zm-.983-4.912c-.509-.498-1.134-.746-1.874-.746-.74 0-1.371.254-1.892.764-.51.497-.764 1.182-.764 2.056 0 .873.26 1.558.782 2.056a2.622 2.622 0 0 0 1.874.746 2.62 2.62 0 0 0 1.874-.746c.522-.498.783-1.183.783-2.056 0-.886-.261-1.577-.783-2.074Zm10.051-1.183v1.565c-.594-.752-1.383-1.128-2.365-1.128-.74 0-1.371.254-1.892.764-.522.497-.783 1.182-.783 2.056 0 .873.261 1.558.783 2.056a2.62 2.62 0 0 0 1.874.746c.97 0 1.783-.395 2.438-1.183v1.565a3.984 3.984 0 0 1-2.402.782c-1.177 0-2.147-.37-2.911-1.11-.752-.752-1.128-1.698-1.128-2.838 0-1.152.382-2.105 1.146-2.857.764-.764 1.729-1.146 2.893-1.146.873 0 1.656.243 2.347.728Zm7.014.655h-2.365v6.35h-1.311v-6.35h-2.365v-1.201h6.041v1.201Zm1.376 6.35v-7.551h1.31v2.893h1.347c1.043 0 1.807.249 2.292.746.389.388.583.916.583 1.583 0 .703-.225 1.267-.674 1.692-.448.425-1.188.637-2.219.637h-2.639Zm1.31-1.165h1.219c.546 0 .934-.066 1.165-.2.327-.218.491-.54.491-.964 0-.437-.158-.752-.473-.946-.218-.146-.606-.219-1.164-.219h-1.238v2.329Zm7.285-3.293h1.365c.121-.849.461-1.565 1.019-2.147.716-.752 1.668-1.128 2.857-1.128 1.164 0 2.122.376 2.874 1.128.752.752 1.128 1.704 1.128 2.857 0 1.14-.382 2.086-1.146 2.838-.752.752-1.704 1.128-2.856 1.128-1.323 0-2.36-.473-3.112-1.419a3.809 3.809 0 0 1-.837-2.056h-1.292v3.257h-1.31v-7.551h1.31v3.093Zm5.241-2.11c-.728 0-1.347.254-1.856.764-.498.497-.746 1.182-.746 2.056 0 .885.254 1.577.764 2.074a2.57 2.57 0 0 0 1.838.728c.727 0 1.352-.249 1.874-.746.521-.498.782-1.183.782-2.056 0-.874-.261-1.559-.782-2.056-.51-.51-1.135-.764-1.874-.764Zm10.258-.983h6.077v7.551h-1.31v-6.35h-3.457v6.35h-1.31v-7.551Zm14.933 6.641c-.752.752-1.704 1.128-2.856 1.128-1.153 0-2.111-.376-2.875-1.128-.752-.752-1.128-1.698-1.128-2.838 0-1.153.376-2.105 1.128-2.857.764-.752 1.722-1.128 2.875-1.128 1.152 0 2.104.376 2.856 1.128.764.752 1.146 1.704 1.146 2.857 0 1.14-.382 2.086-1.146 2.838Zm-.982-4.912c-.51-.498-1.135-.746-1.874-.746-.74 0-1.371.254-1.893.764-.509.497-.764 1.182-.764 2.056 0 .873.261 1.558.783 2.056a2.62 2.62 0 0 0 1.874.746c.727 0 1.352-.249 1.874-.746.521-.498.782-1.183.782-2.056 0-.886-.261-1.577-.782-2.074Zm3.264 5.822 1.819-8.133 3.13 6.15 3.057-6.15 1.819 8.133h-1.346l-1.001-4.676-2.565 5.203-2.602-5.203-.965 4.676h-1.346Zm17.814-.91c-.752.752-1.704 1.128-2.856 1.128-1.153 0-2.111-.376-2.875-1.128-.752-.752-1.128-1.698-1.128-2.838 0-1.153.376-2.105 1.128-2.857.764-.752 1.722-1.128 2.875-1.128 1.152 0 2.104.376 2.856 1.128.764.752 1.146 1.704 1.146 2.857 0 1.14-.382 2.086-1.146 2.838Zm-.982-4.912c-.51-.498-1.135-.746-1.874-.746-.74 0-1.371.254-1.893.764-.509.497-.764 1.182-.764 2.056 0 .873.261 1.558.782 2.056a2.624 2.624 0 0 0 1.875.746c.727 0 1.352-.249 1.874-.746.521-.498.782-1.183.782-2.056 0-.886-.261-1.577-.782-2.074Zm4.137 5.822v-7.551h4.476v1.201h-3.166v6.35h-1.31Zm6.166 4.185 2.401-4.895-3.475-6.841h1.492l2.675 5.404 2.456-5.404h1.456l-5.55 11.736h-1.455Zm-219.43 12.465h-2.365v6.35h-1.31v-6.35h-2.365v-1.201h6.04v1.201Zm6.803 3.821 1.092.6a4.315 4.315 0 0 1-.928 1.219c-.691.619-1.528.928-2.51.928-1.02 0-1.899-.327-2.639-.982-.728-.667-1.092-1.656-1.092-2.966 0-1.152.328-2.105.983-2.857.667-.764 1.559-1.146 2.674-1.146 1.262 0 2.214.461 2.857 1.383.51.728.746 1.674.71 2.838H92.41c.012.764.249 1.383.71 1.856.46.473 1.024.71 1.691.71a2.34 2.34 0 0 0 1.547-.546c.34-.291.6-.637.782-1.037Zm-4.64-2.074h4.44c-.109-.595-.37-1.068-.782-1.42-.4-.364-.88-.545-1.438-.545-.545 0-1.03.188-1.455.564-.412.363-.667.83-.764 1.401Zm13.619-8.134h1.455a2.59 2.59 0 0 1-.691 1.147c-.316.303-.607.509-.874.618-.254.11-.558.207-.909.292a9.307 9.307 0 0 0-.437.109c-.23.048-.406.091-.528.127-.121.036-.279.085-.473.146-.194.06-.37.133-.527.218a3.781 3.781 0 0 0-.437.273c-.461.352-.837.843-1.128 1.474a5.202 5.202 0 0 0-.455 1.983h.036c.546-.922 1.462-1.383 2.748-1.383 1.128 0 2.062.382 2.802 1.146.752.765 1.128 1.711 1.128 2.839 0 1.14-.382 2.086-1.146 2.838-.765.752-1.759 1.128-2.984 1.128-1.056 0-1.923-.315-2.602-.946-.849-.776-1.274-2.074-1.274-3.894 0-3.166.716-5.24 2.147-6.222.109-.073.225-.14.346-.2.121-.073.249-.134.382-.182a9.51 9.51 0 0 1 .364-.146c.097-.048.23-.091.4-.127a6.71 6.71 0 0 1 .364-.091c.073-.024.206-.055.4-.091l.382-.091c.486-.109.837-.237 1.056-.382.218-.158.37-.352.455-.583Zm-.419 6.915c-.509-.498-1.134-.746-1.874-.746-.74 0-1.371.254-1.892.764-.51.497-.764 1.182-.764 2.056 0 .873.26 1.558.782 2.056a2.622 2.622 0 0 0 1.874.746c.728 0 1.352-.249 1.874-.746.522-.498.782-1.183.782-2.056 0-.886-.26-1.577-.782-2.074Zm9.742 3.293 1.091.6a4.317 4.317 0 0 1-.927 1.219c-.692.619-1.529.928-2.511.928-1.019 0-1.899-.327-2.639-.982-.727-.667-1.091-1.656-1.091-2.966 0-1.152.327-2.105.982-2.857.667-.764 1.559-1.146 2.675-1.146 1.261 0 2.214.461 2.856 1.383.51.728.746 1.674.71 2.838h-5.877c.012.764.249 1.383.71 1.856.461.473 1.025.71 1.692.71.594 0 1.11-.182 1.546-.546a2.97 2.97 0 0 0 .783-1.037Zm-4.64-2.074h4.44c-.11-.595-.37-1.068-.783-1.42a2.06 2.06 0 0 0-1.437-.545c-.546 0-1.031.188-1.456.564-.412.363-.667.83-.764 1.401Zm12.042 4.603v-7.551h1.31v3.093h3.566v-3.093h1.31v7.551h-1.31v-3.257h-3.566v3.257h-1.31Zm14.439-6.478v-1.073h1.31v7.551h-1.31v-1.055c-.655.849-1.516 1.273-2.583 1.273-1.019 0-1.887-.352-2.602-1.055-.716-.704-1.074-1.686-1.074-2.948 0-1.237.352-2.201 1.056-2.893.715-.703 1.589-1.055 2.62-1.055 1.091 0 1.953.419 2.583 1.255Zm-2.438-.09c-.691 0-1.279.248-1.765.746-.473.485-.709 1.164-.709 2.037 0 .837.218 1.523.655 2.056.449.522 1.055.783 1.819.783s1.371-.273 1.82-.819c.461-.546.691-1.213.691-2.001 0-.898-.255-1.59-.764-2.075-.51-.485-1.092-.727-1.747-.727Zm10.476 6.568v-7.551h1.31v3.093h3.566v-3.093h1.31v7.551h-1.31v-3.257h-3.566v3.257h-1.31Zm8.653-7.551h1.31v4.985l5.168-5.567v8.133h-1.31v-5.04l-5.168 5.567v-8.078Zm7.864 7.551 3.22-4.039-2.747-3.512h1.601l1.947 2.565 1.983-2.565h1.601l-2.765 3.53 3.129 4.021h-1.601l-2.383-3.075-2.384 3.075h-1.601Zm19.987-.91c-.752.752-1.704 1.128-2.857 1.128-1.152 0-2.11-.376-2.875-1.128-.752-.752-1.128-1.698-1.128-2.838 0-1.153.376-2.105 1.128-2.857.765-.752 1.723-1.128 2.875-1.128 1.153 0 2.105.376 2.857 1.128.764.752 1.146 1.704 1.146 2.857 0 1.14-.382 2.086-1.146 2.838Zm-.983-4.912c-.509-.498-1.134-.746-1.874-.746-.74 0-1.37.254-1.892.764-.509.497-.764 1.182-.764 2.056 0 .873.261 1.558.782 2.056a2.622 2.622 0 0 0 1.874.746 2.62 2.62 0 0 0 1.874-.746c.522-.498.783-1.183.783-2.056 0-.886-.261-1.577-.783-2.074Zm8.909-.528h-2.365v6.35h-1.31v-6.35h-2.365v-1.201h6.04v1.201Zm1.377-1.201h2.856c.692 0 1.22.146 1.583.437.437.351.655.825.655 1.419 0 .655-.273 1.158-.818 1.51.376.097.691.267.946.509.4.389.6.874.6 1.456 0 .728-.261 1.298-.782 1.71-.449.34-1.043.51-1.783.51h-3.257v-7.551Zm1.31 3.075h1.383c.351 0 .63-.073.837-.218.242-.182.364-.443.364-.783a.867.867 0 0 0-.364-.728c-.182-.121-.534-.182-1.056-.182h-1.164v1.911Zm0 3.311h1.619c.558 0 .952-.085 1.183-.254.291-.219.437-.498.437-.837 0-.364-.128-.649-.383-.855-.23-.182-.624-.273-1.182-.273h-1.674v2.219Zm12.112-1.364 1.092.6a4.32 4.32 0 0 1-.928 1.219c-.692.619-1.529.928-2.511.928-1.019 0-1.899-.327-2.638-.982-.728-.667-1.092-1.656-1.092-2.966 0-1.152.327-2.105.982-2.857.668-.764 1.559-1.146 2.675-1.146 1.262 0 2.214.461 2.857 1.383.509.728.746 1.674.709 2.838h-5.877c.012.764.249 1.383.71 1.856.461.473 1.025.71 1.692.71.594 0 1.11-.182 1.547-.546.339-.291.6-.637.782-1.037Zm-4.64-2.074h4.44c-.109-.595-.37-1.068-.783-1.42a2.06 2.06 0 0 0-1.437-.545c-.546 0-1.031.188-1.456.564-.412.363-.667.83-.764 1.401Zm12.745-1.747h-2.366v6.35h-1.31v-6.35h-2.365v-1.201h6.041v1.201Zm1.376-1.201h1.31v4.985l5.168-5.567v8.133h-1.31v-5.04l-5.168 5.567v-8.078Zm13.904 1.201h-2.365v6.35h-1.31v-6.35h-2.365v-1.201h6.04v1.201Zm1.377 6.35v-7.551h1.31v2.893h1.346c1.044 0 1.808.249 2.293.746.388.388.582.916.582 1.583 0 .703-.224 1.267-.673 1.692-.449.425-1.189.637-2.22.637h-2.638Zm1.31-1.165h1.219c.546 0 .934-.066 1.165-.2.327-.218.491-.54.491-.964 0-.437-.158-.752-.473-.946-.219-.146-.607-.219-1.165-.219h-1.237v2.329Zm6.175 1.074a.872.872 0 0 1-.273-.637c0-.243.091-.455.273-.637a.872.872 0 0 1 .637-.273c.243 0 .455.091.637.273a.872.872 0 0 1 .273.637.872.872 0 0 1-.273.637.872.872 0 0 1-.637.273.872.872 0 0 1-.637-.273Zm4.14 0a.872.872 0 0 1-.273-.637c0-.243.091-.455.273-.637a.872.872 0 0 1 .637-.273c.243 0 .455.091.637.273a.872.872 0 0 1 .273.637.872.872 0 0 1-.273.637.872.872 0 0 1-.637.273.872.872 0 0 1-.637-.273Zm4.14 0a.872.872 0 0 1-.273-.637c0-.243.091-.455.273-.637a.872.872 0 0 1 .637-.273c.243 0 .455.091.637.273a.872.872 0 0 1 .273.637.872.872 0 0 1-.273.637.872.872 0 0 1-.637.273.872.872 0 0 1-.637-.273Z" fill="#0C051E"/></g><defs><linearGradient id="a" x1="20.592" y1="36.119" x2="31.991" y2="55.689" gradientUnits="userSpaceOnUse"><stop stop-color="#EE9AE5"/><stop offset="1" stop-color="#736EFE"/></linearGradient><linearGradient id="b" x1="66.791" y1="49.998" x2="54.792" y2="29.623" gradientUnits="userSpaceOnUse"><stop stop-color="#5EFCE8"/><stop offset="1" stop-color="#736EFE"/></linearGradient><linearGradient id="c" x1="215.495" y1="18.195" x2="215.495" y2="171.713" gradientUnits="userSpaceOnUse"><stop stop-color="#D9D9D9"/><stop offset="1" stop-color="#D9D9D9" stop-opacity="0"/></linearGradient></defs></svg>