<svg width="366" height="193" viewBox="0 0 366 193" fill="none" xmlns="http://www.w3.org/2000/svg">
<path opacity="0.9" d="M365.032 22.7435V160.331C365.032 172.892 354.85 183.074 342.289 183.074H25.9075C24.5186 183.074 23.1414 183.329 21.8441 183.825L7.71756 189.23C3.99478 190.654 0 187.905 0 183.919V22.7435C0 10.1826 10.1826 0 22.7434 0H342.289C354.85 0 365.032 10.1826 365.032 22.7435Z" fill="white"/>
<rect x="18.1953" y="18.1948" width="50.0356" height="50.0356" rx="25.0178" fill="#F5F4FF"/>
<path fill-rule="evenodd" clip-rule="evenodd" d="M31.8414 35.342C31.8414 32.1524 34.4493 29.5667 37.6664 29.5667H49.3163C52.5332 29.5667 55.1413 32.1524 55.1413 35.342C55.1413 35.3853 55.1407 35.4285 55.1397 35.4716L55.1413 35.4704V41.4651C55.1413 43.0847 53.5844 43.6718 52.3751 42.583C51.4149 41.7184 50.0666 41.1174 46.9863 41.1174H37.6664C34.4493 41.1174 31.8414 38.5317 31.8414 35.342ZM38.5725 34.3153C37.9291 34.3153 37.4075 34.8324 37.4075 35.4704C37.4075 36.1083 37.9291 36.6254 38.5725 36.6254C39.2159 36.6254 39.7375 36.1083 39.7375 35.4704C39.7375 34.8324 39.2159 34.3153 38.5725 34.3153ZM42.3263 35.4704C42.3263 34.8324 42.8479 34.3153 43.4913 34.3153C44.1347 34.3153 44.6563 34.8324 44.6563 35.4704C44.6563 36.1083 44.1347 36.6254 43.4913 36.6254C42.8479 36.6254 42.3263 36.1083 42.3263 35.4704ZM48.4102 34.3153C47.7668 34.3153 47.2452 34.8324 47.2452 35.4704C47.2452 36.1083 47.7668 36.6254 48.4102 36.6254C49.0536 36.6254 49.5752 36.1083 49.5752 35.4704C49.5752 34.8324 49.0536 34.3153 48.4102 34.3153Z" fill="url(#paint0_linear_354_100)"/>
<path fill-rule="evenodd" clip-rule="evenodd" d="M55.1412 51.0834C55.1412 54.2731 52.5333 56.8588 49.3163 56.8588H37.6663C34.4493 56.8588 31.8414 54.2731 31.8414 51.0834C31.8414 51.0402 31.8418 50.9969 31.8428 50.9539L31.8414 50.955V44.7677C31.8414 43.1843 33.302 42.6359 34.5246 43.6546C35.6173 44.5651 37.1716 45.308 39.9963 45.308H49.3163C52.5333 45.308 55.1412 47.8937 55.1412 51.0834ZM38.5725 49.7359C37.9291 49.7359 37.4075 50.253 37.4075 50.8908C37.4075 51.5289 37.9291 52.046 38.5725 52.046C39.2159 52.046 39.7375 51.5289 39.7375 50.8908C39.7375 50.253 39.2159 49.7359 38.5725 49.7359ZM42.3264 50.8908C42.3264 50.253 42.848 49.7359 43.4914 49.7359C44.1348 49.7359 44.6564 50.253 44.6564 50.8908C44.6564 51.5289 44.1348 52.046 43.4914 52.046C42.848 52.046 42.3264 51.5289 42.3264 50.8908ZM48.4102 49.7359C47.7668 49.7359 47.2452 50.253 47.2452 50.8908C47.2452 51.5289 47.7668 52.046 48.4102 52.046C49.0536 52.046 49.5752 51.5289 49.5752 50.8908C49.5752 50.253 49.0536 49.7359 48.4102 49.7359Z" fill="url(#paint1_linear_354_100)"/>
<mask id="mask0_354_100" style="mask-type:alpha" maskUnits="userSpaceOnUse" x="84" y="18" width="263" height="154">
<rect x="84.1514" y="18.1948" width="262.687" height="153.518" fill="url(#paint2_linear_354_100)"/>
</mask>
<g mask="url(#mask0_354_100)">
<path d="M85.7161 24.0589H94.6315V36.1948H93.2851V25.3326H87.0625V36.1948H85.7161V24.0589ZM98.7456 35.1395V40.3796H97.4355V28.644H98.7456V29.6993C99.4127 28.8745 100.274 28.4621 101.329 28.4621C102.457 28.4621 103.349 28.8623 104.004 29.6629C104.671 30.4513 105.005 31.3853 105.005 32.4649C105.005 33.5566 104.677 34.4906 104.022 35.2669C103.367 36.0311 102.488 36.4132 101.384 36.4132C100.28 36.4132 99.4006 35.9886 98.7456 35.1395ZM101.202 35.2487C101.942 35.2487 102.536 34.9818 102.985 34.4481C103.434 33.9023 103.658 33.2412 103.658 32.4649C103.658 31.5915 103.409 30.9001 102.912 30.3907C102.415 29.8812 101.839 29.6265 101.184 29.6265C100.529 29.6265 99.9464 29.8812 99.437 30.3907C98.9275 30.9001 98.6728 31.5855 98.6728 32.4467C98.6728 33.2351 98.9032 33.9023 99.3642 34.4481C99.8372 34.9818 100.45 35.2487 101.202 35.2487ZM107.013 28.644H108.323V33.6294L113.49 28.0618V36.1948H112.18V31.1549L107.013 36.7225V28.644ZM115.968 28.644H118.824C119.516 28.644 120.044 28.7896 120.407 29.0807C120.844 29.4324 121.062 29.9055 121.062 30.4999C121.062 31.1549 120.79 31.6583 120.244 32.01C120.62 32.1071 120.935 32.2769 121.19 32.5195C121.59 32.9076 121.79 33.3928 121.79 33.9751C121.79 34.7029 121.529 35.273 121.008 35.6854C120.559 36.025 119.965 36.1948 119.225 36.1948H115.968V28.644ZM117.278 31.7189H118.661C119.012 31.7189 119.291 31.6461 119.498 31.5006C119.74 31.3186 119.862 31.0578 119.862 30.7182C119.862 30.415 119.74 30.1724 119.498 29.9904C119.316 29.8691 118.964 29.8085 118.442 29.8085H117.278V31.7189ZM117.278 35.0304H118.897C119.455 35.0304 119.849 34.9455 120.08 34.7756C120.371 34.5573 120.517 34.2783 120.517 33.9387C120.517 33.5748 120.389 33.2897 120.134 33.0835C119.904 32.9016 119.51 32.8106 118.952 32.8106H117.278V35.0304ZM129.39 33.6658L130.482 34.2662C130.227 34.7514 129.918 35.1577 129.554 35.4852C128.862 36.1039 128.025 36.4132 127.043 36.4132C126.024 36.4132 125.144 36.0857 124.405 35.4306C123.677 34.7635 123.313 33.7749 123.313 32.4649C123.313 31.3126 123.64 30.3604 124.295 29.6083C124.963 28.8441 125.854 28.4621 126.97 28.4621C128.232 28.4621 129.184 28.923 129.827 29.8449C130.336 30.5726 130.573 31.5188 130.536 32.6832H124.659C124.671 33.4474 124.908 34.066 125.369 34.5391C125.83 35.0122 126.394 35.2487 127.061 35.2487C127.655 35.2487 128.171 35.0667 128.608 34.7029C128.947 34.4117 129.208 34.066 129.39 33.6658ZM124.75 31.5915H129.19C129.081 30.9972 128.82 30.5241 128.407 30.1724C128.007 29.8085 127.528 29.6265 126.97 29.6265C126.424 29.6265 125.939 29.8145 125.514 30.1906C125.102 30.5544 124.847 31.0214 124.75 31.5915ZM137.495 29.8449H135.129V36.1948H133.819V29.8449H131.454V28.644H137.495V29.8449ZM138.248 38.6147L139.74 34.4117L140.941 34.8484L139.104 38.9604L138.248 38.6147ZM148.288 36.1948V28.644H149.598V31.7371H153.165V28.644H154.475V36.1948H153.165V32.938H149.598V36.1948H148.288ZM162.728 29.7175V28.644H164.038V36.1948H162.728V35.1395C162.073 35.9886 161.211 36.4132 160.144 36.4132C159.125 36.4132 158.258 36.0614 157.542 35.3579C156.826 34.6543 156.469 33.6718 156.469 32.4103C156.469 31.1731 156.82 30.2087 157.524 29.5173C158.24 28.8138 159.113 28.4621 160.144 28.4621C161.236 28.4621 162.097 28.8805 162.728 29.7175ZM160.289 29.6265C159.598 29.6265 159.01 29.8752 158.525 30.3725C158.052 30.8577 157.815 31.537 157.815 32.4103C157.815 33.2473 158.033 33.9326 158.47 34.4663C158.919 34.9879 159.525 35.2487 160.289 35.2487C161.054 35.2487 161.66 34.9758 162.109 34.4299C162.57 33.8841 162.8 33.2169 162.8 32.4285C162.8 31.5309 162.546 30.8395 162.036 30.3543C161.527 29.8691 160.944 29.6265 160.289 29.6265ZM166.519 36.1948V28.644H167.829V34.994H170.74V28.644H172.05V34.994H174.961V28.644H176.271V36.1948H166.519ZM182.99 36.1948V28.644H184.3V31.7371H187.866V28.644H189.176V36.1948H187.866V32.938H184.3V36.1948H182.99ZM198.03 35.2851C197.277 36.0371 196.325 36.4132 195.173 36.4132C194.021 36.4132 193.062 36.0371 192.298 35.2851C191.546 34.533 191.17 33.5869 191.17 32.4467C191.17 31.2944 191.546 30.3422 192.298 29.5901C193.062 28.8381 194.021 28.4621 195.173 28.4621C196.325 28.4621 197.277 28.8381 198.03 29.5901C198.794 30.3422 199.176 31.2944 199.176 32.4467C199.176 33.5869 198.794 34.533 198.03 35.2851ZM197.047 30.3725C196.538 29.8752 195.913 29.6265 195.173 29.6265C194.433 29.6265 193.802 29.8812 193.281 30.3907C192.771 30.888 192.517 31.5734 192.517 32.4467C192.517 33.3201 192.777 34.0054 193.299 34.5027C193.82 35 194.445 35.2487 195.173 35.2487C195.901 35.2487 196.525 35 197.047 34.5027C197.569 34.0054 197.829 33.3201 197.829 32.4467C197.829 31.5612 197.569 30.8698 197.047 30.3725ZM201.185 28.644H204.041C204.733 28.644 205.26 28.7896 205.624 29.0807C206.061 29.4324 206.279 29.9055 206.279 30.4999C206.279 31.1549 206.006 31.6583 205.461 32.01C205.837 32.1071 206.152 32.2769 206.407 32.5195C206.807 32.9076 207.007 33.3928 207.007 33.9751C207.007 34.7029 206.746 35.273 206.225 35.6854C205.776 36.025 205.182 36.1948 204.442 36.1948H201.185V28.644ZM202.495 31.7189H203.878C204.229 31.7189 204.508 31.6461 204.715 31.5006C204.957 31.3186 205.078 31.0578 205.078 30.7182C205.078 30.415 204.957 30.1724 204.715 29.9904C204.533 29.8691 204.181 29.8085 203.659 29.8085H202.495V31.7189ZM202.495 35.0304H204.114C204.672 35.0304 205.066 34.9455 205.297 34.7756C205.588 34.5573 205.733 34.2783 205.733 33.9387C205.733 33.5748 205.606 33.2897 205.351 33.0835C205.121 32.9016 204.727 32.8106 204.169 32.8106H202.495V35.0304ZM209.003 36.1948V28.644H210.313V31.537H211.659C212.702 31.537 213.467 31.7856 213.952 32.283C214.34 32.6711 214.534 33.1988 214.534 33.8659C214.534 34.5694 214.31 35.1335 213.861 35.558C213.412 35.9826 212.672 36.1948 211.641 36.1948H209.003ZM210.313 35.0304H211.532C212.078 35.0304 212.466 34.9636 212.696 34.8302C213.024 34.6119 213.188 34.2904 213.188 33.8659C213.188 33.4292 213.03 33.1138 212.715 32.9198C212.496 32.7742 212.108 32.7014 211.55 32.7014H210.313V35.0304ZM215.444 36.1948V28.644H216.754V36.1948H215.444ZM219.22 28.644H220.53V33.6294L225.697 28.0618V36.1948H224.387V31.1549L219.22 36.7225V28.644ZM219.875 25.3871L220.966 24.9687C221.185 25.6964 221.7 26.0603 222.513 26.0603C223.326 26.0603 223.841 25.6964 224.059 24.9687L225.151 25.3871C224.957 25.933 224.623 26.3636 224.15 26.679C223.689 26.9943 223.144 27.152 222.513 27.152C221.882 27.152 221.33 26.9943 220.857 26.679C220.396 26.3636 220.069 25.933 219.875 25.3871ZM238.335 29.1898V30.7546C237.74 30.0025 236.952 29.6265 235.969 29.6265C235.23 29.6265 234.599 29.8812 234.077 30.3907C233.556 30.888 233.295 31.5734 233.295 32.4467C233.295 33.3201 233.556 34.0054 234.077 34.5027C234.599 35 235.223 35.2487 235.951 35.2487C236.922 35.2487 237.734 34.8545 238.389 34.066V35.6308C237.674 36.1524 236.873 36.4132 235.988 36.4132C234.811 36.4132 233.841 36.0432 233.076 35.3033C232.324 34.5512 231.948 33.6051 231.948 32.4649C231.948 31.3126 232.33 30.3604 233.095 29.6083C233.859 28.8441 234.823 28.4621 235.988 28.4621C236.861 28.4621 237.643 28.7046 238.335 29.1898ZM246.59 35.2851C245.838 36.0371 244.886 36.4132 243.734 36.4132C242.581 36.4132 241.623 36.0371 240.859 35.2851C240.107 34.533 239.731 33.5869 239.731 32.4467C239.731 31.2944 240.107 30.3422 240.859 29.5901C241.623 28.8381 242.581 28.4621 243.734 28.4621C244.886 28.4621 245.838 28.8381 246.59 29.5901C247.355 30.3422 247.737 31.2944 247.737 32.4467C247.737 33.5869 247.355 34.533 246.59 35.2851ZM245.608 30.3725C245.098 29.8752 244.474 29.6265 243.734 29.6265C242.994 29.6265 242.363 29.8812 241.842 30.3907C241.332 30.888 241.077 31.5734 241.077 32.4467C241.077 33.3201 241.338 34.0054 241.86 34.5027C242.381 35 243.006 35.2487 243.734 35.2487C244.462 35.2487 245.086 35 245.608 34.5027C246.129 34.0054 246.39 33.3201 246.39 32.4467C246.39 31.5612 246.129 30.8698 245.608 30.3725ZM254.517 29.8449H252.152V36.1948H250.842V29.8449H248.476V28.644H254.517V29.8449ZM257.203 35.1395V40.3796H255.893V28.644H257.203V29.6993C257.871 28.8745 258.732 28.4621 259.787 28.4621C260.915 28.4621 261.807 28.8623 262.462 29.6629C263.129 30.4513 263.462 31.3853 263.462 32.4649C263.462 33.5566 263.135 34.4906 262.48 35.2669C261.825 36.0311 260.945 36.4132 259.842 36.4132C258.738 36.4132 257.858 35.9886 257.203 35.1395ZM259.66 35.2487C260.4 35.2487 260.994 34.9818 261.443 34.4481C261.892 33.9023 262.116 33.2412 262.116 32.4649C262.116 31.5915 261.867 30.9001 261.37 30.3907C260.873 29.8812 260.297 29.6265 259.642 29.6265C258.987 29.6265 258.404 29.8812 257.895 30.3907C257.385 30.9001 257.131 31.5855 257.131 32.4467C257.131 33.2351 257.361 33.9023 257.822 34.4481C258.295 34.9818 258.908 35.2487 259.66 35.2487ZM265.452 40.3796L267.854 35.4852L264.379 28.644H265.871L268.545 34.0478L271.002 28.644H272.457L266.908 40.3796H265.452ZM274.385 28.644H279.698V34.994H280.826V38.1962H279.625V36.1948H273.876V38.1962H272.675V34.994C273.306 34.9818 273.773 34.6543 274.076 34.0115C274.282 33.5869 274.385 32.9198 274.385 32.01V28.644ZM278.388 34.994V29.8449H275.695V32.6832C275.695 33.69 275.392 34.4603 274.786 34.994H278.388ZM282.208 36.1948V28.644H283.518V31.7371H287.084V28.644H288.395V36.1948H287.084V32.938H283.518V36.1948H282.208ZM290.861 28.644H292.171V33.6294L297.339 28.0618V36.1948H296.029V31.1549L290.861 36.7225V28.644ZM299.817 28.644H301.127V31.7371L304.183 28.644H305.785L302.51 32.01L306.185 36.1948H304.475L301.527 32.8834L301.127 33.2655V36.1948H299.817V28.644ZM309.458 33.7385H308.148V24.0589H309.458V33.7385ZM308.166 36.1039C307.984 35.9219 307.893 35.7096 307.893 35.467C307.893 35.2244 307.984 35.0122 308.166 34.8302C308.348 34.6483 308.56 34.5573 308.803 34.5573C309.045 34.5573 309.258 34.6483 309.439 34.8302C309.621 35.0122 309.712 35.2244 309.712 35.467C309.712 35.7096 309.621 35.9219 309.439 36.1039C309.258 36.2858 309.045 36.3768 308.803 36.3768C308.56 36.3768 308.348 36.2858 308.166 36.1039ZM84.6972 81.1948L88.2634 75.8092C87.4386 75.7243 86.7593 75.4695 86.2256 75.045C85.522 74.4749 85.1703 73.6501 85.1703 72.5705C85.1703 71.5759 85.4493 70.7692 86.0072 70.1506C86.6622 69.4228 87.669 69.0589 89.0276 69.0589H91.8659V81.1948H90.5195V75.882H89.7917L86.3347 81.1948H84.6972ZM90.5195 70.3326H89.2095C88.2391 70.3326 87.5477 70.5448 87.1353 70.9694C86.7472 71.3818 86.5531 71.9034 86.5531 72.5341C86.5531 73.2498 86.7835 73.7956 87.2445 74.1716C87.6812 74.5113 88.2998 74.6811 89.1003 74.6811H90.5195V70.3326ZM103.859 74.8449H101.494V81.1948H100.184V74.8449H97.8186V73.644H103.859V74.8449ZM105.236 73.644H108.092C108.784 73.644 109.311 73.7896 109.675 74.0807C110.112 74.4324 110.33 74.9055 110.33 75.4999C110.33 76.1549 110.057 76.6583 109.512 77.01C109.888 77.1071 110.203 77.2769 110.458 77.5195C110.858 77.9076 111.058 78.3928 111.058 78.9751C111.058 79.7029 110.797 80.273 110.276 80.6854C109.827 81.025 109.233 81.1948 108.493 81.1948H105.236V73.644ZM106.546 76.7189H107.929C108.28 76.7189 108.559 76.6461 108.766 76.5006C109.008 76.3186 109.13 76.0578 109.13 75.7182C109.13 75.415 109.008 75.1724 108.766 74.9904C108.584 74.8691 108.232 74.8085 107.71 74.8085H106.546V76.7189ZM106.546 80.0304H108.165C108.723 80.0304 109.117 79.9455 109.348 79.7756C109.639 79.5573 109.785 79.2783 109.785 78.9387C109.785 78.5748 109.657 78.2897 109.402 78.0835C109.172 77.9016 108.778 77.8106 108.22 77.8106H106.546V80.0304ZM119.44 80.2851C118.688 81.0371 117.736 81.4132 116.584 81.4132C115.431 81.4132 114.473 81.0371 113.709 80.2851C112.957 79.533 112.581 78.5869 112.581 77.4467C112.581 76.2944 112.957 75.3422 113.709 74.5901C114.473 73.8381 115.431 73.4621 116.584 73.4621C117.736 73.4621 118.688 73.8381 119.44 74.5901C120.204 75.3422 120.587 76.2944 120.587 77.4467C120.587 78.5869 120.204 79.533 119.44 80.2851ZM118.458 75.3725C117.948 74.8752 117.324 74.6265 116.584 74.6265C115.844 74.6265 115.213 74.8812 114.691 75.3907C114.182 75.888 113.927 76.5734 113.927 77.4467C113.927 78.3201 114.188 79.0054 114.71 79.5027C115.231 80 115.856 80.2487 116.584 80.2487C117.311 80.2487 117.936 80 118.458 79.5027C118.979 79.0054 119.24 78.3201 119.24 77.4467C119.24 76.5612 118.979 75.8698 118.458 75.3725ZM122.595 73.644H123.905V78.6294L129.073 73.0618V81.1948H127.763V76.1549L122.595 81.7225V73.644ZM123.25 70.3871L124.342 69.9687C124.561 70.6964 125.076 71.0603 125.889 71.0603C126.701 71.0603 127.217 70.6964 127.435 69.9687L128.527 70.3871C128.333 70.933 127.999 71.3636 127.526 71.679C127.065 71.9943 126.519 72.152 125.889 72.152C125.258 72.152 124.706 71.9943 124.233 71.679C123.772 71.3636 123.445 70.933 123.25 70.3871ZM135.797 73.644H141.874V81.1948H140.564V74.8449H137.107V81.1948H135.797V73.644ZM149.948 78.6658L151.04 79.2662C150.785 79.7514 150.476 80.1577 150.112 80.4852C149.42 81.1039 148.583 81.4132 147.601 81.4132C146.582 81.4132 145.702 81.0857 144.963 80.4306C144.235 79.7635 143.871 78.7749 143.871 77.4649C143.871 76.3126 144.198 75.3604 144.853 74.6083C145.52 73.8441 146.412 73.4621 147.528 73.4621C148.789 73.4621 149.742 73.923 150.385 74.8449C150.894 75.5726 151.131 76.5188 151.094 77.6832H145.217C145.229 78.4474 145.466 79.066 145.927 79.5391C146.388 80.0122 146.952 80.2487 147.619 80.2487C148.213 80.2487 148.729 80.0667 149.166 79.7029C149.505 79.4117 149.766 79.066 149.948 78.6658ZM145.308 76.5915H149.748C149.639 75.9972 149.378 75.5241 148.965 75.1724C148.565 74.8085 148.086 74.6265 147.528 74.6265C146.982 74.6265 146.497 74.8145 146.072 75.1906C145.66 75.5544 145.405 76.0214 145.308 76.5915ZM154.414 80.1395V85.3796H153.104V73.644H154.414V74.6993C155.081 73.8745 155.942 73.4621 156.997 73.4621C158.125 73.4621 159.017 73.8623 159.672 74.6629C160.339 75.4513 160.673 76.3853 160.673 77.4649C160.673 78.5566 160.345 79.4906 159.69 80.2669C159.035 81.0311 158.156 81.4132 157.052 81.4132C155.948 81.4132 155.069 80.9886 154.414 80.1395ZM156.87 80.2487C157.61 80.2487 158.204 79.9818 158.653 79.4481C159.102 78.9023 159.326 78.2412 159.326 77.4649C159.326 76.5915 159.078 75.9001 158.58 75.3907C158.083 74.8812 157.507 74.6265 156.852 74.6265C156.197 74.6265 155.615 74.8812 155.105 75.3907C154.596 75.9001 154.341 76.5855 154.341 77.4467C154.341 78.2351 154.571 78.9023 155.032 79.4481C155.505 79.9818 156.118 80.2487 156.87 80.2487ZM168.594 74.1898V75.7546C168 75.0025 167.211 74.6265 166.229 74.6265C165.489 74.6265 164.858 74.8812 164.337 75.3907C163.815 75.888 163.554 76.5734 163.554 77.4467C163.554 78.3201 163.815 79.0054 164.337 79.5027C164.858 80 165.483 80.2487 166.211 80.2487C167.181 80.2487 167.994 79.8545 168.649 79.066V80.6308C167.933 81.1524 167.132 81.4132 166.247 81.4132C165.07 81.4132 164.1 81.0432 163.336 80.3033C162.584 79.5512 162.208 78.6051 162.208 77.4649C162.208 76.3126 162.59 75.3604 163.354 74.6083C164.118 73.8441 165.083 73.4621 166.247 73.4621C167.12 73.4621 167.903 73.7046 168.594 74.1898ZM176.85 80.2851C176.098 81.0371 175.145 81.4132 173.993 81.4132C172.841 81.4132 171.883 81.0371 171.118 80.2851C170.366 79.533 169.99 78.5869 169.99 77.4467C169.99 76.2944 170.366 75.3422 171.118 74.5901C171.883 73.8381 172.841 73.4621 173.993 73.4621C175.145 73.4621 176.098 73.8381 176.85 74.5901C177.614 75.3422 177.996 76.2944 177.996 77.4467C177.996 78.5869 177.614 79.533 176.85 80.2851ZM175.867 75.3725C175.358 74.8752 174.733 74.6265 173.993 74.6265C173.253 74.6265 172.622 74.8812 172.101 75.3907C171.591 75.888 171.337 76.5734 171.337 77.4467C171.337 78.3201 171.597 79.0054 172.119 79.5027C172.641 80 173.265 80.2487 173.993 80.2487C174.721 80.2487 175.346 80 175.867 79.5027C176.389 79.0054 176.65 78.3201 176.65 77.4467C176.65 76.5612 176.389 75.8698 175.867 75.3725ZM180.005 81.1948V73.644H181.315V76.7371H184.881V73.644H186.191V81.1948H184.881V77.938H181.315V81.1948H180.005ZM194.444 74.7175V73.644H195.754V81.1948H194.444V80.1395C193.789 80.9886 192.928 81.4132 191.86 81.4132C190.841 81.4132 189.974 81.0614 189.259 80.3579C188.543 79.6543 188.185 78.6718 188.185 77.4103C188.185 76.1731 188.537 75.2087 189.24 74.5173C189.956 73.8138 190.829 73.4621 191.86 73.4621C192.952 73.4621 193.813 73.8805 194.444 74.7175ZM192.006 74.6265C191.315 74.6265 190.726 74.8752 190.241 75.3725C189.768 75.8577 189.531 76.537 189.531 77.4103C189.531 78.2473 189.75 78.9326 190.186 79.4663C190.635 79.9879 191.242 80.2487 192.006 80.2487C192.77 80.2487 193.377 79.9758 193.825 79.4299C194.286 78.8841 194.517 78.2169 194.517 77.4285C194.517 76.5309 194.262 75.8395 193.753 75.3543C193.243 74.8691 192.661 74.6265 192.006 74.6265ZM203.948 73.644V81.1948H202.638V74.8449H199.946V78.2473C199.946 79.2298 199.751 79.9576 199.363 80.4306C198.927 80.9644 198.32 81.2312 197.544 81.2312C197.447 81.2312 197.313 81.2191 197.144 81.1948V79.994C197.265 80.0182 197.362 80.0304 197.435 80.0304C197.859 80.0304 198.175 79.8666 198.381 79.5391C198.551 79.2722 198.635 78.8416 198.635 78.2473V73.644H203.948ZM206.426 81.1948V73.644H207.736V76.537H209.083C210.126 76.537 210.89 76.7856 211.375 77.283C211.764 77.6711 211.958 78.1988 211.958 78.8659C211.958 79.5694 211.733 80.1335 211.284 80.558C210.836 80.9826 210.096 81.1948 209.065 81.1948H206.426ZM207.736 80.0304H208.955C209.501 80.0304 209.889 79.9636 210.12 79.8302C210.447 79.6119 210.611 79.2904 210.611 78.8659C210.611 78.4292 210.454 78.1138 210.138 77.9198C209.92 77.7742 209.532 77.7014 208.974 77.7014H207.736V80.0304ZM213.711 81.1948V73.644H215.021V76.7371H218.588V73.644H219.898V81.1948H218.588V77.938H215.021V81.1948H213.711ZM222.365 81.1948V73.644H223.675V76.537H225.021C226.064 76.537 226.828 76.7856 227.314 77.283C227.702 77.6711 227.896 78.1988 227.896 78.8659C227.896 79.5694 227.671 80.1335 227.223 80.558C226.774 80.9826 226.034 81.1948 225.003 81.1948H222.365ZM223.675 80.0304H224.894C225.44 80.0304 225.828 79.9636 226.058 79.8302C226.386 79.6119 226.549 79.2904 226.549 78.8659C226.549 78.4292 226.392 78.1138 226.076 77.9198C225.858 77.7742 225.47 77.7014 224.912 77.7014H223.675V80.0304ZM228.806 81.1948V73.644H230.116V81.1948H228.806ZM232.581 73.644H233.891V78.6294L239.059 73.0618V81.1948H237.749V76.1549L232.581 81.7225V73.644ZM233.236 70.3871L234.328 69.9687C234.546 70.6964 235.062 71.0603 235.875 71.0603C236.687 71.0603 237.203 70.6964 237.421 69.9687L238.513 70.3871C238.319 70.933 237.985 71.3636 237.512 71.679C237.051 71.9943 236.505 72.152 235.875 72.152C235.244 72.152 234.692 71.9943 234.219 71.679C233.758 71.3636 233.43 70.933 233.236 70.3871ZM245.783 73.644H251.86V81.1948H250.55V74.8449H247.093V81.1948H245.783V73.644ZM260.716 80.2851C259.964 81.0371 259.012 81.4132 257.86 81.4132C256.707 81.4132 255.749 81.0371 254.985 80.2851C254.233 79.533 253.857 78.5869 253.857 77.4467C253.857 76.2944 254.233 75.3422 254.985 74.5901C255.749 73.8381 256.707 73.4621 257.86 73.4621C259.012 73.4621 259.964 73.8381 260.716 74.5901C261.48 75.3422 261.862 76.2944 261.862 77.4467C261.862 78.5869 261.48 79.533 260.716 80.2851ZM259.734 75.3725C259.224 74.8752 258.6 74.6265 257.86 74.6265C257.12 74.6265 256.489 74.8812 255.967 75.3907C255.458 75.888 255.203 76.5734 255.203 77.4467C255.203 78.3201 255.464 79.0054 255.986 79.5027C256.507 80 257.132 80.2487 257.86 80.2487C258.587 80.2487 259.212 80 259.734 79.5027C260.255 79.0054 260.516 78.3201 260.516 77.4467C260.516 76.5612 260.255 75.8698 259.734 75.3725ZM262.998 81.1948L264.818 73.0618L267.947 79.2116L271.004 73.0618L272.823 81.1948H271.477L270.476 76.5188L267.911 81.7225L265.309 76.5188L264.344 81.1948H262.998ZM280.812 80.2851C280.06 81.0371 279.108 81.4132 277.956 81.4132C276.803 81.4132 275.845 81.0371 275.081 80.2851C274.329 79.533 273.953 78.5869 273.953 77.4467C273.953 76.2944 274.329 75.3422 275.081 74.5901C275.845 73.8381 276.803 73.4621 277.956 73.4621C279.108 73.4621 280.06 73.8381 280.812 74.5901C281.576 75.3422 281.958 76.2944 281.958 77.4467C281.958 78.5869 281.576 79.533 280.812 80.2851ZM279.83 75.3725C279.32 74.8752 278.695 74.6265 277.956 74.6265C277.216 74.6265 276.585 74.8812 276.063 75.3907C275.554 75.888 275.299 76.5734 275.299 77.4467C275.299 78.3201 275.56 79.0054 276.081 79.5027C276.603 80 277.228 80.2487 277.956 80.2487C278.683 80.2487 279.308 80 279.83 79.5027C280.351 79.0054 280.612 78.3201 280.612 77.4467C280.612 76.5612 280.351 75.8698 279.83 75.3725ZM283.967 81.1948V73.644H285.277V79.994H288.189V73.644H289.499V79.994H292.41V73.644H293.72V79.994H294.957V83.1962H293.756V81.1948H283.967ZM296.334 81.1948V73.644H297.644V76.7371H301.21V73.644H302.52V81.1948H301.21V77.938H297.644V81.1948H296.334ZM304.987 73.644H306.297V78.6294L311.465 73.0618V81.1948H310.155V76.1549L304.987 81.7225V73.644ZM313.943 73.644H315.253V76.7371L318.309 73.644H319.91L316.635 77.01L320.311 81.1948H318.6L315.653 77.8834L315.253 78.2655V81.1948H313.943V73.644ZM325.865 81.1948V73.644H327.175V76.7371H330.741V73.644H332.051V81.1948H330.741V77.938H327.175V81.1948H325.865ZM340.304 74.7175V73.644H341.614V81.1948H340.304V80.1395C339.649 80.9886 338.788 81.4132 337.72 81.4132C336.702 81.4132 335.834 81.0614 335.119 80.3579C334.403 79.6543 334.045 78.6718 334.045 77.4103C334.045 76.1731 334.397 75.2087 335.1 74.5173C335.816 73.8138 336.689 73.4621 337.72 73.4621C338.812 73.4621 339.673 73.8805 340.304 74.7175ZM337.866 74.6265C337.175 74.6265 336.586 74.8752 336.101 75.3725C335.628 75.8577 335.392 76.537 335.392 77.4103C335.392 78.2473 335.61 78.9326 336.047 79.4663C336.495 79.9879 337.102 80.2487 337.866 80.2487C338.63 80.2487 339.237 79.9758 339.686 79.4299C340.146 78.8841 340.377 78.2169 340.377 77.4285C340.377 76.5309 340.122 75.8395 339.613 75.3543C339.103 74.8691 338.521 74.6265 337.866 74.6265ZM90.3376 97.8449H87.9723V104.195H86.6622V97.8449H84.2969V96.644H90.3376V97.8449ZM91.7141 96.644H94.5707C95.2621 96.644 95.7898 96.7896 96.1537 97.0807C96.5903 97.4324 96.8087 97.9055 96.8087 98.4999C96.8087 99.1549 96.5357 99.6583 95.9899 100.01C96.3659 100.107 96.6813 100.277 96.936 100.519C97.3363 100.908 97.5365 101.393 97.5365 101.975C97.5365 102.703 97.2757 103.273 96.7541 103.685C96.3053 104.025 95.7109 104.195 94.971 104.195H91.7141V96.644ZM93.0242 99.7189H94.407C94.7587 99.7189 95.0377 99.6461 95.2439 99.5006C95.4865 99.3186 95.6078 99.0578 95.6078 98.7182C95.6078 98.415 95.4865 98.1724 95.2439 97.9904C95.062 97.8691 94.7102 97.8085 94.1886 97.8085H93.0242V99.7189ZM93.0242 103.03H94.6435C95.2015 103.03 95.5957 102.945 95.8261 102.776C96.1173 102.557 96.2628 102.278 96.2628 101.939C96.2628 101.575 96.1355 101.29 95.8807 101.084C95.6503 100.902 95.256 100.811 94.6981 100.811H93.0242V103.03ZM105.919 103.285C105.167 104.037 104.214 104.413 103.062 104.413C101.91 104.413 100.951 104.037 100.187 103.285C99.4352 102.533 99.0591 101.587 99.0591 100.447C99.0591 99.2944 99.4352 98.3422 100.187 97.5901C100.951 96.8381 101.91 96.4621 103.062 96.4621C104.214 96.4621 105.167 96.8381 105.919 97.5901C106.683 98.3422 107.065 99.2944 107.065 100.447C107.065 101.587 106.683 102.533 105.919 103.285ZM104.936 98.3725C104.427 97.8752 103.802 97.6265 103.062 97.6265C102.322 97.6265 101.691 97.8812 101.17 98.3907C100.66 98.888 100.406 99.5734 100.406 100.447C100.406 101.32 100.666 102.005 101.188 102.503C101.71 103 102.334 103.249 103.062 103.249C103.79 103.249 104.414 103 104.936 102.503C105.458 102.005 105.718 101.32 105.718 100.447C105.718 99.5612 105.458 98.8698 104.936 98.3725ZM114.678 101.666L115.769 102.266C115.515 102.751 115.205 103.158 114.842 103.485C114.15 104.104 113.313 104.413 112.331 104.413C111.312 104.413 110.432 104.086 109.692 103.431C108.965 102.764 108.601 101.775 108.601 100.465C108.601 99.3126 108.928 98.3604 109.583 97.6083C110.25 96.8441 111.142 96.4621 112.258 96.4621C113.519 96.4621 114.472 96.923 115.114 97.8449C115.624 98.5726 115.86 99.5188 115.824 100.683H109.947C109.959 101.447 110.196 102.066 110.657 102.539C111.118 103.012 111.682 103.249 112.349 103.249C112.943 103.249 113.459 103.067 113.895 102.703C114.235 102.412 114.496 102.066 114.678 101.666ZM110.038 99.5915H114.478C114.368 98.9972 114.108 98.5241 113.695 98.1724C113.295 97.8085 112.816 97.6265 112.258 97.6265C111.712 97.6265 111.227 97.8145 110.802 98.1906C110.39 98.5544 110.135 99.0214 110.038 99.5915ZM116.96 104.195L118.78 96.0618L121.909 102.212L124.966 96.0618L126.785 104.195H125.439L124.438 99.5188L121.873 104.722L119.271 99.5188L118.307 104.195H116.96ZM132.635 104.195V96.644H133.945V99.7371H137.511V96.644H138.821V104.195H137.511V100.938H133.945V104.195H132.635ZM147.674 103.285C146.922 104.037 145.97 104.413 144.818 104.413C143.665 104.413 142.707 104.037 141.943 103.285C141.191 102.533 140.815 101.587 140.815 100.447C140.815 99.2944 141.191 98.3422 141.943 97.5901C142.707 96.8381 143.665 96.4621 144.818 96.4621C145.97 96.4621 146.922 96.8381 147.674 97.5901C148.438 98.3422 148.82 99.2944 148.82 100.447C148.82 101.587 148.438 102.533 147.674 103.285ZM146.692 98.3725C146.182 97.8752 145.557 97.6265 144.818 97.6265C144.078 97.6265 143.447 97.8812 142.925 98.3907C142.416 98.888 142.161 99.5734 142.161 100.447C142.161 101.32 142.422 102.005 142.943 102.503C143.465 103 144.09 103.249 144.818 103.249C145.545 103.249 146.17 103 146.692 102.503C147.213 102.005 147.474 101.32 147.474 100.447C147.474 99.5612 147.213 98.8698 146.692 98.3725ZM150.829 96.644H153.686C154.377 96.644 154.905 96.7896 155.269 97.0807C155.706 97.4324 155.924 97.9055 155.924 98.4999C155.924 99.1549 155.651 99.6583 155.105 100.01C155.481 100.107 155.797 100.277 156.051 100.519C156.452 100.908 156.652 101.393 156.652 101.975C156.652 102.703 156.391 103.273 155.869 103.685C155.42 104.025 154.826 104.195 154.086 104.195H150.829V96.644ZM152.139 99.7189H153.522C153.874 99.7189 154.153 99.6461 154.359 99.5006C154.602 99.3186 154.723 99.0578 154.723 98.7182C154.723 98.415 154.602 98.1724 154.359 97.9904C154.177 97.8691 153.825 97.8085 153.304 97.8085H152.139V99.7189ZM152.139 103.03H153.759C154.317 103.03 154.711 102.945 154.941 102.776C155.232 102.557 155.378 102.278 155.378 101.939C155.378 101.575 155.251 101.29 154.996 101.084C154.765 100.902 154.371 100.811 153.813 100.811H152.139V103.03ZM165.034 103.285C164.282 104.037 163.33 104.413 162.177 104.413C161.025 104.413 160.067 104.037 159.302 103.285C158.55 102.533 158.174 101.587 158.174 100.447C158.174 99.2944 158.55 98.3422 159.302 97.5901C160.067 96.8381 161.025 96.4621 162.177 96.4621C163.33 96.4621 164.282 96.8381 165.034 97.5901C165.798 98.3422 166.18 99.2944 166.18 100.447C166.18 101.587 165.798 102.533 165.034 103.285ZM164.051 98.3725C163.542 97.8752 162.917 97.6265 162.177 97.6265C161.437 97.6265 160.807 97.8812 160.285 98.3907C159.775 98.888 159.521 99.5734 159.521 100.447C159.521 101.32 159.782 102.005 160.303 102.503C160.825 103 161.449 103.249 162.177 103.249C162.905 103.249 163.53 103 164.051 102.503C164.573 102.005 164.834 101.32 164.834 100.447C164.834 99.5612 164.573 98.8698 164.051 98.3725ZM167.316 104.195L169.135 96.0618L172.265 102.212L175.321 96.0618L177.141 104.195H175.794L174.794 99.5188L172.228 104.722L169.626 99.5188L168.662 104.195H167.316ZM184.3 103.14V108.38H182.99V96.644H184.3V97.6993C184.967 96.8745 185.828 96.4621 186.884 96.4621C188.012 96.4621 188.903 96.8623 189.558 97.6629C190.225 98.4513 190.559 99.3853 190.559 100.465C190.559 101.557 190.232 102.491 189.576 103.267C188.921 104.031 188.042 104.413 186.938 104.413C185.834 104.413 184.955 103.989 184.3 103.14ZM186.756 103.249C187.496 103.249 188.091 102.982 188.539 102.448C188.988 101.902 189.213 101.241 189.213 100.465C189.213 99.5915 188.964 98.9001 188.467 98.3907C187.969 97.8812 187.393 97.6265 186.738 97.6265C186.083 97.6265 185.501 97.8812 184.991 98.3907C184.482 98.9001 184.227 99.5855 184.227 100.447C184.227 101.235 184.458 101.902 184.919 102.448C185.392 102.982 186.004 103.249 186.756 103.249ZM198.353 97.7175V96.644H199.663V104.195H198.353V103.14C197.698 103.989 196.837 104.413 195.769 104.413C194.75 104.413 193.883 104.061 193.168 103.358C192.452 102.654 192.094 101.672 192.094 100.41C192.094 99.1731 192.446 98.2087 193.149 97.5173C193.865 96.8138 194.738 96.4621 195.769 96.4621C196.861 96.4621 197.722 96.8805 198.353 97.7175ZM195.915 97.6265C195.224 97.6265 194.635 97.8752 194.15 98.3725C193.677 98.8577 193.44 99.537 193.44 100.41C193.44 101.247 193.659 101.933 194.095 102.466C194.544 102.988 195.151 103.249 195.915 103.249C196.679 103.249 197.286 102.976 197.734 102.43C198.195 101.884 198.426 101.217 198.426 100.429C198.426 99.5309 198.171 98.8395 197.662 98.3543C197.152 97.8691 196.57 97.6265 195.915 97.6265ZM207.967 91.4585H209.422C209.289 91.9073 209.058 92.2894 208.731 92.6048C208.415 92.908 208.124 93.1142 207.857 93.2234C207.603 93.3326 207.299 93.4296 206.948 93.5145C206.887 93.5266 206.741 93.563 206.511 93.6237C206.281 93.6722 206.105 93.7146 205.983 93.751C205.862 93.7874 205.704 93.8359 205.51 93.8966C205.316 93.9572 205.14 94.03 204.983 94.1149C204.825 94.1998 204.679 94.2908 204.546 94.3878C204.085 94.7396 203.709 95.2309 203.418 95.8616C203.139 96.4802 202.987 97.1413 202.963 97.8449H202.999C203.545 96.923 204.461 96.4621 205.747 96.4621C206.875 96.4621 207.809 96.8441 208.549 97.6083C209.301 98.3725 209.677 99.3186 209.677 100.447C209.677 101.587 209.295 102.533 208.531 103.285C207.766 104.037 206.772 104.413 205.547 104.413C204.491 104.413 203.624 104.098 202.945 103.467C202.096 102.691 201.671 101.393 201.671 99.5734C201.671 96.4075 202.387 94.3333 203.818 93.3507C203.927 93.278 204.043 93.2113 204.164 93.1506C204.285 93.0778 204.413 93.0172 204.546 92.9687C204.692 92.908 204.813 92.8595 204.91 92.8231C205.007 92.7746 205.14 92.7321 205.31 92.6957C205.492 92.6472 205.613 92.6169 205.674 92.6048C205.747 92.5805 205.88 92.5502 206.074 92.5138C206.281 92.4653 206.408 92.4349 206.456 92.4228C206.942 92.3136 207.293 92.1863 207.512 92.0407C207.73 91.883 207.882 91.689 207.967 91.4585ZM207.548 98.3725C207.039 97.8752 206.414 97.6265 205.674 97.6265C204.934 97.6265 204.303 97.8812 203.782 98.3907C203.272 98.888 203.018 99.5734 203.018 100.447C203.018 101.32 203.278 102.005 203.8 102.503C204.322 103 204.946 103.249 205.674 103.249C206.402 103.249 207.027 103 207.548 102.503C208.07 102.005 208.33 101.32 208.33 100.447C208.33 99.5612 208.07 98.8698 207.548 98.3725ZM218.072 103.285C217.32 104.037 216.368 104.413 215.216 104.413C214.063 104.413 213.105 104.037 212.341 103.285C211.589 102.533 211.213 101.587 211.213 100.447C211.213 99.2944 211.589 98.3422 212.341 97.5901C213.105 96.8381 214.063 96.4621 215.216 96.4621C216.368 96.4621 217.32 96.8381 218.072 97.5901C218.836 98.3422 219.218 99.2944 219.218 100.447C219.218 101.587 218.836 102.533 218.072 103.285ZM217.09 98.3725C216.58 97.8752 215.956 97.6265 215.216 97.6265C214.476 97.6265 213.845 97.8812 213.323 98.3907C212.814 98.888 212.559 99.5734 212.559 100.447C212.559 101.32 212.82 102.005 213.342 102.503C213.863 103 214.488 103.249 215.216 103.249C215.943 103.249 216.568 103 217.09 102.503C217.611 102.005 217.872 101.32 217.872 100.447C217.872 99.5612 217.611 98.8698 217.09 98.3725ZM225.267 104.195V101.229C224.551 101.338 223.957 101.393 223.484 101.393C222.659 101.393 222.046 101.211 221.646 100.847C221.221 100.471 221.009 99.8523 221.009 98.9911V96.644H222.319V98.8092C222.319 99.2216 222.374 99.5188 222.483 99.7007C222.653 100.028 223.035 100.192 223.629 100.192C224.163 100.192 224.709 100.137 225.267 100.028V96.644H226.577V104.195H225.267ZM234.649 101.666L235.741 102.266C235.486 102.751 235.177 103.158 234.813 103.485C234.122 104.104 233.285 104.413 232.302 104.413C231.283 104.413 230.404 104.086 229.664 103.431C228.936 102.764 228.572 101.775 228.572 100.465C228.572 99.3126 228.9 98.3604 229.555 97.6083C230.222 96.8441 231.114 96.4621 232.23 96.4621C233.491 96.4621 234.443 96.923 235.086 97.8449C235.596 98.5726 235.832 99.5188 235.796 100.683H229.919C229.931 101.447 230.167 102.066 230.628 102.539C231.089 103.012 231.653 103.249 232.321 103.249C232.915 103.249 233.43 103.067 233.867 102.703C234.207 102.412 234.468 102.066 234.649 101.666ZM230.01 99.5915H234.449C234.34 98.9972 234.079 98.5241 233.667 98.1724C233.267 97.8085 232.788 97.6265 232.23 97.6265C231.684 97.6265 231.199 97.8145 230.774 98.1906C230.362 98.5544 230.107 99.0214 230.01 99.5915ZM236.932 104.195L238.751 96.0618L241.881 102.212L244.938 96.0618L246.757 104.195H245.411L244.41 99.5188L241.845 104.722L239.243 99.5188L238.278 104.195H236.932ZM251.733 104.195L253.552 96.0618L256.682 102.212L259.739 96.0618L261.558 104.195H260.212L259.211 99.5188L256.646 104.722L254.044 99.5188L253.079 104.195H251.733ZM268.765 101.666L269.856 102.266C269.602 102.751 269.292 103.158 268.928 103.485C268.237 104.104 267.4 104.413 266.418 104.413C265.399 104.413 264.519 104.086 263.779 103.431C263.051 102.764 262.688 101.775 262.688 100.465C262.688 99.3126 263.015 98.3604 263.67 97.6083C264.337 96.8441 265.229 96.4621 266.345 96.4621C267.606 96.4621 268.558 96.923 269.201 97.8449C269.711 98.5726 269.947 99.5188 269.911 100.683H264.034C264.046 101.447 264.283 102.066 264.744 102.539C265.205 103.012 265.769 103.249 266.436 103.249C267.03 103.249 267.546 103.067 267.982 102.703C268.322 102.412 268.583 102.066 268.765 101.666ZM264.125 99.5915H268.565C268.455 98.9972 268.195 98.5241 267.782 98.1724C267.382 97.8085 266.903 97.6265 266.345 97.6265C265.799 97.6265 265.314 97.8145 264.889 98.1906C264.477 98.5544 264.222 99.0214 264.125 99.5915ZM277.834 97.1898V98.7546C277.239 98.0025 276.451 97.6265 275.468 97.6265C274.728 97.6265 274.098 97.8812 273.576 98.3907C273.055 98.888 272.794 99.5734 272.794 100.447C272.794 101.32 273.055 102.005 273.576 102.503C274.098 103 274.722 103.249 275.45 103.249C276.421 103.249 277.233 102.854 277.888 102.066V103.631C277.173 104.152 276.372 104.413 275.487 104.413C274.31 104.413 273.34 104.043 272.575 103.303C271.823 102.551 271.447 101.605 271.447 100.465C271.447 99.3126 271.829 98.3604 272.594 97.6083C273.358 96.8441 274.322 96.4621 275.487 96.4621C276.36 96.4621 277.142 96.7046 277.834 97.1898ZM284.847 97.8449H282.482V104.195H281.172V97.8449H278.807V96.644H284.847V97.8449ZM291.65 101.666L292.742 102.266C292.487 102.751 292.178 103.158 291.814 103.485C291.123 104.104 290.286 104.413 289.303 104.413C288.284 104.413 287.405 104.086 286.665 103.431C285.937 102.764 285.573 101.775 285.573 100.465C285.573 99.3126 285.901 98.3604 286.556 97.6083C287.223 96.8441 288.114 96.4621 289.23 96.4621C290.492 96.4621 291.444 96.923 292.087 97.8449C292.596 98.5726 292.833 99.5188 292.797 100.683H286.92C286.932 101.447 287.168 102.066 287.629 102.539C288.09 103.012 288.654 103.249 289.321 103.249C289.916 103.249 290.431 103.067 290.868 102.703C291.207 102.412 291.468 102.066 291.65 101.666ZM287.011 99.5915H291.45C291.341 98.9972 291.08 98.5241 290.668 98.1724C290.267 97.8085 289.788 97.6265 289.23 97.6265C288.684 97.6265 288.199 97.8145 287.775 98.1906C287.362 98.5544 287.108 99.0214 287.011 99.5915ZM295.006 104.104C294.824 103.922 294.733 103.71 294.733 103.467C294.733 103.224 294.824 103.012 295.006 102.83C295.188 102.648 295.4 102.557 295.643 102.557C295.886 102.557 296.098 102.648 296.28 102.83C296.462 103.012 296.553 103.224 296.553 103.467C296.553 103.71 296.462 103.922 296.28 104.104C296.098 104.286 295.886 104.377 295.643 104.377C295.4 104.377 295.188 104.286 295.006 104.104ZM309.452 93.3326H306.504V104.195H305.158V93.3326H302.21V92.0589H309.452V93.3326ZM310.033 104.195V96.644H311.344V99.537H312.69C313.733 99.537 314.497 99.7856 314.982 100.283C315.371 100.671 315.565 101.199 315.565 101.866C315.565 102.569 315.34 103.133 314.891 103.558C314.443 103.983 313.703 104.195 312.672 104.195H310.033ZM311.344 103.03H312.563C313.108 103.03 313.497 102.964 313.727 102.83C314.055 102.612 314.218 102.29 314.218 101.866C314.218 101.429 314.061 101.114 313.745 100.92C313.527 100.774 313.139 100.701 312.581 100.701H311.344V103.03ZM316.474 104.195V96.644H317.784V104.195H316.474ZM84.5153 127.195L86.3347 119.062L89.4642 125.212L92.521 119.062L94.3404 127.195H92.994L91.9933 122.519L89.4278 127.722L86.826 122.519L85.8617 127.195H84.5153ZM102.329 126.285C101.577 127.037 100.625 127.413 99.4728 127.413C98.3204 127.413 97.3622 127.037 96.598 126.285C95.846 125.533 95.4699 124.587 95.4699 123.447C95.4699 122.294 95.846 121.342 96.598 120.59C97.3622 119.838 98.3204 119.462 99.4728 119.462C100.625 119.462 101.577 119.838 102.329 120.59C103.094 121.342 103.476 122.294 103.476 123.447C103.476 124.587 103.094 125.533 102.329 126.285ZM101.347 121.373C100.837 120.875 100.213 120.627 99.4728 120.627C98.7329 120.627 98.1021 120.881 97.5805 121.391C97.0711 121.888 96.8163 122.573 96.8163 123.447C96.8163 124.32 97.0771 125.005 97.5987 125.503C98.1203 126 98.745 126.249 99.4728 126.249C100.201 126.249 100.825 126 101.347 125.503C101.868 125.005 102.129 124.32 102.129 123.447C102.129 122.561 101.868 121.87 101.347 121.373ZM109.014 119.644H110.324V122.737L113.163 119.644H114.691L111.416 123.137L115.019 127.195H113.381L110.579 124.011L110.324 124.265V127.195H109.014V124.265L108.76 124.011L105.958 127.195H104.32L107.923 123.137L104.648 119.644H106.176L109.014 122.737V119.644ZM121.75 124.666L122.841 125.266C122.587 125.751 122.277 126.158 121.913 126.485C121.222 127.104 120.385 127.413 119.402 127.413C118.384 127.413 117.504 127.086 116.764 126.431C116.036 125.764 115.673 124.775 115.673 123.465C115.673 122.313 116 121.36 116.655 120.608C117.322 119.844 118.214 119.462 119.33 119.462C120.591 119.462 121.543 119.923 122.186 120.845C122.696 121.573 122.932 122.519 122.896 123.683H117.019C117.031 124.447 117.268 125.066 117.729 125.539C118.189 126.012 118.753 126.249 119.421 126.249C120.015 126.249 120.531 126.067 120.967 125.703C121.307 125.412 121.568 125.066 121.75 124.666ZM117.11 122.592H121.549C121.44 121.997 121.179 121.524 120.767 121.172C120.367 120.808 119.888 120.627 119.33 120.627C118.784 120.627 118.299 120.815 117.874 121.191C117.462 121.554 117.207 122.021 117.11 122.592ZM124.905 127.195V119.644H126.215V125.994H129.127V119.644H130.437V125.994H133.348V119.644H134.658V127.195H124.905ZM137.13 127.195V119.644H138.44V122.537H139.786C140.83 122.537 141.594 122.786 142.079 123.283C142.467 123.671 142.661 124.199 142.661 124.866C142.661 125.569 142.437 126.133 141.988 126.558C141.539 126.983 140.799 127.195 139.768 127.195H137.13ZM138.44 126.03H139.659C140.205 126.03 140.593 125.964 140.823 125.83C141.151 125.612 141.315 125.29 141.315 124.866C141.315 124.429 141.157 124.114 140.842 123.92C140.623 123.774 140.235 123.701 139.677 123.701H138.44V126.03ZM149.644 121.573L148.734 120.827C149.025 120.402 149.347 120.087 149.699 119.881C150.172 119.602 150.724 119.462 151.354 119.462C152.119 119.462 152.713 119.638 153.138 119.99C153.574 120.366 153.793 120.845 153.793 121.427C153.793 122.131 153.507 122.658 152.937 123.01C153.301 123.095 153.592 123.259 153.811 123.501C154.162 123.877 154.338 124.338 154.338 124.884C154.338 125.697 154.011 126.346 153.356 126.831C152.822 127.219 152.106 127.413 151.209 127.413C150.408 127.413 149.735 127.201 149.189 126.776C148.777 126.473 148.443 126.042 148.189 125.485L149.317 125.011C149.45 125.351 149.674 125.636 149.99 125.867C150.329 126.121 150.742 126.249 151.227 126.249C151.797 126.249 152.222 126.152 152.501 125.958C152.852 125.727 153.028 125.375 153.028 124.902C153.028 124.514 152.877 124.223 152.573 124.029C152.319 123.859 151.906 123.774 151.336 123.774H150.572V122.573H151.209C151.67 122.573 151.997 122.507 152.191 122.373C152.458 122.203 152.592 121.973 152.592 121.682C152.592 121.342 152.482 121.081 152.264 120.899C152.058 120.717 151.737 120.627 151.3 120.627C150.924 120.627 150.578 120.724 150.263 120.918C149.996 121.087 149.79 121.306 149.644 121.573ZM162.123 120.717V119.644H163.433V127.195H162.123V126.14C161.468 126.989 160.607 127.413 159.54 127.413C158.521 127.413 157.654 127.061 156.938 126.358C156.222 125.654 155.864 124.672 155.864 123.41C155.864 122.173 156.216 121.209 156.92 120.517C157.635 119.814 158.509 119.462 159.54 119.462C160.631 119.462 161.493 119.881 162.123 120.717ZM159.685 120.627C158.994 120.627 158.406 120.875 157.92 121.373C157.447 121.858 157.211 122.537 157.211 123.41C157.211 124.247 157.429 124.933 157.866 125.466C158.315 125.988 158.921 126.249 159.685 126.249C160.45 126.249 161.056 125.976 161.505 125.43C161.966 124.884 162.196 124.217 162.196 123.429C162.196 122.531 161.941 121.839 161.432 121.354C160.923 120.869 160.34 120.627 159.685 120.627ZM166.46 119.644H171.773V125.994H172.901V129.196H171.701V127.195H165.951V129.196H164.75V125.994C165.381 125.982 165.848 125.654 166.151 125.011C166.357 124.587 166.46 123.92 166.46 123.01V119.644ZM170.463 125.994V120.845H167.771V123.683C167.771 124.69 167.467 125.46 166.861 125.994H170.463ZM180.069 120.717V119.644H181.379V127.195H180.069V126.14C179.414 126.989 178.553 127.413 177.486 127.413C176.467 127.413 175.6 127.061 174.884 126.358C174.168 125.654 173.81 124.672 173.81 123.41C173.81 122.173 174.162 121.209 174.866 120.517C175.581 119.814 176.455 119.462 177.486 119.462C178.577 119.462 179.439 119.881 180.069 120.717ZM177.631 120.627C176.94 120.627 176.352 120.875 175.866 121.373C175.393 121.858 175.157 122.537 175.157 123.41C175.157 124.247 175.375 124.933 175.812 125.466C176.261 125.988 176.867 126.249 177.631 126.249C178.396 126.249 179.002 125.976 179.451 125.43C179.912 124.884 180.142 124.217 180.142 123.429C180.142 122.531 179.888 121.839 179.378 121.354C178.869 120.869 178.286 120.627 177.631 120.627ZM188.81 120.845H186.444V127.195H185.134V120.845H182.769V119.644H188.81V120.845ZM190.186 127.195V119.644H191.496V122.537H192.843C193.886 122.537 194.65 122.786 195.135 123.283C195.523 123.671 195.717 124.199 195.717 124.866C195.717 125.569 195.493 126.133 195.044 126.558C194.595 126.983 193.855 127.195 192.824 127.195H190.186ZM191.496 126.03H192.715C193.261 126.03 193.649 125.964 193.88 125.83C194.207 125.612 194.371 125.29 194.371 124.866C194.371 124.429 194.213 124.114 193.898 123.92C193.68 123.774 193.291 123.701 192.733 123.701H191.496V126.03ZM200.844 127.195L202.664 119.062L205.793 125.212L208.85 119.062L210.67 127.195H209.323L208.323 122.519L205.757 127.722L203.155 122.519L202.191 127.195H200.844ZM212.272 127.195V119.644H213.582V122.737H217.148V119.644H218.458V127.195H217.148V123.938H213.582V127.195H212.272ZM226.529 124.666L227.621 125.266C227.366 125.751 227.057 126.158 226.693 126.485C226.002 127.104 225.165 127.413 224.182 127.413C223.163 127.413 222.284 127.086 221.544 126.431C220.816 125.764 220.452 124.775 220.452 123.465C220.452 122.313 220.78 121.36 221.435 120.608C222.102 119.844 222.993 119.462 224.109 119.462C225.371 119.462 226.323 119.923 226.966 120.845C227.475 121.573 227.712 122.519 227.676 123.683H221.799C221.811 124.447 222.047 125.066 222.508 125.539C222.969 126.012 223.533 126.249 224.2 126.249C224.795 126.249 225.31 126.067 225.747 125.703C226.087 125.412 226.347 125.066 226.529 124.666ZM221.89 122.592H226.329C226.22 121.997 225.959 121.524 225.547 121.172C225.147 120.808 224.667 120.627 224.109 120.627C223.564 120.627 223.078 120.815 222.654 121.191C222.241 121.554 221.987 122.021 221.89 122.592ZM239.645 119.644V127.195H238.335V120.845H235.642V124.247C235.642 125.23 235.448 125.958 235.06 126.431C234.623 126.964 234.017 127.231 233.24 127.231C233.143 127.231 233.01 127.219 232.84 127.195V125.994C232.961 126.018 233.058 126.03 233.131 126.03C233.556 126.03 233.871 125.867 234.077 125.539C234.247 125.272 234.332 124.842 234.332 124.247V119.644H239.645ZM243.433 122.737H244.798C244.919 121.888 245.259 121.172 245.816 120.59C246.532 119.838 247.484 119.462 248.673 119.462C249.838 119.462 250.796 119.838 251.548 120.59C252.3 121.342 252.676 122.294 252.676 123.447C252.676 124.587 252.294 125.533 251.53 126.285C250.778 127.037 249.825 127.413 248.673 127.413C247.351 127.413 246.314 126.94 245.562 125.994C245.077 125.387 244.798 124.702 244.725 123.938H243.433V127.195H242.123V119.644H243.433V122.737ZM248.673 120.627C247.945 120.627 247.327 120.881 246.817 121.391C246.32 121.888 246.071 122.573 246.071 123.447C246.071 124.332 246.326 125.024 246.835 125.521C247.345 126.006 247.957 126.249 248.673 126.249C249.401 126.249 250.026 126 250.547 125.503C251.069 125.005 251.33 124.32 251.33 123.447C251.33 122.573 251.069 121.888 250.547 121.391C250.038 120.881 249.413 120.627 248.673 120.627ZM260.507 114.458H261.963C261.83 114.907 261.599 115.289 261.272 115.605C260.956 115.908 260.665 116.114 260.398 116.223C260.144 116.333 259.84 116.43 259.489 116.515C259.428 116.527 259.282 116.563 259.052 116.624C258.821 116.672 258.646 116.715 258.524 116.751C258.403 116.787 258.245 116.836 258.051 116.897C257.857 116.957 257.681 117.03 257.524 117.115C257.366 117.2 257.22 117.291 257.087 117.388C256.626 117.74 256.25 118.231 255.959 118.862C255.68 119.48 255.528 120.141 255.504 120.845H255.54C256.086 119.923 257.002 119.462 258.288 119.462C259.416 119.462 260.35 119.844 261.09 120.608C261.842 121.373 262.218 122.319 262.218 123.447C262.218 124.587 261.836 125.533 261.072 126.285C260.307 127.037 259.313 127.413 258.088 127.413C257.032 127.413 256.165 127.098 255.486 126.467C254.637 125.691 254.212 124.393 254.212 122.573C254.212 119.407 254.928 117.333 256.359 116.351C256.468 116.278 256.583 116.211 256.705 116.151C256.826 116.078 256.953 116.017 257.087 115.969C257.232 115.908 257.354 115.859 257.451 115.823C257.548 115.775 257.681 115.732 257.851 115.696C258.033 115.647 258.154 115.617 258.215 115.605C258.288 115.581 258.421 115.55 258.615 115.514C258.821 115.465 258.949 115.435 258.997 115.423C259.483 115.314 259.834 115.186 260.053 115.041C260.271 114.883 260.423 114.689 260.507 114.458ZM260.089 121.373C259.58 120.875 258.955 120.627 258.215 120.627C257.475 120.627 256.844 120.881 256.323 121.391C255.813 121.888 255.559 122.573 255.559 123.447C255.559 124.32 255.819 125.005 256.341 125.503C256.862 126 257.487 126.249 258.215 126.249C258.943 126.249 259.567 126 260.089 125.503C260.611 125.005 260.871 124.32 260.871 123.447C260.871 122.561 260.611 121.87 260.089 121.373ZM264.227 127.195V119.644H265.537V122.537H266.883C267.926 122.537 268.691 122.786 269.176 123.283C269.564 123.671 269.758 124.199 269.758 124.866C269.758 125.569 269.534 126.133 269.085 126.558C268.636 126.983 267.896 127.195 266.865 127.195H264.227ZM265.537 126.03H266.756C267.302 126.03 267.69 125.964 267.92 125.83C268.248 125.612 268.412 125.29 268.412 124.866C268.412 124.429 268.254 124.114 267.938 123.92C267.72 123.774 267.332 123.701 266.774 123.701H265.537V126.03ZM270.668 127.195V119.644H271.978V127.195H270.668ZM280.048 124.666L281.139 125.266C280.884 125.751 280.575 126.158 280.211 126.485C279.52 127.104 278.683 127.413 277.7 127.413C276.681 127.413 275.802 127.086 275.062 126.431C274.334 125.764 273.97 124.775 273.97 123.465C273.97 122.313 274.298 121.36 274.953 120.608C275.62 119.844 276.512 119.462 277.628 119.462C278.889 119.462 279.841 119.923 280.484 120.845C280.994 121.573 281.23 122.519 281.194 123.683H275.317C275.329 124.447 275.566 125.066 276.026 125.539C276.487 126.012 277.051 126.249 277.719 126.249C278.313 126.249 278.828 126.067 279.265 125.703C279.605 125.412 279.866 125.066 280.048 124.666ZM275.408 122.592H279.847C279.738 121.997 279.477 121.524 279.065 121.172C278.665 120.808 278.186 120.627 277.628 120.627C277.082 120.627 276.597 120.815 276.172 121.191C275.76 121.554 275.505 122.021 275.408 122.592ZM85.3886 141.644H88.2452C88.9366 141.644 89.4642 141.79 89.8281 142.081C90.2648 142.432 90.4831 142.906 90.4831 143.5C90.4831 144.155 90.2102 144.658 89.6644 145.01C90.0404 145.107 90.3558 145.277 90.6105 145.519C91.0108 145.908 91.2109 146.393 91.2109 146.975C91.2109 147.703 90.9501 148.273 90.4286 148.685C89.9798 149.025 89.3854 149.195 88.6455 149.195H85.3886V141.644ZM86.6986 144.719H88.0814C88.4332 144.719 88.7122 144.646 88.9184 144.501C89.161 144.319 89.2823 144.058 89.2823 143.718C89.2823 143.415 89.161 143.172 88.9184 142.99C88.7364 142.869 88.3847 142.808 87.8631 142.808H86.6986V144.719ZM86.6986 148.03H88.318C88.8759 148.03 89.2702 147.945 89.5006 147.776C89.7917 147.557 89.9373 147.278 89.9373 146.939C89.9373 146.575 89.8099 146.29 89.5552 146.084C89.3247 145.902 88.9305 145.811 88.3726 145.811H86.6986V148.03ZM99.593 148.285C98.841 149.037 97.8888 149.413 96.7365 149.413C95.5841 149.413 94.6259 149.037 93.8617 148.285C93.1096 147.533 92.7336 146.587 92.7336 145.447C92.7336 144.294 93.1096 143.342 93.8617 142.59C94.6259 141.838 95.5841 141.462 96.7365 141.462C97.8888 141.462 98.841 141.838 99.593 142.59C100.357 143.342 100.739 144.294 100.739 145.447C100.739 146.587 100.357 147.533 99.593 148.285ZM98.6105 143.373C98.1011 142.875 97.4764 142.627 96.7365 142.627C95.9965 142.627 95.3658 142.881 94.8442 143.391C94.3347 143.888 94.08 144.573 94.08 145.447C94.08 146.32 94.3408 147.005 94.8624 147.503C95.384 148 96.0087 148.249 96.7365 148.249C97.4642 148.249 98.0889 148 98.6105 147.503C99.1321 147.005 99.3929 146.32 99.3929 145.447C99.3929 144.561 99.1321 143.87 98.6105 143.373ZM102.748 141.644H108.825V149.195H107.515V142.845H104.058V149.195H102.748V141.644ZM112.605 148.14V153.38H111.295V141.644H112.605V142.699C113.272 141.874 114.133 141.462 115.189 141.462C116.317 141.462 117.208 141.862 117.863 142.663C118.53 143.451 118.864 144.385 118.864 145.465C118.864 146.557 118.536 147.491 117.881 148.267C117.226 149.031 116.347 149.413 115.243 149.413C114.139 149.413 113.26 148.989 112.605 148.14ZM115.061 148.249C115.801 148.249 116.395 147.982 116.844 147.448C117.293 146.902 117.517 146.241 117.517 145.465C117.517 144.592 117.269 143.9 116.771 143.391C116.274 142.881 115.698 142.627 115.043 142.627C114.388 142.627 113.806 142.881 113.296 143.391C112.787 143.9 112.532 144.585 112.532 145.447C112.532 146.235 112.763 146.902 113.223 147.448C113.697 147.982 114.309 148.249 115.061 148.249ZM127.258 148.285C126.506 149.037 125.554 149.413 124.402 149.413C123.249 149.413 122.291 149.037 121.527 148.285C120.775 147.533 120.399 146.587 120.399 145.447C120.399 144.294 120.775 143.342 121.527 142.59C122.291 141.838 123.249 141.462 124.402 141.462C125.554 141.462 126.506 141.838 127.258 142.59C128.022 143.342 128.405 144.294 128.405 145.447C128.405 146.587 128.022 147.533 127.258 148.285ZM126.276 143.373C125.766 142.875 125.142 142.627 124.402 142.627C123.662 142.627 123.031 142.881 122.509 143.391C122 143.888 121.745 144.573 121.745 145.447C121.745 146.32 122.006 147.005 122.528 147.503C123.049 148 123.674 148.249 124.402 148.249C125.13 148.249 125.754 148 126.276 147.503C126.797 147.005 127.058 146.32 127.058 145.447C127.058 144.561 126.797 143.87 126.276 143.373ZM136.327 142.19V143.755C135.732 143.003 134.944 142.627 133.962 142.627C133.222 142.627 132.591 142.881 132.069 143.391C131.548 143.888 131.287 144.573 131.287 145.447C131.287 146.32 131.548 147.005 132.069 147.503C132.591 148 133.216 148.249 133.943 148.249C134.914 148.249 135.726 147.854 136.381 147.066V148.631C135.666 149.152 134.865 149.413 133.98 149.413C132.803 149.413 131.833 149.043 131.069 148.303C130.316 147.551 129.94 146.605 129.94 145.465C129.94 144.313 130.323 143.36 131.087 142.608C131.851 141.844 132.815 141.462 133.98 141.462C134.853 141.462 135.635 141.705 136.327 142.19ZM138.392 149.195V141.644H139.702V144.537H141.048C142.091 144.537 142.855 144.786 143.34 145.283C143.729 145.671 143.923 146.199 143.923 146.866C143.923 147.569 143.698 148.133 143.25 148.558C142.801 148.983 142.061 149.195 141.03 149.195H138.392ZM139.702 148.03H140.921C141.466 148.03 141.855 147.964 142.085 147.83C142.413 147.612 142.576 147.29 142.576 146.866C142.576 146.429 142.419 146.114 142.103 145.92C141.885 145.774 141.497 145.701 140.939 145.701H139.702V148.03ZM144.832 149.195V141.644H146.142V149.195H144.832ZM152.855 141.644H154.165V146.629L159.332 141.062V149.195H158.022V144.155L152.855 149.722V141.644ZM165.183 149.195L167.531 146.084C167.458 146.084 167.355 146.071 167.221 146.047C167.1 146.023 166.918 145.962 166.675 145.865C166.433 145.768 166.233 145.641 166.075 145.483C165.675 145.107 165.475 144.604 165.475 143.973C165.475 143.257 165.699 142.693 166.148 142.281C166.597 141.856 167.336 141.644 168.368 141.644H171.006V149.195H169.696V146.156H168.895L166.748 149.195H165.183ZM169.696 145.065V142.808H168.477C167.907 142.808 167.512 142.875 167.294 143.009C166.979 143.215 166.821 143.524 166.821 143.937C166.821 144.349 166.979 144.652 167.294 144.846C167.524 144.992 167.913 145.065 168.458 145.065H169.696ZM183.644 142.19V143.755C183.05 143.003 182.261 142.627 181.279 142.627C180.539 142.627 179.908 142.881 179.386 143.391C178.865 143.888 178.604 144.573 178.604 145.447C178.604 146.32 178.865 147.005 179.386 147.503C179.908 148 180.533 148.249 181.26 148.249C182.231 148.249 183.043 147.854 183.698 147.066V148.631C182.983 149.152 182.182 149.413 181.297 149.413C180.12 149.413 179.15 149.043 178.386 148.303C177.634 147.551 177.258 146.605 177.258 145.465C177.258 144.313 177.64 143.36 178.404 142.608C179.168 141.844 180.132 141.462 181.297 141.462C182.17 141.462 182.952 141.705 183.644 142.19ZM191.265 148.14V153.38H189.955V141.644H191.265V142.699C191.932 141.874 192.794 141.462 193.849 141.462C194.977 141.462 195.868 141.862 196.523 142.663C197.191 143.451 197.524 144.385 197.524 145.465C197.524 146.557 197.197 147.491 196.542 148.267C195.887 149.031 195.007 149.413 193.903 149.413C192.8 149.413 191.92 148.989 191.265 148.14ZM193.721 148.249C194.461 148.249 195.056 147.982 195.505 147.448C195.953 146.902 196.178 146.241 196.178 145.465C196.178 144.592 195.929 143.9 195.432 143.391C194.934 142.881 194.358 142.627 193.703 142.627C193.048 142.627 192.466 142.881 191.957 143.391C191.447 143.9 191.192 144.585 191.192 145.447C191.192 146.235 191.423 146.902 191.884 147.448C192.357 147.982 192.969 148.249 193.721 148.249ZM205.318 142.717V141.644H206.628V149.195H205.318V148.14C204.663 148.989 203.802 149.413 202.735 149.413C201.716 149.413 200.848 149.061 200.133 148.358C199.417 147.654 199.059 146.672 199.059 145.41C199.059 144.173 199.411 143.209 200.115 142.517C200.83 141.814 201.704 141.462 202.735 141.462C203.826 141.462 204.687 141.881 205.318 142.717ZM202.88 142.627C202.189 142.627 201.6 142.875 201.115 143.373C200.642 143.858 200.406 144.537 200.406 145.41C200.406 146.247 200.624 146.933 201.061 147.466C201.509 147.988 202.116 148.249 202.88 148.249C203.644 148.249 204.251 147.976 204.7 147.43C205.161 146.884 205.391 146.217 205.391 145.429C205.391 144.531 205.136 143.839 204.627 143.354C204.117 142.869 203.535 142.627 202.88 142.627ZM209.655 141.644H214.968V147.994H216.096V151.196H214.895V149.195H209.146V151.196H207.945V147.994C208.576 147.982 209.043 147.654 209.346 147.011C209.552 146.587 209.655 145.92 209.655 145.01V141.644ZM213.658 147.994V142.845H210.965V145.683C210.965 146.69 210.662 147.46 210.056 147.994H213.658ZM223.865 148.285C223.113 149.037 222.16 149.413 221.008 149.413C219.856 149.413 218.897 149.037 218.133 148.285C217.381 147.533 217.005 146.587 217.005 145.447C217.005 144.294 217.381 143.342 218.133 142.59C218.897 141.838 219.856 141.462 221.008 141.462C222.16 141.462 223.113 141.838 223.865 142.59C224.629 143.342 225.011 144.294 225.011 145.447C225.011 146.587 224.629 147.533 223.865 148.285ZM222.882 143.373C222.373 142.875 221.748 142.627 221.008 142.627C220.268 142.627 219.637 142.881 219.116 143.391C218.606 143.888 218.352 144.573 218.352 145.447C218.352 146.32 218.612 147.005 219.134 147.503C219.656 148 220.28 148.249 221.008 148.249C221.736 148.249 222.361 148 222.882 147.503C223.404 147.005 223.665 146.32 223.665 145.447C223.665 144.561 223.404 143.87 222.882 143.373ZM232.933 142.19V143.755C232.339 143.003 231.55 142.627 230.568 142.627C229.828 142.627 229.197 142.881 228.676 143.391C228.154 143.888 227.893 144.573 227.893 145.447C227.893 146.32 228.154 147.005 228.676 147.503C229.197 148 229.822 148.249 230.55 148.249C231.52 148.249 232.333 147.854 232.988 147.066V148.631C232.272 149.152 231.472 149.413 230.586 149.413C229.409 149.413 228.439 149.043 227.675 148.303C226.923 147.551 226.547 146.605 226.547 145.465C226.547 144.313 226.929 143.36 227.693 142.608C228.457 141.844 229.422 141.462 230.586 141.462C231.459 141.462 232.242 141.705 232.933 142.19ZM239.947 142.845H237.582V149.195H236.271V142.845H233.906V141.644H239.947V142.845ZM241.323 149.195V141.644H242.633V144.537H243.98C245.023 144.537 245.787 144.786 246.272 145.283C246.661 145.671 246.855 146.199 246.855 146.866C246.855 147.569 246.63 148.133 246.181 148.558C245.733 148.983 244.993 149.195 243.962 149.195H241.323ZM242.633 148.03H243.852C244.398 148.03 244.786 147.964 245.017 147.83C245.344 147.612 245.508 147.29 245.508 146.866C245.508 146.429 245.35 146.114 245.035 145.92C244.817 145.774 244.429 145.701 243.871 145.701H242.633V148.03ZM249.918 144.737H251.283C251.404 143.888 251.744 143.172 252.302 142.59C253.018 141.838 253.97 141.462 255.159 141.462C256.323 141.462 257.281 141.838 258.033 142.59C258.785 143.342 259.161 144.294 259.161 145.447C259.161 146.587 258.779 147.533 258.015 148.285C257.263 149.037 256.311 149.413 255.159 149.413C253.836 149.413 252.799 148.94 252.047 147.994C251.562 147.387 251.283 146.702 251.21 145.938H249.918V149.195H248.608V141.644H249.918V144.737ZM255.159 142.627C254.431 142.627 253.812 142.881 253.303 143.391C252.805 143.888 252.557 144.573 252.557 145.447C252.557 146.332 252.811 147.024 253.321 147.521C253.83 148.006 254.443 148.249 255.159 148.249C255.886 148.249 256.511 148 257.033 147.503C257.554 147.005 257.815 146.32 257.815 145.447C257.815 144.573 257.554 143.888 257.033 143.391C256.523 142.881 255.898 142.627 255.159 142.627ZM265.417 141.644H271.494V149.195H270.184V142.845H266.727V149.195H265.417V141.644ZM280.35 148.285C279.598 149.037 278.646 149.413 277.494 149.413C276.341 149.413 275.383 149.037 274.619 148.285C273.867 147.533 273.491 146.587 273.491 145.447C273.491 144.294 273.867 143.342 274.619 142.59C275.383 141.838 276.341 141.462 277.494 141.462C278.646 141.462 279.598 141.838 280.35 142.59C281.114 143.342 281.496 144.294 281.496 145.447C281.496 146.587 281.114 147.533 280.35 148.285ZM279.368 143.373C278.858 142.875 278.233 142.627 277.494 142.627C276.754 142.627 276.123 142.881 275.601 143.391C275.092 143.888 274.837 144.573 274.837 145.447C274.837 146.32 275.098 147.005 275.62 147.503C276.141 148 276.766 148.249 277.494 148.249C278.221 148.249 278.846 148 279.368 147.503C279.889 147.005 280.15 146.32 280.15 145.447C280.15 144.561 279.889 143.87 279.368 143.373ZM282.632 149.195L284.451 141.062L287.581 147.212L290.638 141.062L292.457 149.195H291.111L290.11 144.519L287.545 149.722L284.943 144.519L283.978 149.195H282.632ZM300.446 148.285C299.694 149.037 298.742 149.413 297.59 149.413C296.437 149.413 295.479 149.037 294.715 148.285C293.963 147.533 293.587 146.587 293.587 145.447C293.587 144.294 293.963 143.342 294.715 142.59C295.479 141.838 296.437 141.462 297.59 141.462C298.742 141.462 299.694 141.838 300.446 142.59C301.21 143.342 301.592 144.294 301.592 145.447C301.592 146.587 301.21 147.533 300.446 148.285ZM299.464 143.373C298.954 142.875 298.329 142.627 297.59 142.627C296.85 142.627 296.219 142.881 295.697 143.391C295.188 143.888 294.933 144.573 294.933 145.447C294.933 146.32 295.194 147.005 295.715 147.503C296.237 148 296.862 148.249 297.59 148.249C298.317 148.249 298.942 148 299.464 147.503C299.985 147.005 300.246 146.32 300.246 145.447C300.246 144.561 299.985 143.87 299.464 143.373ZM303.601 149.195V141.644H308.077V142.845H304.911V149.195H303.601ZM309.767 153.38L312.168 148.485L308.693 141.644H310.185L312.86 147.048L315.316 141.644H316.772L311.222 153.38H309.767ZM90.3376 165.845H87.9723V172.195H86.6622V165.845H84.2969V164.644H90.3376V165.845ZM97.1404 169.666L98.2321 170.266C97.9774 170.751 97.6681 171.158 97.3042 171.485C96.6128 172.104 95.7758 172.413 94.7933 172.413C93.7744 172.413 92.895 172.086 92.1551 171.431C91.4273 170.764 91.0634 169.775 91.0634 168.465C91.0634 167.313 91.3909 166.36 92.0459 165.608C92.713 164.844 93.6046 164.462 94.7205 164.462C95.982 164.462 96.9342 164.923 97.5771 165.845C98.0866 166.573 98.3231 167.519 98.2867 168.683H92.4098C92.4219 169.447 92.6585 170.066 93.1194 170.539C93.5803 171.012 94.1444 171.249 94.8115 171.249C95.4059 171.249 95.9214 171.067 96.3581 170.703C96.6977 170.412 96.9585 170.066 97.1404 169.666ZM92.5008 167.592H96.9403C96.8311 166.997 96.5703 166.524 96.1579 166.172C95.7576 165.808 95.2785 165.627 94.7205 165.627C94.1747 165.627 93.6895 165.815 93.265 166.191C92.8525 166.554 92.5978 167.021 92.5008 167.592ZM106.119 159.458H107.574C107.441 159.907 107.21 160.289 106.883 160.605C106.567 160.908 106.276 161.114 106.009 161.223C105.755 161.333 105.451 161.43 105.1 161.515C105.039 161.527 104.893 161.563 104.663 161.624C104.433 161.672 104.257 161.715 104.135 161.751C104.014 161.787 103.856 161.836 103.662 161.897C103.468 161.957 103.292 162.03 103.135 162.115C102.977 162.2 102.831 162.291 102.698 162.388C102.237 162.74 101.861 163.231 101.57 163.862C101.291 164.48 101.139 165.141 101.115 165.845H101.151C101.697 164.923 102.613 164.462 103.899 164.462C105.027 164.462 105.961 164.844 106.701 165.608C107.453 166.373 107.829 167.319 107.829 168.447C107.829 169.587 107.447 170.533 106.683 171.285C105.918 172.037 104.924 172.413 103.699 172.413C102.643 172.413 101.776 172.098 101.097 171.467C100.248 170.691 99.8232 169.393 99.8232 167.573C99.8232 164.407 100.539 162.333 101.97 161.351C102.079 161.278 102.195 161.211 102.316 161.151C102.437 161.078 102.565 161.017 102.698 160.969C102.843 160.908 102.965 160.859 103.062 160.823C103.159 160.775 103.292 160.732 103.462 160.696C103.644 160.647 103.765 160.617 103.826 160.605C103.899 160.581 104.032 160.55 104.226 160.514C104.433 160.465 104.56 160.435 104.608 160.423C105.094 160.314 105.445 160.186 105.664 160.041C105.882 159.883 106.034 159.689 106.119 159.458ZM105.7 166.373C105.191 165.875 104.566 165.627 103.826 165.627C103.086 165.627 102.455 165.881 101.934 166.391C101.424 166.888 101.17 167.573 101.17 168.447C101.17 169.32 101.43 170.005 101.952 170.503C102.474 171 103.098 171.249 103.826 171.249C104.554 171.249 105.178 171 105.7 170.503C106.222 170.005 106.482 169.32 106.482 168.447C106.482 167.561 106.222 166.87 105.7 166.373ZM115.442 169.666L116.533 170.266C116.279 170.751 115.969 171.158 115.606 171.485C114.914 172.104 114.077 172.413 113.095 172.413C112.076 172.413 111.196 172.086 110.456 171.431C109.729 170.764 109.365 169.775 109.365 168.465C109.365 167.313 109.692 166.36 110.347 165.608C111.014 164.844 111.906 164.462 113.022 164.462C114.283 164.462 115.236 164.923 115.878 165.845C116.388 166.573 116.624 167.519 116.588 168.683H110.711C110.723 169.447 110.96 170.066 111.421 170.539C111.882 171.012 112.446 171.249 113.113 171.249C113.707 171.249 114.223 171.067 114.659 170.703C114.999 170.412 115.26 170.066 115.442 169.666ZM110.802 167.592H115.242C115.132 166.997 114.872 166.524 114.459 166.172C114.059 165.808 113.58 165.627 113.022 165.627C112.476 165.627 111.991 165.815 111.566 166.191C111.154 166.554 110.899 167.021 110.802 167.592ZM122.844 172.195V164.644H124.154V167.737H127.72V164.644H129.03V172.195H127.72V168.938H124.154V172.195H122.844ZM137.283 165.717V164.644H138.593V172.195H137.283V171.14C136.628 171.989 135.767 172.413 134.7 172.413C133.681 172.413 132.813 172.061 132.098 171.358C131.382 170.654 131.024 169.672 131.024 168.41C131.024 167.173 131.376 166.209 132.08 165.517C132.795 164.814 133.669 164.462 134.7 164.462C135.791 164.462 136.653 164.881 137.283 165.717ZM134.845 165.627C134.154 165.627 133.566 165.875 133.08 166.373C132.607 166.858 132.371 167.537 132.371 168.41C132.371 169.247 132.589 169.933 133.026 170.466C133.475 170.988 134.081 171.249 134.845 171.249C135.609 171.249 136.216 170.976 136.665 170.43C137.126 169.884 137.356 169.217 137.356 168.429C137.356 167.531 137.101 166.839 136.592 166.354C136.082 165.869 135.5 165.627 134.845 165.627ZM145.321 172.195V164.644H146.631V167.737H150.197V164.644H151.507V172.195H150.197V168.938H146.631V172.195H145.321ZM153.974 164.644H155.284V169.629L160.452 164.062V172.195H159.142V167.155L153.974 172.722V164.644ZM161.838 172.195L165.058 168.156L162.311 164.644H163.912L165.859 167.209L167.842 164.644H169.443L166.678 168.174L169.807 172.195H168.206L165.823 169.12L163.439 172.195H161.838ZM181.825 171.285C181.073 172.037 180.121 172.413 178.968 172.413C177.816 172.413 176.858 172.037 176.093 171.285C175.341 170.533 174.965 169.587 174.965 168.447C174.965 167.294 175.341 166.342 176.093 165.59C176.858 164.838 177.816 164.462 178.968 164.462C180.121 164.462 181.073 164.838 181.825 165.59C182.589 166.342 182.971 167.294 182.971 168.447C182.971 169.587 182.589 170.533 181.825 171.285ZM180.842 166.373C180.333 165.875 179.708 165.627 178.968 165.627C178.228 165.627 177.598 165.881 177.076 166.391C176.567 166.888 176.312 167.573 176.312 168.447C176.312 169.32 176.573 170.005 177.094 170.503C177.616 171 178.24 171.249 178.968 171.249C179.696 171.249 180.321 171 180.842 170.503C181.364 170.005 181.625 169.32 181.625 168.447C181.625 167.561 181.364 166.87 180.842 166.373ZM189.751 165.845H187.386V172.195H186.076V165.845H183.711V164.644H189.751V165.845ZM191.128 164.644H193.984C194.676 164.644 195.204 164.79 195.567 165.081C196.004 165.432 196.222 165.906 196.222 166.5C196.222 167.155 195.949 167.658 195.404 168.01C195.78 168.107 196.095 168.277 196.35 168.519C196.75 168.908 196.95 169.393 196.95 169.975C196.95 170.703 196.689 171.273 196.168 171.685C195.719 172.025 195.125 172.195 194.385 172.195H191.128V164.644ZM192.438 167.719H193.821C194.172 167.719 194.451 167.646 194.658 167.501C194.9 167.319 195.022 167.058 195.022 166.718C195.022 166.415 194.9 166.172 194.658 165.99C194.476 165.869 194.124 165.808 193.602 165.808H192.438V167.719ZM192.438 171.03H194.057C194.615 171.03 195.009 170.945 195.24 170.776C195.531 170.557 195.677 170.278 195.677 169.939C195.677 169.575 195.549 169.29 195.294 169.084C195.064 168.902 194.67 168.811 194.112 168.811H192.438V171.03ZM204.55 169.666L205.642 170.266C205.387 170.751 205.078 171.158 204.714 171.485C204.022 172.104 203.185 172.413 202.203 172.413C201.184 172.413 200.304 172.086 199.565 171.431C198.837 170.764 198.473 169.775 198.473 168.465C198.473 167.313 198.8 166.36 199.455 165.608C200.123 164.844 201.014 164.462 202.13 164.462C203.392 164.462 204.344 164.923 204.987 165.845C205.496 166.573 205.733 167.519 205.696 168.683H199.819C199.831 169.447 200.068 170.066 200.529 170.539C200.99 171.012 201.554 171.249 202.221 171.249C202.815 171.249 203.331 171.067 203.768 170.703C204.107 170.412 204.368 170.066 204.55 169.666ZM199.91 167.592H204.35C204.241 166.997 203.98 166.524 203.567 166.172C203.167 165.808 202.688 165.627 202.13 165.627C201.584 165.627 201.099 165.815 200.674 166.191C200.262 166.554 200.007 167.021 199.91 167.592ZM212.655 165.845H210.289V172.195H208.979V165.845H206.614V164.644H212.655V165.845ZM214.031 164.644H215.341V169.629L220.509 164.062V172.195H219.199V167.155L214.031 172.722V164.644ZM227.935 165.845H225.57V172.195H224.26V165.845H221.895V164.644H227.935V165.845ZM229.312 172.195V164.644H230.622V167.537H231.968C233.012 167.537 233.776 167.786 234.261 168.283C234.649 168.671 234.843 169.199 234.843 169.866C234.843 170.569 234.619 171.133 234.17 171.558C233.721 171.983 232.981 172.195 231.95 172.195H229.312ZM230.622 171.03H231.841C232.387 171.03 232.775 170.964 233.006 170.83C233.333 170.612 233.497 170.29 233.497 169.866C233.497 169.429 233.339 169.114 233.024 168.92C232.805 168.774 232.417 168.701 231.859 168.701H230.622V171.03ZM236.797 172.104C236.615 171.922 236.524 171.71 236.524 171.467C236.524 171.224 236.615 171.012 236.797 170.83C236.979 170.648 237.191 170.557 237.434 170.557C237.677 170.557 237.889 170.648 238.071 170.83C238.253 171.012 238.344 171.224 238.344 171.467C238.344 171.71 238.253 171.922 238.071 172.104C237.889 172.286 237.677 172.377 237.434 172.377C237.191 172.377 236.979 172.286 236.797 172.104ZM240.937 172.104C240.755 171.922 240.664 171.71 240.664 171.467C240.664 171.224 240.755 171.012 240.937 170.83C241.119 170.648 241.331 170.557 241.574 170.557C241.817 170.557 242.029 170.648 242.211 170.83C242.393 171.012 242.484 171.224 242.484 171.467C242.484 171.71 242.393 171.922 242.211 172.104C242.029 172.286 241.817 172.377 241.574 172.377C241.331 172.377 241.119 172.286 240.937 172.104ZM245.077 172.104C244.895 171.922 244.804 171.71 244.804 171.467C244.804 171.224 244.895 171.012 245.077 170.83C245.259 170.648 245.471 170.557 245.714 170.557C245.957 170.557 246.169 170.648 246.351 170.83C246.533 171.012 246.624 171.224 246.624 171.467C246.624 171.71 246.533 171.922 246.351 172.104C246.169 172.286 245.957 172.377 245.714 172.377C245.471 172.377 245.259 172.286 245.077 172.104Z" fill="#0C051E"/>
</g>
<defs>
<linearGradient id="paint0_linear_354_100" x1="20.5921" y1="36.119" x2="31.9908" y2="55.6889" gradientUnits="userSpaceOnUse">
<stop stop-color="#EE9AE5"/>
<stop offset="1" stop-color="#736EFE"/>
</linearGradient>
<linearGradient id="paint1_linear_354_100" x1="66.7912" y1="49.9983" x2="54.7924" y2="29.6226" gradientUnits="userSpaceOnUse">
<stop stop-color="#5EFCE8"/>
<stop offset="1" stop-color="#736EFE"/>
</linearGradient>
<linearGradient id="paint2_linear_354_100" x1="215.495" y1="18.1948" x2="215.495" y2="171.713" gradientUnits="userSpaceOnUse">
<stop stop-color="#D9D9D9"/>
<stop offset="1" stop-color="#D9D9D9" stop-opacity="0"/>
</linearGradient>
</defs>
</svg>
