<svg width="559" height="280" viewBox="0 0 559 280" fill="none" xmlns="http://www.w3.org/2000/svg">
<g filter="url(#filter0_d_249_121)">
<rect x="71.1211" y="162.182" width="187.727" height="48.1515" rx="13.5758" fill="white" shape-rendering="crispEdges"/>
<path d="M100.119 192.758V187.178C98.8832 187.273 97.96 187.32 97.3491 187.32C95.8422 187.32 94.7358 187.042 94.0298 186.486C93.1474 185.793 92.7062 184.694 92.7062 183.187V179.175H94.7833V182.881C94.7833 183.899 95.0276 184.599 95.5164 184.979C95.8829 185.264 96.6024 185.406 97.6749 185.406C98.4487 185.406 99.2633 185.359 100.119 185.264V179.175H102.196V192.758H100.119ZM111.368 185.182V184.184H113.364V192.758H111.368V191.862C110.703 192.635 109.848 193.022 108.803 193.022C107.54 193.022 106.529 192.574 105.768 191.678C105.022 190.782 104.648 189.71 104.648 188.461C104.648 187.103 105.049 186.017 105.85 185.203C106.664 184.375 107.655 183.96 108.823 183.96C109.895 183.96 110.744 184.368 111.368 185.182ZM109.067 185.752C108.361 185.752 107.784 186.017 107.336 186.547C106.902 187.076 106.685 187.728 106.685 188.502C106.685 189.262 106.902 189.907 107.336 190.436C107.784 190.966 108.361 191.23 109.067 191.23C109.746 191.23 110.316 190.993 110.778 190.518C111.253 190.042 111.491 189.377 111.491 188.522C111.491 187.64 111.253 186.961 110.778 186.486C110.316 185.997 109.746 185.752 109.067 185.752ZM121.8 186.017H119.295V192.758H117.3V186.017H114.795V184.184H121.8V186.017ZM123.843 189.459V187.382H128.731V189.459H123.843ZM137.484 178.299H139.52C139.371 179.005 139.059 179.616 138.584 180.132C138.108 180.648 137.525 181.001 136.832 181.191L135.488 181.558C135.135 181.653 134.864 181.734 134.674 181.802C134.484 181.87 134.246 181.999 133.961 182.189C133.689 182.365 133.459 182.583 133.269 182.84C132.821 183.438 132.583 184.212 132.556 185.162H132.576C133.174 184.361 134.144 183.96 135.488 183.96C136.697 183.96 137.694 184.368 138.482 185.182C139.31 186.038 139.724 187.124 139.724 188.44C139.724 189.771 139.283 190.871 138.4 191.739C137.531 192.595 136.445 193.022 135.142 193.022C133.839 193.022 132.793 192.642 132.006 191.882C131.572 191.475 131.239 190.972 131.008 190.375C130.777 189.778 130.642 189.289 130.601 188.909C130.574 188.515 130.56 188.04 130.56 187.483C130.56 184.823 130.995 182.861 131.864 181.598C132.515 180.634 133.37 180.024 134.429 179.766L135.855 179.419C136.792 179.189 137.335 178.815 137.484 178.299ZM133.289 190.497C133.751 190.986 134.368 191.23 135.142 191.23C135.916 191.23 136.534 190.986 136.995 190.497C137.457 189.995 137.688 189.33 137.688 188.502C137.688 187.592 137.436 186.906 136.934 186.445C136.445 185.983 135.848 185.752 135.142 185.752C134.436 185.752 133.832 185.983 133.33 186.445C132.841 186.906 132.597 187.592 132.597 188.502C132.597 189.33 132.827 189.995 133.289 190.497ZM142.662 185.243C143.544 184.388 144.637 183.96 145.94 183.96C147.244 183.96 148.33 184.388 149.199 185.243C150.081 186.085 150.522 187.164 150.522 188.481C150.522 189.784 150.081 190.871 149.199 191.739C148.33 192.595 147.244 193.022 145.94 193.022C144.637 193.022 143.544 192.595 142.662 191.739C141.793 190.871 141.359 189.784 141.359 188.481C141.359 187.164 141.793 186.085 142.662 185.243ZM144.087 190.497C144.549 190.986 145.167 191.23 145.94 191.23C146.714 191.23 147.332 190.986 147.793 190.497C148.255 189.995 148.486 189.33 148.486 188.502C148.486 187.592 148.235 186.906 147.732 186.445C147.244 185.983 146.646 185.752 145.94 185.752C145.234 185.752 144.63 185.983 144.128 186.445C143.639 186.906 143.395 187.592 143.395 188.502C143.395 189.33 143.626 189.995 144.087 190.497ZM158.51 186.017H156.006V192.758H154.01V186.017H151.505V184.184H158.51V186.017ZM171.945 181.13H168.83V192.758H166.753V181.13H163.637V179.175H171.945V181.13ZM178.598 189.866L180.268 190.803C179.888 191.481 179.406 192.004 178.822 192.371C178.157 192.805 177.315 193.022 176.297 193.022C175.102 193.022 174.138 192.656 173.405 191.923C172.564 191.081 172.143 189.988 172.143 188.644C172.143 187.232 172.597 186.058 173.507 185.121C174.281 184.347 175.238 183.96 176.378 183.96C177.492 183.96 178.408 184.334 179.127 185.08C179.928 185.909 180.329 187.117 180.329 188.705V188.95H174.179C174.233 189.669 174.478 190.246 174.912 190.68C175.279 191.047 175.788 191.23 176.439 191.23C176.969 191.23 177.424 191.088 177.804 190.803C178.116 190.558 178.381 190.246 178.598 189.866ZM174.322 187.32H178.292C178.211 186.845 178.007 186.458 177.682 186.16C177.329 185.834 176.881 185.671 176.338 185.671C175.767 185.671 175.299 185.854 174.932 186.221C174.634 186.492 174.43 186.859 174.322 187.32ZM182.415 177.912H184.41V192.758H182.415V177.912ZM192.936 189.866L194.606 190.803C194.226 191.481 193.744 192.004 193.16 192.371C192.495 192.805 191.653 193.022 190.635 193.022C189.44 193.022 188.476 192.656 187.743 191.923C186.902 191.081 186.481 189.988 186.481 188.644C186.481 187.232 186.936 186.058 187.845 185.121C188.619 184.347 189.576 183.96 190.716 183.96C191.83 183.96 192.746 184.334 193.465 185.08C194.266 185.909 194.667 187.117 194.667 188.705V188.95H188.517C188.571 189.669 188.816 190.246 189.25 190.68C189.617 191.047 190.126 191.23 190.777 191.23C191.307 191.23 191.762 191.088 192.142 190.803C192.454 190.558 192.719 190.246 192.936 189.866ZM188.66 187.32H192.631C192.549 186.845 192.345 186.458 192.02 186.16C191.667 185.834 191.219 185.671 190.676 185.671C190.105 185.671 189.637 185.854 189.271 186.221C188.972 186.492 188.768 186.859 188.66 187.32ZM203.025 185.121V184.184H205.02V192.065C205.02 193.178 204.925 194.081 204.735 194.774C204.545 195.48 204.172 196.063 203.615 196.525C202.868 197.136 201.918 197.441 200.764 197.441C199.597 197.441 198.66 197.088 197.954 196.382C197.262 195.69 196.841 194.801 196.692 193.715H198.626C198.721 194.258 198.932 194.706 199.257 195.059C199.624 195.452 200.14 195.649 200.805 195.649C201.47 195.649 201.993 195.459 202.373 195.079C202.807 194.658 203.025 193.939 203.025 192.92V191.8C202.387 192.615 201.518 193.022 200.418 193.022C199.264 193.022 198.321 192.635 197.588 191.862C196.732 190.966 196.305 189.832 196.305 188.461C196.305 187.09 196.725 185.983 197.567 185.142C198.341 184.354 199.312 183.96 200.479 183.96C201.524 183.96 202.373 184.347 203.025 185.121ZM200.724 185.752C200.113 185.752 199.61 185.943 199.217 186.323C198.633 186.866 198.341 187.592 198.341 188.502C198.341 189.438 198.626 190.158 199.196 190.66C199.631 191.04 200.14 191.23 200.724 191.23C201.389 191.23 201.945 191 202.393 190.538C202.896 189.995 203.147 189.323 203.147 188.522C203.147 187.599 202.875 186.879 202.332 186.363C201.925 185.956 201.389 185.752 200.724 185.752ZM207.551 192.758V184.184H209.547V184.958C209.804 184.66 210.083 184.422 210.381 184.246C210.707 184.056 211.115 183.96 211.603 183.96C212.187 183.96 212.71 184.096 213.171 184.368L212.357 186.18C212.031 185.976 211.691 185.875 211.339 185.875C210.809 185.875 210.395 186.031 210.096 186.343C209.73 186.737 209.547 187.395 209.547 188.318V192.758H207.551ZM220.147 185.182V184.184H222.142V192.758H220.147V191.862C219.482 192.635 218.626 193.022 217.581 193.022C216.318 193.022 215.307 192.574 214.547 191.678C213.8 190.782 213.427 189.71 213.427 188.461C213.427 187.103 213.827 186.017 214.628 185.203C215.443 184.375 216.434 183.96 217.601 183.96C218.674 183.96 219.522 184.368 220.147 185.182ZM217.846 185.752C217.14 185.752 216.563 186.017 216.115 186.547C215.68 187.076 215.463 187.728 215.463 188.502C215.463 189.262 215.68 189.907 216.115 190.436C216.563 190.966 217.14 191.23 217.846 191.23C218.524 191.23 219.095 190.993 219.556 190.518C220.031 190.042 220.269 189.377 220.269 188.522C220.269 187.64 220.031 186.961 219.556 186.486C219.095 185.997 218.524 185.752 217.846 185.752ZM224.673 192.758V184.184H226.669V184.979C227.225 184.3 227.931 183.96 228.787 183.96C229.778 183.96 230.517 184.381 231.006 185.223C231.59 184.381 232.438 183.96 233.552 183.96C234.665 183.96 235.479 184.408 235.995 185.304C236.294 185.834 236.443 186.553 236.443 187.463V192.758H234.448V188.033C234.448 187.287 234.387 186.777 234.264 186.506C234.074 186.004 233.694 185.752 233.124 185.752C232.635 185.752 232.242 185.963 231.943 186.384C231.685 186.75 231.556 187.402 231.556 188.339V192.758H229.56V188.033C229.56 187.287 229.499 186.777 229.377 186.506C229.187 186.004 228.807 185.752 228.237 185.752C227.748 185.752 227.354 185.963 227.056 186.384C226.798 186.75 226.669 187.402 226.669 188.339V192.758H224.673Z" fill="#0C051E"/>
</g>
<g filter="url(#filter1_d_249_121)">
<rect x="279" y="162.182" width="207.727" height="48.1515" rx="13.5758" fill="white" shape-rendering="crispEdges"/>
<path d="M302.296 179.175H310.971V192.758H308.893V181.13H304.373V187.891C304.373 188.542 304.352 189.072 304.312 189.479C304.271 189.873 304.142 190.321 303.925 190.823C303.721 191.325 303.422 191.739 303.029 192.065C302.364 192.608 301.542 192.88 300.565 192.88C300.28 192.88 299.974 192.839 299.648 192.758V190.843C299.92 190.925 300.171 190.966 300.402 190.966C300.904 190.966 301.311 190.809 301.624 190.497C301.841 190.294 301.997 189.988 302.092 189.581C302.201 189.16 302.262 188.814 302.275 188.542C302.289 188.271 302.296 187.85 302.296 187.28V179.175ZM313.87 184.184H315.866V189.051L321.731 183.411V192.758H319.735V187.768L313.87 193.409V184.184ZM328.894 192.758V189.438C328.283 189.56 327.699 189.622 327.142 189.622C326.165 189.622 325.412 189.411 324.882 188.99C324.325 188.542 324.047 187.857 324.047 186.934V184.184H326.043V186.526C326.043 187.11 326.213 187.504 326.552 187.707C326.783 187.843 327.115 187.911 327.55 187.911C328.038 187.911 328.486 187.836 328.894 187.687V184.184H330.889V192.758H328.894ZM333.418 192.758V184.184H335.414V187.361H338.957V184.184H340.953V192.758H338.957V189.194H335.414V192.758H333.418ZM343.481 192.758V184.184H345.477V187.219H346.617C346.983 187.219 347.282 187.232 347.513 187.259C347.744 187.273 348.022 187.348 348.348 187.483C348.674 187.619 348.959 187.823 349.203 188.094C349.651 188.597 349.875 189.221 349.875 189.968C349.875 190.823 349.617 191.509 349.101 192.024C348.871 192.255 348.592 192.432 348.266 192.554C347.954 192.663 347.689 192.724 347.472 192.737C347.269 192.751 346.977 192.758 346.597 192.758H343.481ZM345.477 191.047H346.393C346.882 191.047 347.228 190.986 347.431 190.864C347.73 190.647 347.879 190.355 347.879 189.988C347.879 189.608 347.737 189.323 347.452 189.133C347.235 188.997 346.888 188.929 346.413 188.929H345.477V191.047ZM350.771 192.758V184.184H352.767V192.758H350.771ZM355.293 184.184H357.289V189.051L363.154 183.411V192.758H361.158V187.768L355.293 193.409V184.184ZM355.945 180.478L357.574 180.01C357.832 180.892 358.389 181.334 359.244 181.334C360.086 181.334 360.642 180.892 360.914 180.01L362.543 180.478C362.326 181.252 361.884 181.849 361.219 182.27C360.568 182.678 359.909 182.881 359.244 182.881C358.579 182.881 357.914 182.678 357.248 182.27C356.597 181.849 356.162 181.252 355.945 180.478ZM370.427 184.184H372.423V187.239L375.274 184.184H377.921L374.174 187.931L378.124 192.758H375.599L372.748 189.235L372.423 189.56V192.758H370.427V184.184ZM385.707 185.182V184.184H387.703V192.758H385.707V191.862C385.042 192.635 384.187 193.022 383.142 193.022C381.879 193.022 380.868 192.574 380.107 191.678C379.361 190.782 378.987 189.71 378.987 188.461C378.987 187.103 379.388 186.017 380.189 185.203C381.003 184.375 381.995 183.96 383.162 183.96C384.235 183.96 385.083 184.368 385.707 185.182ZM383.406 185.752C382.7 185.752 382.123 186.017 381.675 186.547C381.241 187.076 381.024 187.728 381.024 188.502C381.024 189.262 381.241 189.907 381.675 190.436C382.123 190.966 382.7 191.23 383.406 191.23C384.085 191.23 384.655 190.993 385.117 190.518C385.592 190.042 385.83 189.377 385.83 188.522C385.83 187.64 385.592 186.961 385.117 186.486C384.655 185.997 384.085 185.752 383.406 185.752ZM396.709 178.299H398.746C398.596 179.005 398.284 179.616 397.809 180.132C397.334 180.648 396.75 181.001 396.058 181.191L394.714 181.558C394.361 181.653 394.089 181.734 393.899 181.802C393.709 181.87 393.472 181.999 393.187 182.189C392.915 182.365 392.684 182.583 392.494 182.84C392.046 183.438 391.809 184.212 391.781 185.162H391.802C392.399 184.361 393.37 183.96 394.714 183.96C395.922 183.96 396.92 184.368 397.707 185.182C398.535 186.038 398.949 187.124 398.949 188.44C398.949 189.771 398.508 190.871 397.626 191.739C396.757 192.595 395.671 193.022 394.368 193.022C393.064 193.022 392.019 192.642 391.232 191.882C390.797 191.475 390.465 190.972 390.234 190.375C390.003 189.778 389.867 189.289 389.827 188.909C389.799 188.515 389.786 188.04 389.786 187.483C389.786 184.823 390.22 182.861 391.089 181.598C391.741 180.634 392.596 180.024 393.655 179.766L395.08 179.419C396.017 179.189 396.56 178.815 396.709 178.299ZM392.515 190.497C392.976 190.986 393.594 191.23 394.368 191.23C395.141 191.23 395.759 190.986 396.221 190.497C396.682 189.995 396.913 189.33 396.913 188.502C396.913 187.592 396.662 186.906 396.16 186.445C395.671 185.983 395.074 185.752 394.368 185.752C393.662 185.752 393.058 185.983 392.555 186.445C392.067 186.906 391.822 187.592 391.822 188.502C391.822 189.33 392.053 189.995 392.515 190.497ZM401.032 184.184H403.028V189.051L408.892 183.411V192.758H406.897V187.768L401.032 193.409V184.184ZM411.413 192.758V184.184H413.408V187.361H416.952V184.184H418.947V192.758H416.952V189.194H413.408V192.758H411.413ZM427.483 189.866L429.152 190.803C428.772 191.481 428.29 192.004 427.707 192.371C427.041 192.805 426.2 193.022 425.181 193.022C423.987 193.022 423.023 192.656 422.29 191.923C421.448 191.081 421.027 189.988 421.027 188.644C421.027 187.232 421.482 186.058 422.392 185.121C423.165 184.347 424.123 183.96 425.263 183.96C426.376 183.96 427.292 184.334 428.012 185.08C428.813 185.909 429.213 187.117 429.213 188.705V188.95H423.064C423.118 189.669 423.362 190.246 423.797 190.68C424.163 191.047 424.672 191.23 425.324 191.23C425.853 191.23 426.308 191.088 426.688 190.803C427.001 190.558 427.265 190.246 427.483 189.866ZM423.206 187.32H427.177C427.096 186.845 426.892 186.458 426.566 186.16C426.213 185.834 425.765 185.671 425.222 185.671C424.652 185.671 424.184 185.854 423.817 186.221C423.518 186.492 423.315 186.859 423.206 187.32ZM437.205 186.017H434.7V192.758H432.704V186.017H430.199V184.184H437.205V186.017ZM445.834 179.175V184.551H451.658V179.175H453.735V192.758H451.658V186.506H445.834V192.758H443.757V179.175H445.834ZM457.001 179.175H459.424C461.026 179.175 462.221 179.44 463.008 179.969C464.081 180.689 464.617 181.754 464.617 183.166C464.617 184.13 464.339 184.952 463.782 185.63C463.239 186.309 462.513 186.75 461.603 186.954L465.839 192.758H463.334L459.445 187.198H459.078V192.758H457.001V179.175ZM459.078 181.089V185.406H459.73C459.906 185.406 460.083 185.4 460.259 185.386C460.436 185.372 460.673 185.325 460.972 185.243C461.284 185.162 461.549 185.053 461.766 184.918C461.997 184.768 462.194 184.544 462.357 184.246C462.533 183.947 462.621 183.594 462.621 183.187C462.621 181.788 461.678 181.089 459.791 181.089H459.078Z" fill="#0C051E"/>
</g>
<g filter="url(#filter2_d_249_121)">
<rect x="55" y="101.091" width="253.727" height="48.1515" rx="13.5758" fill="white" shape-rendering="crispEdges"/>
<path d="M86.4004 131.667L84.9749 128.388H79.1713L77.6847 131.667H75.4447L82.2055 117.29L88.6404 131.667H86.4004ZM80.0266 126.433H84.14L82.124 121.831L80.0266 126.433ZM89.9895 131.667V123.094H91.9851V126.27H95.5284V123.094H97.524V131.667H95.5284V128.103H91.9851V131.667H89.9895ZM106.324 124.091V123.094H108.32V131.667H106.324V130.771C105.659 131.545 104.803 131.931 103.758 131.931C102.496 131.931 101.484 131.483 100.724 130.587C99.9773 129.691 99.604 128.619 99.604 127.37C99.604 126.012 100.004 124.926 100.805 124.112C101.62 123.284 102.611 122.87 103.779 122.87C104.851 122.87 105.699 123.277 106.324 124.091ZM104.023 124.662C103.317 124.662 102.74 124.926 102.292 125.456C101.858 125.985 101.64 126.637 101.64 127.411C101.64 128.171 101.858 128.816 102.292 129.345C102.74 129.875 103.317 130.139 104.023 130.139C104.702 130.139 105.272 129.902 105.733 129.427C106.209 128.952 106.446 128.286 106.446 127.431C106.446 126.549 106.209 125.87 105.733 125.395C105.272 124.906 104.702 124.662 104.023 124.662ZM117.896 123.094V131.667H115.9V124.926H113.375V128.327C113.375 129.386 113.104 130.207 112.561 130.791C111.868 131.565 110.932 131.857 109.751 131.667V129.834C110.334 129.97 110.803 129.841 111.156 129.447C111.359 129.203 111.461 128.829 111.461 128.327V123.094H117.896ZM120.416 123.094H122.411V127.961L128.276 122.32V131.667H126.28V126.678L120.416 132.318V123.094ZM136.702 124.926H134.197V131.667H132.201V124.926H129.697V123.094H136.702V124.926ZM138.134 123.094H140.13V127.961L145.995 122.32V131.667H143.999V126.678L138.134 132.318V123.094ZM148.515 123.094H150.511V126.148L153.362 123.094H156.009L152.262 126.841L156.212 131.667H153.687L150.836 128.144L150.511 128.47V131.667H148.515V123.094ZM163.796 124.091V123.094H165.791V131.667H163.796V130.771C163.13 131.545 162.275 131.931 161.23 131.931C159.967 131.931 158.956 131.483 158.196 130.587C157.449 129.691 157.076 128.619 157.076 127.37C157.076 126.012 157.476 124.926 158.277 124.112C159.092 123.284 160.083 122.87 161.25 122.87C162.323 122.87 163.171 123.277 163.796 124.091ZM161.494 124.662C160.789 124.662 160.212 124.926 159.764 125.456C159.329 125.985 159.112 126.637 159.112 127.411C159.112 128.171 159.329 128.816 159.764 129.345C160.212 129.875 160.789 130.139 161.494 130.139C162.173 130.139 162.743 129.902 163.205 129.427C163.68 128.952 163.918 128.286 163.918 127.431C163.918 126.549 163.68 125.87 163.205 125.395C162.743 124.906 162.173 124.662 161.494 124.662ZM173.075 123.094H180.528V131.667H178.532V124.926H175.07V131.667H173.075V123.094ZM183.913 124.153C184.795 123.297 185.888 122.87 187.191 122.87C188.495 122.87 189.581 123.297 190.45 124.153C191.332 124.994 191.773 126.074 191.773 127.39C191.773 128.694 191.332 129.78 190.45 130.649C189.581 131.504 188.495 131.931 187.191 131.931C185.888 131.931 184.795 131.504 183.913 130.649C183.044 129.78 182.61 128.694 182.61 127.39C182.61 126.074 183.044 124.994 183.913 124.153ZM185.338 129.406C185.8 129.895 186.418 130.139 187.191 130.139C187.965 130.139 188.583 129.895 189.045 129.406C189.506 128.904 189.737 128.239 189.737 127.411C189.737 126.501 189.486 125.816 188.983 125.354C188.495 124.892 187.897 124.662 187.191 124.662C186.486 124.662 185.881 124.892 185.379 125.354C184.89 125.816 184.646 126.501 184.646 127.411C184.646 128.239 184.877 128.904 185.338 129.406ZM204.881 124.091V123.094H206.876V131.667H204.881V130.771C204.216 131.545 203.36 131.931 202.315 131.931C201.052 131.931 200.041 131.483 199.281 130.587C198.534 129.691 198.161 128.619 198.161 127.37C198.161 126.012 198.561 124.926 199.362 124.112C200.177 123.284 201.168 122.87 202.335 122.87C203.408 122.87 204.256 123.277 204.881 124.091ZM202.58 124.662C201.874 124.662 201.297 124.926 200.849 125.456C200.414 125.985 200.197 126.637 200.197 127.411C200.197 128.171 200.414 128.816 200.849 129.345C201.297 129.875 201.874 130.139 202.58 130.139C203.258 130.139 203.829 129.902 204.29 129.427C204.765 128.952 205.003 128.286 205.003 127.431C205.003 126.549 204.765 125.87 204.29 125.395C203.829 124.906 203.258 124.662 202.58 124.662ZM210.14 123.094H216.575V129.834H217.878V134.11H216.046V131.667H210.059V134.11H208.226V129.834C208.918 129.793 209.441 129.42 209.794 128.714C210.025 128.212 210.14 127.458 210.14 126.454V123.094ZM214.579 129.834V124.926H212.054V127.207C212.054 128.443 211.722 129.318 211.057 129.834H214.579ZM225.582 124.091V123.094H227.578V131.667H225.582V130.771C224.917 131.545 224.062 131.931 223.017 131.931C221.754 131.931 220.743 131.483 219.982 130.587C219.236 129.691 218.862 128.619 218.862 127.37C218.862 126.012 219.263 124.926 220.064 124.112C220.878 123.284 221.87 122.87 223.037 122.87C224.11 122.87 224.958 123.277 225.582 124.091ZM223.281 124.662C222.575 124.662 221.998 124.926 221.55 125.456C221.116 125.985 220.899 126.637 220.899 127.411C220.899 128.171 221.116 128.816 221.55 129.345C221.998 129.875 222.575 130.139 223.281 130.139C223.96 130.139 224.53 129.902 224.992 129.427C225.467 128.952 225.705 128.286 225.705 127.431C225.705 126.549 225.467 125.87 224.992 125.395C224.53 124.906 223.96 124.662 223.281 124.662ZM230.109 123.094H237.562V131.667H235.566V124.926H232.104V131.667H230.109V123.094ZM245.997 124.926H243.492V131.667H241.497V124.926H238.992V123.094H245.997V124.926ZM253.483 124.091V123.094H255.479V131.667H253.483V130.771C252.818 131.545 251.963 131.931 250.917 131.931C249.655 131.931 248.643 131.483 247.883 130.587C247.136 129.691 246.763 128.619 246.763 127.37C246.763 126.012 247.164 124.926 247.965 124.112C248.779 123.284 249.77 122.87 250.938 122.87C252.01 122.87 252.859 123.277 253.483 124.091ZM251.182 124.662C250.476 124.662 249.899 124.926 249.451 125.456C249.017 125.985 248.799 126.637 248.799 127.411C248.799 128.171 249.017 128.816 249.451 129.345C249.899 129.875 250.476 130.139 251.182 130.139C251.861 130.139 252.431 129.902 252.893 129.427C253.368 128.952 253.605 128.286 253.605 127.431C253.605 126.549 253.368 125.87 252.893 125.395C252.431 124.906 251.861 124.662 251.182 124.662ZM258.009 131.667V123.094H260.005V129.834H263.385V123.094H265.381V129.834H266.806V134.11H264.974V131.667H258.009ZM268.231 123.094H270.227V127.961L276.091 122.32V131.667H274.096V126.678L268.231 132.318V123.094ZM278.612 123.094H280.607V127.961L286.472 122.32V131.667H284.476V126.678L278.612 132.318V123.094Z" fill="#0C051E"/>
</g>
<g filter="url(#filter3_d_249_121)">
<rect x="329.061" y="101.091" width="174.727" height="48.1515" rx="13.5758" fill="white" shape-rendering="crispEdges"/>
<path d="M352.417 119.856C353.761 118.512 355.445 117.84 357.467 117.84C359.49 117.84 361.174 118.512 362.518 119.856C363.862 121.2 364.534 122.876 364.534 124.886C364.534 126.895 363.862 128.571 362.518 129.915C361.174 131.259 359.49 131.931 357.467 131.931C355.445 131.931 353.761 131.259 352.417 129.915C351.073 128.571 350.401 126.895 350.401 124.886C350.401 122.876 351.073 121.2 352.417 119.856ZM353.883 128.592C354.82 129.542 356.015 130.017 357.467 130.017C358.92 130.017 360.115 129.542 361.051 128.592C361.988 127.628 362.457 126.393 362.457 124.886C362.457 123.379 361.988 122.15 361.051 121.2C360.115 120.236 358.92 119.754 357.467 119.754C356.015 119.754 354.82 120.236 353.883 121.2C352.947 122.15 352.478 123.379 352.478 124.886C352.478 126.393 352.947 127.628 353.883 128.592ZM373.25 117.209H375.286C375.137 117.915 374.825 118.525 374.35 119.041C373.875 119.557 373.291 119.91 372.598 120.1L371.254 120.467C370.901 120.562 370.63 120.643 370.44 120.711C370.25 120.779 370.012 120.908 369.727 121.098C369.456 121.275 369.225 121.492 369.035 121.75C368.587 122.347 368.349 123.121 368.322 124.071H368.342C368.94 123.27 369.91 122.87 371.254 122.87C372.463 122.87 373.461 123.277 374.248 124.091C375.076 124.947 375.49 126.033 375.49 127.35C375.49 128.68 375.049 129.78 374.166 130.649C373.298 131.504 372.212 131.931 370.908 131.931C369.605 131.931 368.56 131.551 367.772 130.791C367.338 130.384 367.005 129.882 366.774 129.284C366.544 128.687 366.408 128.198 366.367 127.818C366.34 127.424 366.326 126.949 366.326 126.393C366.326 123.732 366.761 121.77 367.63 120.507C368.281 119.544 369.137 118.933 370.196 118.675L371.621 118.329C372.558 118.098 373.101 117.724 373.25 117.209ZM369.055 129.406C369.517 129.895 370.134 130.139 370.908 130.139C371.682 130.139 372.3 129.895 372.761 129.406C373.223 128.904 373.454 128.239 373.454 127.411C373.454 126.501 373.203 125.816 372.7 125.354C372.212 124.892 371.614 124.662 370.908 124.662C370.202 124.662 369.598 124.892 369.096 125.354C368.607 125.816 368.363 126.501 368.363 127.411C368.363 128.239 368.594 128.904 369.055 129.406ZM379.568 130.669V136.33H377.573V123.094H379.568V124.03C380.22 123.257 381.068 122.87 382.114 122.87C383.281 122.87 384.266 123.284 385.067 124.112C385.881 124.926 386.288 125.999 386.288 127.329C386.288 128.7 385.868 129.814 385.026 130.669C384.184 131.511 383.22 131.931 382.134 131.931C381.116 131.931 380.261 131.511 379.568 130.669ZM381.869 124.662C381.191 124.662 380.614 124.906 380.139 125.395C379.677 125.87 379.446 126.549 379.446 127.431C379.446 128.286 379.677 128.952 380.139 129.427C380.614 129.902 381.191 130.139 381.869 130.139C382.575 130.139 383.146 129.875 383.58 129.345C384.028 128.816 384.252 128.171 384.252 127.411C384.252 126.637 384.028 125.985 383.58 125.456C383.146 124.926 382.575 124.662 381.869 124.662ZM394.643 124.091V123.094H396.639V131.667H394.643V130.771C393.978 131.545 393.123 131.931 392.077 131.931C390.815 131.931 389.803 131.483 389.043 130.587C388.296 129.691 387.923 128.619 387.923 127.37C387.923 126.012 388.324 124.926 389.124 124.112C389.939 123.284 390.93 122.87 392.098 122.87C393.17 122.87 394.019 123.277 394.643 124.091ZM392.342 124.662C391.636 124.662 391.059 124.926 390.611 125.456C390.177 125.985 389.959 126.637 389.959 127.411C389.959 128.171 390.177 128.816 390.611 129.345C391.059 129.875 391.636 130.139 392.342 130.139C393.021 130.139 393.591 129.902 394.052 129.427C394.528 128.952 394.765 128.286 394.765 127.431C394.765 126.549 394.528 125.87 394.052 125.395C393.591 124.906 393.021 124.662 392.342 124.662ZM405.075 124.926H402.57V131.667H400.574V124.926H398.07V123.094H405.075V124.926ZM406.507 131.667V123.094H408.503V126.27H412.046V123.094H414.042V131.667H412.046V128.103H408.503V131.667H406.507ZM422.842 124.091V123.094H424.838V131.667H422.842V130.771C422.177 131.545 421.321 131.931 420.276 131.931C419.014 131.931 418.002 131.483 417.242 130.587C416.495 129.691 416.122 128.619 416.122 127.37C416.122 126.012 416.522 124.926 417.323 124.112C418.138 123.284 419.129 122.87 420.296 122.87C421.369 122.87 422.217 123.277 422.842 124.091ZM420.541 124.662C419.835 124.662 419.258 124.926 418.81 125.456C418.375 125.985 418.158 126.637 418.158 127.411C418.158 128.171 418.375 128.816 418.81 129.345C419.258 129.875 419.835 130.139 420.541 130.139C421.22 130.139 421.79 129.902 422.251 129.427C422.727 128.952 422.964 128.286 422.964 127.431C422.964 126.549 422.727 125.87 422.251 125.395C421.79 124.906 421.22 124.662 420.541 124.662ZM426.269 131.667L428.957 128.266C428.427 128.185 427.972 127.967 427.592 127.614C427.117 127.153 426.879 126.562 426.879 125.843C426.879 125.028 427.144 124.37 427.674 123.867C428.217 123.352 429.045 123.094 430.158 123.094H433.355V131.667H431.359V128.51H430.952L428.61 131.667H426.269ZM431.359 126.881V124.804H430.199C429.724 124.804 429.377 124.865 429.16 124.987C428.834 125.191 428.671 125.476 428.671 125.843C428.671 126.209 428.807 126.488 429.079 126.678C429.282 126.813 429.649 126.881 430.178 126.881H431.359ZM447.271 123.481V125.721C446.551 125.015 445.744 124.662 444.848 124.662C444.087 124.662 443.456 124.913 442.954 125.415C442.465 125.904 442.221 126.562 442.221 127.39C442.221 128.246 442.479 128.931 442.995 129.447C443.483 129.909 444.087 130.139 444.807 130.139C445.798 130.139 446.619 129.773 447.271 129.04V131.259C446.551 131.707 445.683 131.931 444.664 131.931C443.293 131.931 442.207 131.511 441.406 130.669C440.592 129.827 440.184 128.755 440.184 127.451C440.184 126.107 440.619 125.001 441.488 124.132C442.329 123.291 443.477 122.87 444.929 122.87C445.757 122.87 446.538 123.073 447.271 123.481ZM449.184 123.094H452.544C453.399 123.094 454.05 123.263 454.498 123.603C455.028 124.024 455.293 124.573 455.293 125.252C455.293 126.026 454.953 126.583 454.274 126.922C454.709 127.003 455.096 127.194 455.435 127.492C455.883 127.899 456.107 128.449 456.107 129.142C456.107 129.97 455.795 130.621 455.17 131.097C454.655 131.477 453.996 131.667 453.195 131.667H449.184V123.094ZM451.179 126.433H452.197C452.55 126.433 452.815 126.372 452.992 126.25C453.249 126.087 453.378 125.856 453.378 125.558C453.378 125.273 453.263 125.049 453.032 124.886C452.869 124.777 452.577 124.723 452.157 124.723H451.179V126.433ZM451.179 130.038H452.666C453.114 130.038 453.46 129.956 453.704 129.793C453.976 129.617 454.112 129.366 454.112 129.04C454.112 128.687 453.983 128.436 453.725 128.286C453.494 128.137 453.161 128.062 452.727 128.062H451.179V130.038ZM457.092 131.667L459.78 128.266C459.251 128.185 458.796 127.967 458.416 127.614C457.941 127.153 457.703 126.562 457.703 125.843C457.703 125.028 457.968 124.37 458.498 123.867C459.041 123.352 459.869 123.094 460.982 123.094H464.179V131.667H462.183V128.51H461.776L459.434 131.667H457.092ZM462.183 126.881V124.804H461.023C460.547 124.804 460.201 124.865 459.984 124.987C459.658 125.191 459.495 125.476 459.495 125.843C459.495 126.209 459.631 126.488 459.903 126.678C460.106 126.813 460.473 126.881 461.002 126.881H462.183ZM467.864 125.313L466.581 124.193C466.907 123.8 467.341 123.481 467.885 123.236C468.455 122.992 469.127 122.87 469.901 122.87C470.797 122.87 471.523 123.067 472.079 123.46C472.677 123.895 472.975 124.478 472.975 125.211C472.975 125.687 472.853 126.08 472.609 126.393C472.405 126.664 472.134 126.868 471.794 127.003C472.31 127.112 472.724 127.323 473.037 127.635C473.403 128.001 473.586 128.476 473.586 129.06C473.586 129.834 473.342 130.465 472.853 130.954C472.202 131.606 471.197 131.931 469.839 131.931C468.93 131.931 468.183 131.762 467.599 131.422C466.989 131.069 466.541 130.56 466.255 129.895L467.844 129.081C468.034 129.488 468.285 129.787 468.597 129.977C468.937 130.194 469.364 130.302 469.88 130.302C470.505 130.302 470.959 130.16 471.245 129.875C471.448 129.644 471.55 129.393 471.55 129.121C471.55 128.836 471.462 128.605 471.285 128.429C471.054 128.185 470.579 128.062 469.86 128.062H468.964V126.433H469.717C470.152 126.433 470.477 126.359 470.695 126.209C470.939 126.019 471.061 125.768 471.061 125.456C471.061 125.13 470.939 124.886 470.695 124.723C470.491 124.573 470.172 124.499 469.738 124.499C469.33 124.499 468.957 124.58 468.618 124.743C468.333 124.879 468.081 125.069 467.864 125.313ZM475.672 131.667V123.094H477.668V126.128H478.808C479.175 126.128 479.473 126.141 479.704 126.169C479.935 126.182 480.213 126.257 480.539 126.393C480.865 126.528 481.15 126.732 481.394 127.003C481.842 127.506 482.066 128.13 482.066 128.877C482.066 129.732 481.808 130.418 481.293 130.934C481.062 131.164 480.783 131.341 480.458 131.463C480.145 131.572 479.881 131.633 479.663 131.646C479.46 131.66 479.168 131.667 478.788 131.667H475.672ZM477.668 129.956H478.584C479.073 129.956 479.419 129.895 479.623 129.773C479.921 129.556 480.071 129.264 480.071 128.897C480.071 128.517 479.928 128.232 479.643 128.042C479.426 127.906 479.08 127.838 478.605 127.838H477.668V129.956Z" fill="#0C051E"/>
</g>
<g filter="url(#filter4_d_249_121)">
<rect x="139.849" y="40" width="179.727" height="48.1515" rx="13.5758" fill="white" shape-rendering="crispEdges"/>
<path d="M161.841 56.9931H171.819V70.5757H169.742V58.948H163.918V70.5757H161.841V56.9931ZM181.765 62.0026V70.5757H179.769V63.8353H177.244V67.236C177.244 68.295 176.972 69.1163 176.429 69.7C175.737 70.4739 174.8 70.7657 173.619 70.5757V68.743C174.203 68.8787 174.671 68.7497 175.024 68.356C175.228 68.1117 175.33 67.7384 175.33 67.236V62.0026H181.765ZM190.556 63.0004V62.0026H192.552V70.5757H190.556V69.6797C189.891 70.4535 189.036 70.8404 187.99 70.8404C186.728 70.8404 185.716 70.3924 184.956 69.4964C184.209 68.6004 183.836 67.5279 183.836 66.279C183.836 64.9214 184.237 63.8353 185.038 63.0208C185.852 62.1927 186.843 61.7786 188.011 61.7786C189.083 61.7786 189.932 62.1859 190.556 63.0004ZM188.255 63.5706C187.549 63.5706 186.972 63.8353 186.524 64.3648C186.09 64.8942 185.872 65.5459 185.872 66.3197C185.872 67.0799 186.09 67.7248 186.524 68.2542C186.972 68.7837 187.549 69.0484 188.255 69.0484C188.934 69.0484 189.504 68.8108 189.966 68.3357C190.441 67.8605 190.678 67.1953 190.678 66.34C190.678 65.4576 190.441 64.7788 189.966 64.3037C189.504 63.815 188.934 63.5706 188.255 63.5706ZM195.082 70.5757V62.0026H197.078V65.1793H200.621V62.0026H202.617V70.5757H200.621V67.012H197.078V70.5757H195.082ZM216.17 63.0004V62.0026H218.165V70.5757H216.17V69.6797C215.505 70.4535 214.649 70.8404 213.604 70.8404C212.341 70.8404 211.33 70.3924 210.57 69.4964C209.823 68.6004 209.45 67.5279 209.45 66.279C209.45 64.9214 209.85 63.8353 210.651 63.0208C211.466 62.1927 212.457 61.7786 213.624 61.7786C214.697 61.7786 215.545 62.1859 216.17 63.0004ZM213.869 63.5706C213.163 63.5706 212.586 63.8353 212.138 64.3648C211.703 64.8942 211.486 65.5459 211.486 66.3197C211.486 67.0799 211.703 67.7248 212.138 68.2542C212.586 68.7837 213.163 69.0484 213.869 69.0484C214.547 69.0484 215.118 68.8108 215.579 68.3357C216.054 67.8605 216.292 67.1953 216.292 66.34C216.292 65.4576 216.054 64.7788 215.579 64.3037C215.118 63.815 214.547 63.5706 213.869 63.5706ZM221.429 62.0026H227.864V68.743H229.167V73.0193H227.335V70.5757H221.348V73.0193H219.515V68.743C220.207 68.7022 220.73 68.3289 221.083 67.623C221.314 67.1207 221.429 66.3672 221.429 65.3626V62.0026ZM225.868 68.743V63.8353H223.343V66.116C223.343 67.3514 223.011 68.2271 222.346 68.743H225.868ZM236.871 63.0004V62.0026H238.867V70.5757H236.871V69.6797C236.206 70.4535 235.351 70.8404 234.306 70.8404C233.043 70.8404 232.032 70.3924 231.271 69.4964C230.525 68.6004 230.151 67.5279 230.151 66.279C230.151 64.9214 230.552 63.8353 231.353 63.0208C232.167 62.1927 233.158 61.7786 234.326 61.7786C235.398 61.7786 236.247 62.1859 236.871 63.0004ZM234.57 63.5706C233.864 63.5706 233.287 63.8353 232.839 64.3648C232.405 64.8942 232.188 65.5459 232.188 66.3197C232.188 67.0799 232.405 67.7248 232.839 68.2542C233.287 68.7837 233.864 69.0484 234.57 69.0484C235.249 69.0484 235.819 68.8108 236.281 68.3357C236.756 67.8605 236.994 67.1953 236.994 66.34C236.994 65.4576 236.756 64.7788 236.281 64.3037C235.819 63.815 235.249 63.5706 234.57 63.5706ZM241.398 62.0026H248.851V70.5757H246.855V63.8353H243.393V70.5757H241.398V62.0026ZM257.286 63.8353H254.781V70.5757H252.786V63.8353H250.281V62.0026H257.286V63.8353ZM264.772 63.0004V62.0026H266.768V70.5757H264.772V69.6797C264.107 70.4535 263.252 70.8404 262.206 70.8404C260.944 70.8404 259.932 70.3924 259.172 69.4964C258.425 68.6004 258.052 67.5279 258.052 66.279C258.052 64.9214 258.453 63.8353 259.253 63.0208C260.068 62.1927 261.059 61.7786 262.227 61.7786C263.299 61.7786 264.148 62.1859 264.772 63.0004ZM262.471 63.5706C261.765 63.5706 261.188 63.8353 260.74 64.3648C260.306 64.8942 260.088 65.5459 260.088 66.3197C260.088 67.0799 260.306 67.7248 260.74 68.2542C261.188 68.7837 261.765 69.0484 262.471 69.0484C263.15 69.0484 263.72 68.8108 264.181 68.3357C264.657 67.8605 264.894 67.1953 264.894 66.34C264.894 65.4576 264.657 64.7788 264.181 64.3037C263.72 63.815 263.15 63.5706 262.471 63.5706ZM269.298 70.5757V62.0026H271.294V68.743H274.674V62.0026H276.67V68.743H278.095V73.0193H276.263V70.5757H269.298ZM279.52 62.0026H281.516V66.8695L287.38 61.2288V70.5757H285.385V65.5866L279.52 71.2273V62.0026ZM289.901 62.0026H291.896V66.8695L297.761 61.2288V70.5757H295.765V65.5866L289.901 71.2273V62.0026Z" fill="#0C051E"/>
</g>
<g filter="url(#filter5_d_249_121)">
<rect x="340.091" y="40" width="78.7273" height="48.1515" rx="13.5758" fill="white" shape-rendering="crispEdges"/>
<path d="M368.885 56.9931V58.948H364.16V62.3895H368.722V64.3444H364.16V70.5757H362.083V56.9931H368.885ZM380.122 70.5757L378.696 67.2971H372.893L371.406 70.5757H369.166L375.927 56.199L382.362 70.5757H380.122ZM373.748 65.3422H377.862L375.846 60.74L373.748 65.3422ZM395.02 70.8404L394.002 69.8222C392.929 70.501 391.66 70.8404 390.194 70.8404C388.157 70.8404 386.467 70.1752 385.123 68.8448C383.793 67.5008 383.128 65.8174 383.128 63.7946C383.128 61.7854 383.8 60.1088 385.144 58.7648C386.488 57.4208 388.171 56.7488 390.194 56.7488C392.217 56.7488 393.9 57.4276 395.244 58.7851C396.588 60.1291 397.26 61.799 397.26 63.7946C397.26 65.6952 396.635 67.3175 395.386 68.6615L397.586 70.8404H395.02ZM391.904 65.1997L393.981 67.2564C394.782 66.3333 395.183 65.1793 395.183 63.7946C395.183 62.2877 394.714 61.0591 393.778 60.1088C392.841 59.1449 391.646 58.663 390.194 58.663C388.741 58.663 387.546 59.1449 386.61 60.1088C385.673 61.0591 385.205 62.2877 385.205 63.7946C385.205 65.3015 385.673 66.5369 386.61 67.5008C387.546 68.4511 388.741 68.9262 390.194 68.9262C391.076 68.9262 391.857 68.7497 392.536 68.3968L389.318 65.1997H391.904Z" fill="#0C051E"/>
</g>
<defs>
<filter id="filter0_d_249_121" x="16.8181" y="122.303" width="296.334" height="156.758" filterUnits="userSpaceOnUse" color-interpolation-filters="sRGB">
<feFlood flood-opacity="0" result="BackgroundImageFix"/>
<feColorMatrix in="SourceAlpha" type="matrix" values="0 0 0 0 0 0 0 0 0 0 0 0 0 0 0 0 0 0 127 0" result="hardAlpha"/>
<feOffset dy="14.4242"/>
<feGaussianBlur stdDeviation="27.1515"/>
<feComposite in2="hardAlpha" operator="out"/>
<feColorMatrix type="matrix" values="0 0 0 0 0.501961 0 0 0 0 0.435294 0 0 0 0 0.960784 0 0 0 0.16 0"/>
<feBlend mode="normal" in2="BackgroundImageFix" result="effect1_dropShadow_249_121"/>
<feBlend mode="normal" in="SourceGraphic" in2="effect1_dropShadow_249_121" result="shape"/>
</filter>
<filter id="filter1_d_249_121" x="224.697" y="122.303" width="316.334" height="156.758" filterUnits="userSpaceOnUse" color-interpolation-filters="sRGB">
<feFlood flood-opacity="0" result="BackgroundImageFix"/>
<feColorMatrix in="SourceAlpha" type="matrix" values="0 0 0 0 0 0 0 0 0 0 0 0 0 0 0 0 0 0 127 0" result="hardAlpha"/>
<feOffset dy="14.4242"/>
<feGaussianBlur stdDeviation="27.1515"/>
<feComposite in2="hardAlpha" operator="out"/>
<feColorMatrix type="matrix" values="0 0 0 0 0.501961 0 0 0 0 0.435294 0 0 0 0 0.960784 0 0 0 0.16 0"/>
<feBlend mode="normal" in2="BackgroundImageFix" result="effect1_dropShadow_249_121"/>
<feBlend mode="normal" in="SourceGraphic" in2="effect1_dropShadow_249_121" result="shape"/>
</filter>
<filter id="filter2_d_249_121" x="0.696968" y="61.212" width="362.334" height="156.758" filterUnits="userSpaceOnUse" color-interpolation-filters="sRGB">
<feFlood flood-opacity="0" result="BackgroundImageFix"/>
<feColorMatrix in="SourceAlpha" type="matrix" values="0 0 0 0 0 0 0 0 0 0 0 0 0 0 0 0 0 0 127 0" result="hardAlpha"/>
<feOffset dy="14.4242"/>
<feGaussianBlur stdDeviation="27.1515"/>
<feComposite in2="hardAlpha" operator="out"/>
<feColorMatrix type="matrix" values="0 0 0 0 0.501961 0 0 0 0 0.435294 0 0 0 0 0.960784 0 0 0 0.16 0"/>
<feBlend mode="normal" in2="BackgroundImageFix" result="effect1_dropShadow_249_121"/>
<feBlend mode="normal" in="SourceGraphic" in2="effect1_dropShadow_249_121" result="shape"/>
</filter>
<filter id="filter3_d_249_121" x="274.758" y="61.212" width="283.334" height="156.758" filterUnits="userSpaceOnUse" color-interpolation-filters="sRGB">
<feFlood flood-opacity="0" result="BackgroundImageFix"/>
<feColorMatrix in="SourceAlpha" type="matrix" values="0 0 0 0 0 0 0 0 0 0 0 0 0 0 0 0 0 0 127 0" result="hardAlpha"/>
<feOffset dy="14.4242"/>
<feGaussianBlur stdDeviation="27.1515"/>
<feComposite in2="hardAlpha" operator="out"/>
<feColorMatrix type="matrix" values="0 0 0 0 0.501961 0 0 0 0 0.435294 0 0 0 0 0.960784 0 0 0 0.16 0"/>
<feBlend mode="normal" in2="BackgroundImageFix" result="effect1_dropShadow_249_121"/>
<feBlend mode="normal" in="SourceGraphic" in2="effect1_dropShadow_249_121" result="shape"/>
</filter>
<filter id="filter4_d_249_121" x="85.5456" y="0.121211" width="288.334" height="156.758" filterUnits="userSpaceOnUse" color-interpolation-filters="sRGB">
<feFlood flood-opacity="0" result="BackgroundImageFix"/>
<feColorMatrix in="SourceAlpha" type="matrix" values="0 0 0 0 0 0 0 0 0 0 0 0 0 0 0 0 0 0 127 0" result="hardAlpha"/>
<feOffset dy="14.4242"/>
<feGaussianBlur stdDeviation="27.1515"/>
<feComposite in2="hardAlpha" operator="out"/>
<feColorMatrix type="matrix" values="0 0 0 0 0.501961 0 0 0 0 0.435294 0 0 0 0 0.960784 0 0 0 0.16 0"/>
<feBlend mode="normal" in2="BackgroundImageFix" result="effect1_dropShadow_249_121"/>
<feBlend mode="normal" in="SourceGraphic" in2="effect1_dropShadow_249_121" result="shape"/>
</filter>
<filter id="filter5_d_249_121" x="285.788" y="0.121211" width="187.334" height="156.758" filterUnits="userSpaceOnUse" color-interpolation-filters="sRGB">
<feFlood flood-opacity="0" result="BackgroundImageFix"/>
<feColorMatrix in="SourceAlpha" type="matrix" values="0 0 0 0 0 0 0 0 0 0 0 0 0 0 0 0 0 0 127 0" result="hardAlpha"/>
<feOffset dy="14.4242"/>
<feGaussianBlur stdDeviation="27.1515"/>
<feComposite in2="hardAlpha" operator="out"/>
<feColorMatrix type="matrix" values="0 0 0 0 0.501961 0 0 0 0 0.435294 0 0 0 0 0.960784 0 0 0 0.16 0"/>
<feBlend mode="normal" in2="BackgroundImageFix" result="effect1_dropShadow_249_121"/>
<feBlend mode="normal" in="SourceGraphic" in2="effect1_dropShadow_249_121" result="shape"/>
</filter>
</defs>
</svg>
