<svg width="641" height="344" viewBox="0 0 641 344" fill="none" xmlns="http://www.w3.org/2000/svg">
<g filter="url(#filter0_d_207_2018)">
<rect x="64" y="47" width="212" height="56" rx="16" fill="white" shape-rendering="crispEdges"/>
<path d="M89.92 66.992H101.68V83H99.232V69.296H92.368V83H89.92V66.992ZM113.401 72.896V83H111.049V75.056H108.073V79.064C108.073 80.312 107.753 81.28 107.113 81.968C106.297 82.88 105.193 83.224 103.801 83V80.84C104.489 81 105.041 80.848 105.457 80.384C105.697 80.096 105.817 79.656 105.817 79.064V72.896H113.401ZM123.763 74.072V72.896H126.115V83H123.763V81.944C122.979 82.856 121.971 83.312 120.739 83.312C119.251 83.312 118.059 82.784 117.163 81.728C116.283 80.672 115.843 79.408 115.843 77.936C115.843 76.336 116.315 75.056 117.259 74.096C118.219 73.12 119.387 72.632 120.763 72.632C122.027 72.632 123.027 73.112 123.763 74.072ZM121.051 74.744C120.219 74.744 119.539 75.056 119.011 75.68C118.499 76.304 118.243 77.072 118.243 77.984C118.243 78.88 118.499 79.64 119.011 80.264C119.539 80.888 120.219 81.2 121.051 81.2C121.851 81.2 122.523 80.92 123.067 80.36C123.627 79.8 123.907 79.016 123.907 78.008C123.907 76.968 123.627 76.168 123.067 75.608C122.523 75.032 121.851 74.744 121.051 74.744ZM129.097 83V72.896H131.449V76.64H135.625V72.896H137.977V83H135.625V78.8H131.449V83H129.097ZM153.95 74.072V72.896H156.302V83H153.95V81.944C153.166 82.856 152.158 83.312 150.926 83.312C149.438 83.312 148.246 82.784 147.35 81.728C146.47 80.672 146.03 79.408 146.03 77.936C146.03 76.336 146.502 75.056 147.446 74.096C148.406 73.12 149.574 72.632 150.95 72.632C152.214 72.632 153.214 73.112 153.95 74.072ZM151.238 74.744C150.406 74.744 149.726 75.056 149.198 75.68C148.686 76.304 148.43 77.072 148.43 77.984C148.43 78.88 148.686 79.64 149.198 80.264C149.726 80.888 150.406 81.2 151.238 81.2C152.038 81.2 152.71 80.92 153.254 80.36C153.814 79.8 154.094 79.016 154.094 78.008C154.094 76.968 153.814 76.168 153.254 75.608C152.71 75.032 152.038 74.744 151.238 74.744ZM160.149 72.896H167.733V80.84H169.269V85.88H167.109V83H160.053V85.88H157.893V80.84C158.709 80.792 159.325 80.352 159.741 79.52C160.013 78.928 160.149 78.04 160.149 76.856V72.896ZM165.381 80.84V75.056H162.405V77.744C162.405 79.2 162.013 80.232 161.229 80.84H165.381ZM178.349 74.072V72.896H180.701V83H178.349V81.944C177.565 82.856 176.557 83.312 175.325 83.312C173.837 83.312 172.645 82.784 171.749 81.728C170.869 80.672 170.429 79.408 170.429 77.936C170.429 76.336 170.901 75.056 171.845 74.096C172.805 73.12 173.973 72.632 175.349 72.632C176.613 72.632 177.613 73.112 178.349 74.072ZM175.637 74.744C174.805 74.744 174.125 75.056 173.597 75.68C173.085 76.304 172.829 77.072 172.829 77.984C172.829 78.88 173.085 79.64 173.597 80.264C174.125 80.888 174.805 81.2 175.637 81.2C176.437 81.2 177.109 80.92 177.653 80.36C178.213 79.8 178.493 79.016 178.493 78.008C178.493 76.968 178.213 76.168 177.653 75.608C177.109 75.032 176.437 74.744 175.637 74.744ZM183.683 72.896H192.467V83H190.115V75.056H186.035V83H183.683V72.896ZM202.409 75.056H199.457V83H197.105V75.056H194.153V72.896H202.409V75.056ZM211.232 74.072V72.896H213.584V83H211.232V81.944C210.448 82.856 209.44 83.312 208.208 83.312C206.72 83.312 205.528 82.784 204.632 81.728C203.752 80.672 203.312 79.408 203.312 77.936C203.312 76.336 203.784 75.056 204.728 74.096C205.688 73.12 206.856 72.632 208.232 72.632C209.496 72.632 210.496 73.112 211.232 74.072ZM208.52 74.744C207.688 74.744 207.008 75.056 206.48 75.68C205.968 76.304 205.712 77.072 205.712 77.984C205.712 78.88 205.968 79.64 206.48 80.264C207.008 80.888 207.688 81.2 208.52 81.2C209.32 81.2 209.992 80.92 210.536 80.36C211.096 79.8 211.376 79.016 211.376 78.008C211.376 76.968 211.096 76.168 210.536 75.608C209.992 75.032 209.32 74.744 208.52 74.744ZM216.566 83V72.896H218.918V80.84H222.902V72.896H225.254V80.84H226.934V85.88H224.774V83H216.566ZM228.613 72.896H230.965V78.632L237.877 71.984V83H235.525V77.12L228.613 83.768V72.896ZM240.847 72.896H243.199V78.632L250.111 71.984V83H247.759V77.12L240.847 83.768V72.896Z" fill="#0C051E"/>
</g>
<g filter="url(#filter1_d_207_2018)">
<rect x="64" y="207" width="221" height="56" rx="16" fill="white" shape-rendering="crispEdges"/>
<path d="M98.176 243V236.424C96.72 236.536 95.632 236.592 94.912 236.592C93.136 236.592 91.832 236.264 91 235.608C89.96 234.792 89.44 233.496 89.44 231.72V226.992H91.888V231.36C91.888 232.56 92.176 233.384 92.752 233.832C93.184 234.168 94.032 234.336 95.296 234.336C96.208 234.336 97.168 234.28 98.176 234.168V226.992H100.624V243H98.176ZM111.435 234.072V232.896H113.787V243H111.435V241.944C110.651 242.856 109.643 243.312 108.411 243.312C106.923 243.312 105.731 242.784 104.835 241.728C103.955 240.672 103.515 239.408 103.515 237.936C103.515 236.336 103.987 235.056 104.931 234.096C105.891 233.12 107.059 232.632 108.435 232.632C109.699 232.632 110.699 233.112 111.435 234.072ZM108.723 234.744C107.891 234.744 107.211 235.056 106.683 235.68C106.171 236.304 105.915 237.072 105.915 237.984C105.915 238.88 106.171 239.64 106.683 240.264C107.211 240.888 107.891 241.2 108.723 241.2C109.523 241.2 110.195 240.92 110.739 240.36C111.299 239.8 111.579 239.016 111.579 238.008C111.579 236.968 111.299 236.168 110.739 235.608C110.195 235.032 109.523 234.744 108.723 234.744ZM123.729 235.056H120.777V243H118.425V235.056H115.473V232.896H123.729V235.056ZM126.138 239.112V236.664H131.898V239.112H126.138ZM142.214 225.96H144.614C144.438 226.792 144.07 227.512 143.51 228.12C142.95 228.728 142.262 229.144 141.446 229.368L139.862 229.8C139.446 229.912 139.126 230.008 138.902 230.088C138.678 230.168 138.398 230.32 138.062 230.544C137.742 230.752 137.47 231.008 137.246 231.312C136.718 232.016 136.438 232.928 136.406 234.048H136.43C137.134 233.104 138.278 232.632 139.862 232.632C141.286 232.632 142.462 233.112 143.39 234.072C144.366 235.08 144.854 236.36 144.854 237.912C144.854 239.48 144.334 240.776 143.294 241.8C142.27 242.808 140.99 243.312 139.454 243.312C137.918 243.312 136.686 242.864 135.758 241.968C135.246 241.488 134.854 240.896 134.582 240.192C134.31 239.488 134.15 238.912 134.102 238.464C134.07 238 134.054 237.44 134.054 236.784C134.054 233.648 134.566 231.336 135.59 229.848C136.358 228.712 137.366 227.992 138.614 227.688L140.294 227.28C141.398 227.008 142.038 226.568 142.214 225.96ZM137.27 240.336C137.814 240.912 138.542 241.2 139.454 241.2C140.366 241.2 141.094 240.912 141.638 240.336C142.182 239.744 142.454 238.96 142.454 237.984C142.454 236.912 142.158 236.104 141.566 235.56C140.99 235.016 140.286 234.744 139.454 234.744C138.622 234.744 137.91 235.016 137.318 235.56C136.742 236.104 136.454 236.912 136.454 237.984C136.454 238.96 136.726 239.744 137.27 240.336ZM148.316 234.144C149.356 233.136 150.644 232.632 152.18 232.632C153.716 232.632 154.996 233.136 156.02 234.144C157.06 235.136 157.58 236.408 157.58 237.96C157.58 239.496 157.06 240.776 156.02 241.8C154.996 242.808 153.716 243.312 152.18 243.312C150.644 243.312 149.356 242.808 148.316 241.8C147.292 240.776 146.78 239.496 146.78 237.96C146.78 236.408 147.292 235.136 148.316 234.144ZM149.996 240.336C150.54 240.912 151.268 241.2 152.18 241.2C153.092 241.2 153.82 240.912 154.364 240.336C154.908 239.744 155.18 238.96 155.18 237.984C155.18 236.912 154.884 236.104 154.292 235.56C153.716 235.016 153.012 234.744 152.18 234.744C151.348 234.744 150.636 235.016 150.044 235.56C149.468 236.104 149.18 236.912 149.18 237.984C149.18 238.96 149.452 239.744 149.996 240.336ZM166.995 235.056H164.043V243H161.691V235.056H158.739V232.896H166.995V235.056ZM182.829 229.296H179.157V243H176.709V229.296H173.037V226.992H182.829V229.296ZM190.67 239.592L192.638 240.696C192.19 241.496 191.622 242.112 190.934 242.544C190.15 243.056 189.158 243.312 187.958 243.312C186.55 243.312 185.414 242.88 184.55 242.016C183.558 241.024 183.062 239.736 183.062 238.152C183.062 236.488 183.598 235.104 184.67 234C185.582 233.088 186.71 232.632 188.054 232.632C189.366 232.632 190.446 233.072 191.294 233.952C192.238 234.928 192.71 236.352 192.71 238.224V238.512H185.462C185.526 239.36 185.814 240.04 186.326 240.552C186.758 240.984 187.358 241.2 188.126 241.2C188.75 241.2 189.286 241.032 189.734 240.696C190.102 240.408 190.414 240.04 190.67 239.592ZM185.63 236.592H190.31C190.214 236.032 189.974 235.576 189.59 235.224C189.174 234.84 188.646 234.648 188.006 234.648C187.334 234.648 186.782 234.864 186.35 235.296C185.998 235.616 185.758 236.048 185.63 236.592ZM195.168 225.504H197.52V243H195.168V225.504ZM207.568 239.592L209.536 240.696C209.088 241.496 208.52 242.112 207.832 242.544C207.048 243.056 206.056 243.312 204.856 243.312C203.448 243.312 202.312 242.88 201.448 242.016C200.456 241.024 199.96 239.736 199.96 238.152C199.96 236.488 200.496 235.104 201.568 234C202.48 233.088 203.608 232.632 204.952 232.632C206.264 232.632 207.344 233.072 208.192 233.952C209.136 234.928 209.608 236.352 209.608 238.224V238.512H202.36C202.424 239.36 202.712 240.04 203.224 240.552C203.656 240.984 204.256 241.2 205.024 241.2C205.648 241.2 206.184 241.032 206.632 240.696C207 240.408 207.312 240.04 207.568 239.592ZM202.528 236.592H207.208C207.112 236.032 206.872 235.576 206.488 235.224C206.072 234.84 205.544 234.648 204.904 234.648C204.232 234.648 203.68 234.864 203.248 235.296C202.896 235.616 202.656 236.048 202.528 236.592ZM219.458 234V232.896H221.81V242.184C221.81 243.496 221.698 244.56 221.474 245.376C221.25 246.208 220.81 246.896 220.154 247.44C219.274 248.16 218.154 248.52 216.794 248.52C215.418 248.52 214.314 248.104 213.482 247.272C212.666 246.456 212.17 245.408 211.994 244.128H214.274C214.386 244.768 214.634 245.296 215.018 245.712C215.45 246.176 216.058 246.408 216.842 246.408C217.626 246.408 218.242 246.184 218.69 245.736C219.202 245.24 219.458 244.392 219.458 243.192V241.872C218.706 242.832 217.682 243.312 216.386 243.312C215.026 243.312 213.914 242.856 213.05 241.944C212.042 240.888 211.538 239.552 211.538 237.936C211.538 236.32 212.034 235.016 213.026 234.024C213.938 233.096 215.082 232.632 216.458 232.632C217.69 232.632 218.69 233.088 219.458 234ZM216.746 234.744C216.026 234.744 215.434 234.968 214.97 235.416C214.282 236.056 213.938 236.912 213.938 237.984C213.938 239.088 214.274 239.936 214.946 240.528C215.458 240.976 216.058 241.2 216.746 241.2C217.53 241.2 218.186 240.928 218.714 240.384C219.306 239.744 219.602 238.952 219.602 238.008C219.602 236.92 219.282 236.072 218.642 235.464C218.162 234.984 217.53 234.744 216.746 234.744ZM224.793 243V232.896H227.145V233.808C227.449 233.456 227.777 233.176 228.129 232.968C228.513 232.744 228.993 232.632 229.569 232.632C230.257 232.632 230.873 232.792 231.417 233.112L230.457 235.248C230.073 235.008 229.673 234.888 229.257 234.888C228.633 234.888 228.145 235.072 227.793 235.44C227.361 235.904 227.145 236.68 227.145 237.768V243H224.793ZM239.638 234.072V232.896H241.99V243H239.638V241.944C238.854 242.856 237.846 243.312 236.614 243.312C235.126 243.312 233.934 242.784 233.038 241.728C232.158 240.672 231.718 239.408 231.718 237.936C231.718 236.336 232.19 235.056 233.134 234.096C234.094 233.12 235.262 232.632 236.638 232.632C237.902 232.632 238.902 233.112 239.638 234.072ZM236.926 234.744C236.094 234.744 235.414 235.056 234.886 235.68C234.374 236.304 234.118 237.072 234.118 237.984C234.118 238.88 234.374 239.64 234.886 240.264C235.414 240.888 236.094 241.2 236.926 241.2C237.726 241.2 238.398 240.92 238.942 240.36C239.502 239.8 239.782 239.016 239.782 238.008C239.782 236.968 239.502 236.168 238.942 235.608C238.398 235.032 237.726 234.744 236.926 234.744ZM244.972 243V232.896H247.324V233.832C247.98 233.032 248.812 232.632 249.82 232.632C250.988 232.632 251.86 233.128 252.436 234.12C253.124 233.128 254.124 232.632 255.436 232.632C256.748 232.632 257.708 233.16 258.316 234.216C258.668 234.84 258.844 235.688 258.844 236.76V243H256.492V237.432C256.492 236.552 256.42 235.952 256.276 235.632C256.052 235.04 255.604 234.744 254.932 234.744C254.356 234.744 253.892 234.992 253.54 235.488C253.236 235.92 253.084 236.688 253.084 237.792V243H250.732V237.432C250.732 236.552 250.66 235.952 250.516 235.632C250.292 235.04 249.844 234.744 249.172 234.744C248.596 234.744 248.132 234.992 247.78 235.488C247.476 235.92 247.324 236.688 247.324 237.792V243H244.972Z" fill="#0C051E"/>
</g>
<g filter="url(#filter2_d_207_2018)">
<rect x="309" y="207" width="245" height="56" rx="16" fill="white" shape-rendering="crispEdges"/>
<path d="M336.456 226.992H346.68V243H344.232V229.296H338.904V237.264C338.904 238.032 338.88 238.656 338.832 239.136C338.784 239.6 338.632 240.128 338.376 240.72C338.136 241.312 337.784 241.8 337.32 242.184C336.536 242.824 335.568 243.144 334.416 243.144C334.08 243.144 333.72 243.096 333.336 243V240.744C333.656 240.84 333.952 240.888 334.224 240.888C334.816 240.888 335.296 240.704 335.664 240.336C335.92 240.096 336.104 239.736 336.216 239.256C336.344 238.76 336.416 238.352 336.432 238.032C336.448 237.712 336.456 237.216 336.456 236.544V226.992ZM350.097 232.896H352.449V238.632L359.361 231.984V243H357.009V237.12L350.097 243.768V232.896ZM367.804 243V239.088C367.084 239.232 366.396 239.304 365.74 239.304C364.588 239.304 363.7 239.056 363.076 238.56C362.42 238.032 362.092 237.224 362.092 236.136V232.896H364.444V235.656C364.444 236.344 364.644 236.808 365.044 237.048C365.316 237.208 365.708 237.288 366.22 237.288C366.796 237.288 367.324 237.2 367.804 237.024V232.896H370.156V243H367.804ZM373.136 243V232.896H375.488V236.64H379.664V232.896H382.016V243H379.664V238.8H375.488V243H373.136ZM384.996 243V232.896H387.348V236.472H388.692C389.124 236.472 389.476 236.488 389.748 236.52C390.02 236.536 390.348 236.624 390.732 236.784C391.116 236.944 391.452 237.184 391.74 237.504C392.268 238.096 392.532 238.832 392.532 239.712C392.532 240.72 392.228 241.528 391.62 242.136C391.348 242.408 391.02 242.616 390.636 242.76C390.268 242.888 389.956 242.96 389.7 242.976C389.46 242.992 389.116 243 388.668 243H384.996ZM387.348 240.984H388.428C389.004 240.984 389.412 240.912 389.652 240.768C390.004 240.512 390.18 240.168 390.18 239.736C390.18 239.288 390.012 238.952 389.676 238.728C389.42 238.568 389.012 238.488 388.452 238.488H387.348V240.984ZM393.588 243V232.896H395.94V243H393.588ZM398.918 232.896H401.27V238.632L408.182 231.984V243H405.83V237.12L398.918 243.768V232.896ZM399.686 228.528L401.606 227.976C401.91 229.016 402.566 229.536 403.574 229.536C404.566 229.536 405.222 229.016 405.542 227.976L407.462 228.528C407.206 229.44 406.686 230.144 405.902 230.64C405.134 231.12 404.358 231.36 403.574 231.36C402.79 231.36 402.006 231.12 401.222 230.64C400.454 230.144 399.942 229.44 399.686 228.528ZM416.754 232.896H419.106V236.496L422.466 232.896H425.586L421.17 237.312L425.826 243H422.85L419.49 238.848L419.106 239.232V243H416.754V232.896ZM434.763 234.072V232.896H437.115V243H434.763V241.944C433.979 242.856 432.971 243.312 431.739 243.312C430.251 243.312 429.059 242.784 428.163 241.728C427.283 240.672 426.843 239.408 426.843 237.936C426.843 236.336 427.315 235.056 428.259 234.096C429.219 233.12 430.387 232.632 431.763 232.632C433.027 232.632 434.027 233.112 434.763 234.072ZM432.051 234.744C431.219 234.744 430.539 235.056 430.011 235.68C429.499 236.304 429.243 237.072 429.243 237.984C429.243 238.88 429.499 239.64 430.011 240.264C430.539 240.888 431.219 241.2 432.051 241.2C432.851 241.2 433.523 240.92 434.067 240.36C434.627 239.8 434.907 239.016 434.907 238.008C434.907 236.968 434.627 236.168 434.067 235.608C433.523 235.032 432.851 234.744 432.051 234.744ZM447.729 225.96H450.129C449.953 226.792 449.585 227.512 449.025 228.12C448.465 228.728 447.777 229.144 446.961 229.368L445.377 229.8C444.961 229.912 444.641 230.008 444.417 230.088C444.193 230.168 443.913 230.32 443.577 230.544C443.257 230.752 442.985 231.008 442.761 231.312C442.233 232.016 441.953 232.928 441.921 234.048H441.945C442.649 233.104 443.793 232.632 445.377 232.632C446.801 232.632 447.977 233.112 448.905 234.072C449.881 235.08 450.369 236.36 450.369 237.912C450.369 239.48 449.849 240.776 448.809 241.8C447.785 242.808 446.505 243.312 444.969 243.312C443.433 243.312 442.201 242.864 441.273 241.968C440.761 241.488 440.369 240.896 440.097 240.192C439.825 239.488 439.665 238.912 439.617 238.464C439.585 238 439.569 237.44 439.569 236.784C439.569 233.648 440.081 231.336 441.105 229.848C441.873 228.712 442.881 227.992 444.129 227.688L445.809 227.28C446.913 227.008 447.553 226.568 447.729 225.96ZM442.785 240.336C443.329 240.912 444.057 241.2 444.969 241.2C445.881 241.2 446.609 240.912 447.153 240.336C447.697 239.744 447.969 238.96 447.969 237.984C447.969 236.912 447.673 236.104 447.081 235.56C446.505 235.016 445.801 234.744 444.969 234.744C444.137 234.744 443.425 235.016 442.833 235.56C442.257 236.104 441.969 236.912 441.969 237.984C441.969 238.96 442.241 239.744 442.785 240.336ZM452.824 232.896H455.176V238.632L462.088 231.984V243H459.736V237.12L452.824 243.768V232.896ZM465.058 243V232.896H467.41V236.64H471.586V232.896H473.938V243H471.586V238.8H467.41V243H465.058ZM483.998 239.592L485.966 240.696C485.518 241.496 484.95 242.112 484.262 242.544C483.478 243.056 482.486 243.312 481.286 243.312C479.878 243.312 478.742 242.88 477.878 242.016C476.886 241.024 476.39 239.736 476.39 238.152C476.39 236.488 476.926 235.104 477.998 234C478.91 233.088 480.038 232.632 481.382 232.632C482.694 232.632 483.774 233.072 484.622 233.952C485.566 234.928 486.038 236.352 486.038 238.224V238.512H478.79C478.854 239.36 479.142 240.04 479.654 240.552C480.086 240.984 480.686 241.2 481.454 241.2C482.078 241.2 482.614 241.032 483.062 240.696C483.43 240.408 483.742 240.04 483.998 239.592ZM478.958 236.592H483.638C483.542 236.032 483.302 235.576 482.918 235.224C482.502 234.84 481.974 234.648 481.334 234.648C480.662 234.648 480.11 234.864 479.678 235.296C479.326 235.616 479.086 236.048 478.958 236.592ZM495.456 235.056H492.504V243H490.152V235.056H487.2V232.896H495.456V235.056ZM505.626 226.992V233.328H512.49V226.992H514.938V243H512.49V235.632H505.626V243H503.178V226.992H505.626ZM518.787 226.992H521.643C523.531 226.992 524.939 227.304 525.867 227.928C527.131 228.776 527.763 230.032 527.763 231.696C527.763 232.832 527.435 233.8 526.779 234.6C526.139 235.4 525.283 235.92 524.211 236.16L529.203 243H526.251L521.667 236.448H521.235V243H518.787V226.992ZM521.235 229.248V234.336H522.003C522.211 234.336 522.419 234.328 522.627 234.312C522.835 234.296 523.115 234.24 523.467 234.144C523.835 234.048 524.147 233.92 524.403 233.76C524.675 233.584 524.907 233.32 525.099 232.968C525.307 232.616 525.411 232.2 525.411 231.72C525.411 230.072 524.299 229.248 522.075 229.248H521.235Z" fill="#0C051E"/>
</g>
<g filter="url(#filter3_d_207_2018)">
<rect x="64" y="127" width="299" height="56" rx="16" fill="white" shape-rendering="crispEdges"/>
<path d="M101.008 163L99.328 159.136H92.488L90.736 163H88.096L96.064 146.056L103.648 163H101.008ZM93.496 156.832H98.344L95.968 151.408L93.496 156.832ZM105.238 163V152.896H107.59V156.64H111.766V152.896H114.118V163H111.766V158.8H107.59V163H105.238ZM124.489 154.072V152.896H126.841V163H124.489V161.944C123.705 162.856 122.697 163.312 121.465 163.312C119.977 163.312 118.785 162.784 117.889 161.728C117.009 160.672 116.569 159.408 116.569 157.936C116.569 156.336 117.041 155.056 117.985 154.096C118.945 153.12 120.113 152.632 121.489 152.632C122.753 152.632 123.753 153.112 124.489 154.072ZM121.777 154.744C120.945 154.744 120.265 155.056 119.737 155.68C119.225 156.304 118.969 157.072 118.969 157.984C118.969 158.88 119.225 159.64 119.737 160.264C120.265 160.888 120.945 161.2 121.777 161.2C122.577 161.2 123.249 160.92 123.793 160.36C124.353 159.8 124.633 159.016 124.633 158.008C124.633 156.968 124.353 156.168 123.793 155.608C123.249 155.032 122.577 154.744 121.777 154.744ZM138.128 152.896V163H135.776V155.056H132.8V159.064C132.8 160.312 132.48 161.28 131.84 161.968C131.024 162.88 129.92 163.224 128.528 163V160.84C129.216 161 129.768 160.848 130.184 160.384C130.424 160.096 130.544 159.656 130.544 159.064V152.896H138.128ZM141.097 152.896H143.449V158.632L150.361 151.984V163H148.009V157.12L141.097 163.768V152.896ZM160.292 155.056H157.34V163H154.988V155.056H152.036V152.896H160.292V155.056ZM161.98 152.896H164.332V158.632L171.244 151.984V163H168.892V157.12L161.98 163.768V152.896ZM174.215 152.896H176.567V156.496L179.927 152.896H183.047L178.631 157.312L183.287 163H180.311L176.951 158.848L176.567 159.232V163H174.215V152.896ZM192.224 154.072V152.896H194.576V163H192.224V161.944C191.44 162.856 190.432 163.312 189.2 163.312C187.712 163.312 186.52 162.784 185.624 161.728C184.744 160.672 184.304 159.408 184.304 157.936C184.304 156.336 184.776 155.056 185.72 154.096C186.68 153.12 187.848 152.632 189.224 152.632C190.488 152.632 191.488 153.112 192.224 154.072ZM189.512 154.744C188.68 154.744 188 155.056 187.472 155.68C186.96 156.304 186.704 157.072 186.704 157.984C186.704 158.88 186.96 159.64 187.472 160.264C188 160.888 188.68 161.2 189.512 161.2C190.312 161.2 190.984 160.92 191.528 160.36C192.088 159.8 192.368 159.016 192.368 158.008C192.368 156.968 192.088 156.168 191.528 155.608C190.984 155.032 190.312 154.744 189.512 154.744ZM203.16 152.896H211.944V163H209.592V155.056H205.512V163H203.16V152.896ZM215.934 154.144C216.974 153.136 218.262 152.632 219.798 152.632C221.334 152.632 222.614 153.136 223.638 154.144C224.678 155.136 225.198 156.408 225.198 157.96C225.198 159.496 224.678 160.776 223.638 161.8C222.614 162.808 221.334 163.312 219.798 163.312C218.262 163.312 216.974 162.808 215.934 161.8C214.91 160.776 214.398 159.496 214.398 157.96C214.398 156.408 214.91 155.136 215.934 154.144ZM217.614 160.336C218.158 160.912 218.886 161.2 219.798 161.2C220.71 161.2 221.438 160.912 221.982 160.336C222.526 159.744 222.798 158.96 222.798 157.984C222.798 156.912 222.502 156.104 221.91 155.56C221.334 155.016 220.63 154.744 219.798 154.744C218.966 154.744 218.254 155.016 217.662 155.56C217.086 156.104 216.798 156.912 216.798 157.984C216.798 158.96 217.07 159.744 217.614 160.336ZM240.646 154.072V152.896H242.998V163H240.646V161.944C239.862 162.856 238.854 163.312 237.622 163.312C236.134 163.312 234.942 162.784 234.046 161.728C233.166 160.672 232.726 159.408 232.726 157.936C232.726 156.336 233.198 155.056 234.142 154.096C235.102 153.12 236.27 152.632 237.646 152.632C238.91 152.632 239.91 153.112 240.646 154.072ZM237.934 154.744C237.102 154.744 236.422 155.056 235.894 155.68C235.382 156.304 235.126 157.072 235.126 157.984C235.126 158.88 235.382 159.64 235.894 160.264C236.422 160.888 237.102 161.2 237.934 161.2C238.734 161.2 239.406 160.92 239.95 160.36C240.51 159.8 240.79 159.016 240.79 158.008C240.79 156.968 240.51 156.168 239.95 155.608C239.406 155.032 238.734 154.744 237.934 154.744ZM246.844 152.896H254.428V160.84H255.964V165.88H253.804V163H246.748V165.88H244.588V160.84C245.404 160.792 246.02 160.352 246.436 159.52C246.708 158.928 246.844 158.04 246.844 156.856V152.896ZM252.076 160.84V155.056H249.1V157.744C249.1 159.2 248.708 160.232 247.924 160.84H252.076ZM265.044 154.072V152.896H267.396V163H265.044V161.944C264.26 162.856 263.252 163.312 262.02 163.312C260.532 163.312 259.34 162.784 258.444 161.728C257.564 160.672 257.124 159.408 257.124 157.936C257.124 156.336 257.596 155.056 258.54 154.096C259.5 153.12 260.668 152.632 262.044 152.632C263.308 152.632 264.308 153.112 265.044 154.072ZM262.332 154.744C261.5 154.744 260.82 155.056 260.292 155.68C259.78 156.304 259.524 157.072 259.524 157.984C259.524 158.88 259.78 159.64 260.292 160.264C260.82 160.888 261.5 161.2 262.332 161.2C263.132 161.2 263.804 160.92 264.348 160.36C264.908 159.8 265.188 159.016 265.188 158.008C265.188 156.968 264.908 156.168 264.348 155.608C263.804 155.032 263.132 154.744 262.332 154.744ZM270.379 152.896H279.163V163H276.811V155.056H272.731V163H270.379V152.896ZM289.104 155.056H286.152V163H283.8V155.056H280.848V152.896H289.104V155.056ZM297.927 154.072V152.896H300.279V163H297.927V161.944C297.143 162.856 296.135 163.312 294.903 163.312C293.415 163.312 292.223 162.784 291.327 161.728C290.447 160.672 290.007 159.408 290.007 157.936C290.007 156.336 290.479 155.056 291.423 154.096C292.383 153.12 293.551 152.632 294.927 152.632C296.191 152.632 297.191 153.112 297.927 154.072ZM295.215 154.744C294.383 154.744 293.703 155.056 293.175 155.68C292.663 156.304 292.407 157.072 292.407 157.984C292.407 158.88 292.663 159.64 293.175 160.264C293.703 160.888 294.383 161.2 295.215 161.2C296.015 161.2 296.687 160.92 297.231 160.36C297.791 159.8 298.071 159.016 298.071 158.008C298.071 156.968 297.791 156.168 297.231 155.608C296.687 155.032 296.015 154.744 295.215 154.744ZM303.261 163V152.896H305.613V160.84H309.597V152.896H311.949V160.84H313.629V165.88H311.469V163H303.261ZM315.308 152.896H317.66V158.632L324.572 151.984V163H322.22V157.12L315.308 163.768V152.896ZM327.543 152.896H329.895V158.632L336.807 151.984V163H334.455V157.12L327.543 163.768V152.896Z" fill="#0C051E"/>
</g>
<g filter="url(#filter4_d_207_2018)">
<rect x="387" y="127" width="205" height="56" rx="16" fill="white" shape-rendering="crispEdges"/>
<path d="M414.528 149.08C416.112 147.496 418.096 146.704 420.48 146.704C422.864 146.704 424.848 147.496 426.432 149.08C428.016 150.664 428.808 152.64 428.808 155.008C428.808 157.376 428.016 159.352 426.432 160.936C424.848 162.52 422.864 163.312 420.48 163.312C418.096 163.312 416.112 162.52 414.528 160.936C412.944 159.352 412.152 157.376 412.152 155.008C412.152 152.64 412.944 150.664 414.528 149.08ZM416.256 159.376C417.36 160.496 418.768 161.056 420.48 161.056C422.192 161.056 423.6 160.496 424.704 159.376C425.808 158.24 426.36 156.784 426.36 155.008C426.36 153.232 425.808 151.784 424.704 150.664C423.6 149.528 422.192 148.96 420.48 148.96C418.768 148.96 417.36 149.528 416.256 150.664C415.152 151.784 414.6 153.232 414.6 155.008C414.6 156.784 415.152 158.24 416.256 159.376ZM439.081 145.96H441.481C441.305 146.792 440.937 147.512 440.377 148.12C439.817 148.728 439.129 149.144 438.313 149.368L436.729 149.8C436.313 149.912 435.993 150.008 435.769 150.088C435.545 150.168 435.265 150.32 434.929 150.544C434.609 150.752 434.337 151.008 434.113 151.312C433.585 152.016 433.305 152.928 433.273 154.048H433.297C434.001 153.104 435.145 152.632 436.729 152.632C438.153 152.632 439.329 153.112 440.257 154.072C441.233 155.08 441.721 156.36 441.721 157.912C441.721 159.48 441.201 160.776 440.161 161.8C439.137 162.808 437.857 163.312 436.321 163.312C434.785 163.312 433.553 162.864 432.625 161.968C432.113 161.488 431.721 160.896 431.449 160.192C431.177 159.488 431.017 158.912 430.969 158.464C430.937 158 430.921 157.44 430.921 156.784C430.921 153.648 431.433 151.336 432.457 149.848C433.225 148.712 434.233 147.992 435.481 147.688L437.161 147.28C438.265 147.008 438.905 146.568 439.081 145.96ZM434.137 160.336C434.681 160.912 435.409 161.2 436.321 161.2C437.233 161.2 437.961 160.912 438.505 160.336C439.049 159.744 439.321 158.96 439.321 157.984C439.321 156.912 439.025 156.104 438.433 155.56C437.857 155.016 437.153 154.744 436.321 154.744C435.489 154.744 434.777 155.016 434.185 155.56C433.609 156.104 433.321 156.912 433.321 157.984C433.321 158.96 433.593 159.744 434.137 160.336ZM446.528 161.824V168.496H444.176V152.896H446.528V154C447.296 153.088 448.296 152.632 449.528 152.632C450.904 152.632 452.064 153.12 453.008 154.096C453.968 155.056 454.448 156.32 454.448 157.888C454.448 159.504 453.952 160.816 452.96 161.824C451.968 162.816 450.832 163.312 449.552 163.312C448.352 163.312 447.344 162.816 446.528 161.824ZM449.24 154.744C448.44 154.744 447.76 155.032 447.2 155.608C446.656 156.168 446.384 156.968 446.384 158.008C446.384 159.016 446.656 159.8 447.2 160.36C447.76 160.92 448.44 161.2 449.24 161.2C450.072 161.2 450.744 160.888 451.256 160.264C451.784 159.64 452.048 158.88 452.048 157.984C452.048 157.072 451.784 156.304 451.256 155.68C450.744 155.056 450.072 154.744 449.24 154.744ZM464.294 154.072V152.896H466.646V163H464.294V161.944C463.51 162.856 462.502 163.312 461.27 163.312C459.782 163.312 458.59 162.784 457.694 161.728C456.814 160.672 456.374 159.408 456.374 157.936C456.374 156.336 456.846 155.056 457.79 154.096C458.75 153.12 459.918 152.632 461.294 152.632C462.558 152.632 463.558 153.112 464.294 154.072ZM461.582 154.744C460.75 154.744 460.07 155.056 459.542 155.68C459.03 156.304 458.774 157.072 458.774 157.984C458.774 158.88 459.03 159.64 459.542 160.264C460.07 160.888 460.75 161.2 461.582 161.2C462.382 161.2 463.054 160.92 463.598 160.36C464.158 159.8 464.438 159.016 464.438 158.008C464.438 156.968 464.158 156.168 463.598 155.608C463.054 155.032 462.382 154.744 461.582 154.744ZM476.589 155.056H473.637V163H471.285V155.056H468.333V152.896H476.589V155.056ZM478.277 163V152.896H480.629V156.64H484.805V152.896H487.157V163H484.805V158.8H480.629V163H478.277ZM497.528 154.072V152.896H499.88V163H497.528V161.944C496.744 162.856 495.736 163.312 494.504 163.312C493.016 163.312 491.824 162.784 490.928 161.728C490.048 160.672 489.608 159.408 489.608 157.936C489.608 156.336 490.08 155.056 491.024 154.096C491.984 153.12 493.152 152.632 494.528 152.632C495.792 152.632 496.792 153.112 497.528 154.072ZM494.816 154.744C493.984 154.744 493.304 155.056 492.776 155.68C492.264 156.304 492.008 157.072 492.008 157.984C492.008 158.88 492.264 159.64 492.776 160.264C493.304 160.888 493.984 161.2 494.816 161.2C495.616 161.2 496.288 160.92 496.832 160.36C497.392 159.8 497.672 159.016 497.672 158.008C497.672 156.968 497.392 156.168 496.832 155.608C496.288 155.032 495.616 154.744 494.816 154.744ZM501.567 163L504.735 158.992C504.111 158.896 503.575 158.64 503.127 158.224C502.567 157.68 502.287 156.984 502.287 156.136C502.287 155.176 502.599 154.4 503.223 153.808C503.863 153.2 504.839 152.896 506.151 152.896H509.919V163H507.567V159.28H507.087L504.327 163H501.567ZM507.567 157.36V154.912H506.199C505.639 154.912 505.231 154.984 504.975 155.128C504.591 155.368 504.399 155.704 504.399 156.136C504.399 156.568 504.559 156.896 504.879 157.12C505.119 157.28 505.551 157.36 506.175 157.36H507.567ZM526.32 153.352V155.992C525.472 155.16 524.52 154.744 523.464 154.744C522.568 154.744 521.824 155.04 521.232 155.632C520.656 156.208 520.368 156.984 520.368 157.96C520.368 158.968 520.672 159.776 521.28 160.384C521.856 160.928 522.568 161.2 523.416 161.2C524.584 161.2 525.552 160.768 526.32 159.904V162.52C525.472 163.048 524.448 163.312 523.248 163.312C521.632 163.312 520.352 162.816 519.408 161.824C518.448 160.832 517.968 159.568 517.968 158.032C517.968 156.448 518.48 155.144 519.504 154.12C520.496 153.128 521.848 152.632 523.56 152.632C524.536 152.632 525.456 152.872 526.32 153.352ZM528.574 152.896H532.534C533.542 152.896 534.31 153.096 534.838 153.496C535.462 153.992 535.774 154.64 535.774 155.44C535.774 156.352 535.374 157.008 534.574 157.408C535.086 157.504 535.542 157.728 535.942 158.08C536.47 158.56 536.734 159.208 536.734 160.024C536.734 161 536.366 161.768 535.63 162.328C535.022 162.776 534.246 163 533.302 163H528.574V152.896ZM530.926 156.832H532.126C532.542 156.832 532.854 156.76 533.062 156.616C533.366 156.424 533.518 156.152 533.518 155.8C533.518 155.464 533.382 155.2 533.11 155.008C532.918 154.88 532.574 154.816 532.078 154.816H530.926V156.832ZM530.926 161.08H532.678C533.206 161.08 533.614 160.984 533.902 160.792C534.222 160.584 534.382 160.288 534.382 159.904C534.382 159.488 534.23 159.192 533.926 159.016C533.654 158.84 533.262 158.752 532.75 158.752H530.926V161.08ZM537.895 163L541.063 158.992C540.439 158.896 539.903 158.64 539.455 158.224C538.895 157.68 538.615 156.984 538.615 156.136C538.615 155.176 538.927 154.4 539.551 153.808C540.191 153.2 541.167 152.896 542.479 152.896H546.247V163H543.895V159.28H543.415L540.655 163H537.895ZM543.895 157.36V154.912H542.527C541.967 154.912 541.559 154.984 541.303 155.128C540.919 155.368 540.727 155.704 540.727 156.136C540.727 156.568 540.887 156.896 541.207 157.12C541.447 157.28 541.879 157.36 542.503 157.36H543.895ZM550.59 155.512L549.078 154.192C549.462 153.728 549.974 153.352 550.614 153.064C551.286 152.776 552.078 152.632 552.99 152.632C554.046 152.632 554.902 152.864 555.558 153.328C556.262 153.84 556.614 154.528 556.614 155.392C556.614 155.952 556.47 156.416 556.182 156.784C555.942 157.104 555.622 157.344 555.222 157.504C555.83 157.632 556.318 157.88 556.686 158.248C557.118 158.68 557.334 159.24 557.334 159.928C557.334 160.84 557.046 161.584 556.47 162.16C555.702 162.928 554.518 163.312 552.918 163.312C551.846 163.312 550.966 163.112 550.278 162.712C549.558 162.296 549.03 161.696 548.694 160.912L550.566 159.952C550.79 160.432 551.086 160.784 551.454 161.008C551.854 161.264 552.358 161.392 552.966 161.392C553.702 161.392 554.238 161.224 554.574 160.888C554.814 160.616 554.934 160.32 554.934 160C554.934 159.664 554.83 159.392 554.622 159.184C554.35 158.896 553.79 158.752 552.942 158.752H551.886V156.832H552.774C553.286 156.832 553.67 156.744 553.926 156.568C554.214 156.344 554.358 156.048 554.358 155.68C554.358 155.296 554.214 155.008 553.926 154.816C553.686 154.64 553.31 154.552 552.798 154.552C552.318 154.552 551.878 154.648 551.478 154.84C551.142 155 550.846 155.224 550.59 155.512ZM559.793 163V152.896H562.145V156.472H563.489C563.921 156.472 564.273 156.488 564.545 156.52C564.817 156.536 565.145 156.624 565.529 156.784C565.913 156.944 566.249 157.184 566.537 157.504C567.065 158.096 567.329 158.832 567.329 159.712C567.329 160.72 567.025 161.528 566.417 162.136C566.145 162.408 565.817 162.616 565.433 162.76C565.065 162.888 564.753 162.96 564.497 162.976C564.257 162.992 563.913 163 563.465 163H559.793ZM562.145 160.984H563.225C563.801 160.984 564.209 160.912 564.449 160.768C564.801 160.512 564.977 160.168 564.977 159.736C564.977 159.288 564.809 158.952 564.473 158.728C564.217 158.568 563.809 158.488 563.249 158.488H562.145V160.984Z" fill="#0C051E"/>
</g>
<g filter="url(#filter5_d_207_2018)">
<rect x="300" y="47" width="93" height="56" rx="16" fill="white" shape-rendering="crispEdges"/>
<path d="M333.936 66.992V69.296H328.368V73.352H333.744V75.656H328.368V83H325.92V66.992H333.936ZM347.18 83L345.5 79.136H338.66L336.908 83H334.268L342.236 66.056L349.82 83H347.18ZM339.668 76.832H344.516L342.14 71.408L339.668 76.832ZM364.738 83.312L363.538 82.112C362.274 82.912 360.778 83.312 359.05 83.312C356.65 83.312 354.658 82.528 353.074 80.96C351.506 79.376 350.722 77.392 350.722 75.008C350.722 72.64 351.514 70.664 353.098 69.08C354.682 67.496 356.666 66.704 359.05 66.704C361.434 66.704 363.418 67.504 365.002 69.104C366.586 70.688 367.378 72.656 367.378 75.008C367.378 77.248 366.642 79.16 365.17 80.744L367.762 83.312H364.738ZM361.066 76.664L363.514 79.088C364.458 78 364.93 76.64 364.93 75.008C364.93 73.232 364.378 71.784 363.274 70.664C362.17 69.528 360.762 68.96 359.05 68.96C357.338 68.96 355.93 69.528 354.826 70.664C353.722 71.784 353.17 73.232 353.17 75.008C353.17 76.784 353.722 78.24 354.826 79.376C355.93 80.496 357.338 81.056 359.05 81.056C360.09 81.056 361.01 80.848 361.81 80.432L358.018 76.664H361.066Z" fill="#0C051E"/>
</g>
<defs>
<filter id="filter0_d_207_2018" x="0" y="0" width="340" height="184" filterUnits="userSpaceOnUse" color-interpolation-filters="sRGB">
<feFlood flood-opacity="0" result="BackgroundImageFix"/>
<feColorMatrix in="SourceAlpha" type="matrix" values="0 0 0 0 0 0 0 0 0 0 0 0 0 0 0 0 0 0 127 0" result="hardAlpha"/>
<feOffset dy="17"/>
<feGaussianBlur stdDeviation="32"/>
<feComposite in2="hardAlpha" operator="out"/>
<feColorMatrix type="matrix" values="0 0 0 0 0.501961 0 0 0 0 0.435294 0 0 0 0 0.960784 0 0 0 0.16 0"/>
<feBlend mode="normal" in2="BackgroundImageFix" result="effect1_dropShadow_207_2018"/>
<feBlend mode="normal" in="SourceGraphic" in2="effect1_dropShadow_207_2018" result="shape"/>
</filter>
<filter id="filter1_d_207_2018" x="0" y="160" width="349" height="184" filterUnits="userSpaceOnUse" color-interpolation-filters="sRGB">
<feFlood flood-opacity="0" result="BackgroundImageFix"/>
<feColorMatrix in="SourceAlpha" type="matrix" values="0 0 0 0 0 0 0 0 0 0 0 0 0 0 0 0 0 0 127 0" result="hardAlpha"/>
<feOffset dy="17"/>
<feGaussianBlur stdDeviation="32"/>
<feComposite in2="hardAlpha" operator="out"/>
<feColorMatrix type="matrix" values="0 0 0 0 0.501961 0 0 0 0 0.435294 0 0 0 0 0.960784 0 0 0 0.16 0"/>
<feBlend mode="normal" in2="BackgroundImageFix" result="effect1_dropShadow_207_2018"/>
<feBlend mode="normal" in="SourceGraphic" in2="effect1_dropShadow_207_2018" result="shape"/>
</filter>
<filter id="filter2_d_207_2018" x="245" y="160" width="373" height="184" filterUnits="userSpaceOnUse" color-interpolation-filters="sRGB">
<feFlood flood-opacity="0" result="BackgroundImageFix"/>
<feColorMatrix in="SourceAlpha" type="matrix" values="0 0 0 0 0 0 0 0 0 0 0 0 0 0 0 0 0 0 127 0" result="hardAlpha"/>
<feOffset dy="17"/>
<feGaussianBlur stdDeviation="32"/>
<feComposite in2="hardAlpha" operator="out"/>
<feColorMatrix type="matrix" values="0 0 0 0 0.501961 0 0 0 0 0.435294 0 0 0 0 0.960784 0 0 0 0.16 0"/>
<feBlend mode="normal" in2="BackgroundImageFix" result="effect1_dropShadow_207_2018"/>
<feBlend mode="normal" in="SourceGraphic" in2="effect1_dropShadow_207_2018" result="shape"/>
</filter>
<filter id="filter3_d_207_2018" x="0" y="80" width="427" height="184" filterUnits="userSpaceOnUse" color-interpolation-filters="sRGB">
<feFlood flood-opacity="0" result="BackgroundImageFix"/>
<feColorMatrix in="SourceAlpha" type="matrix" values="0 0 0 0 0 0 0 0 0 0 0 0 0 0 0 0 0 0 127 0" result="hardAlpha"/>
<feOffset dy="17"/>
<feGaussianBlur stdDeviation="32"/>
<feComposite in2="hardAlpha" operator="out"/>
<feColorMatrix type="matrix" values="0 0 0 0 0.501961 0 0 0 0 0.435294 0 0 0 0 0.960784 0 0 0 0.16 0"/>
<feBlend mode="normal" in2="BackgroundImageFix" result="effect1_dropShadow_207_2018"/>
<feBlend mode="normal" in="SourceGraphic" in2="effect1_dropShadow_207_2018" result="shape"/>
</filter>
<filter id="filter4_d_207_2018" x="323" y="80" width="333" height="184" filterUnits="userSpaceOnUse" color-interpolation-filters="sRGB">
<feFlood flood-opacity="0" result="BackgroundImageFix"/>
<feColorMatrix in="SourceAlpha" type="matrix" values="0 0 0 0 0 0 0 0 0 0 0 0 0 0 0 0 0 0 127 0" result="hardAlpha"/>
<feOffset dy="17"/>
<feGaussianBlur stdDeviation="32"/>
<feComposite in2="hardAlpha" operator="out"/>
<feColorMatrix type="matrix" values="0 0 0 0 0.501961 0 0 0 0 0.435294 0 0 0 0 0.960784 0 0 0 0.16 0"/>
<feBlend mode="normal" in2="BackgroundImageFix" result="effect1_dropShadow_207_2018"/>
<feBlend mode="normal" in="SourceGraphic" in2="effect1_dropShadow_207_2018" result="shape"/>
</filter>
<filter id="filter5_d_207_2018" x="236" y="0" width="221" height="184" filterUnits="userSpaceOnUse" color-interpolation-filters="sRGB">
<feFlood flood-opacity="0" result="BackgroundImageFix"/>
<feColorMatrix in="SourceAlpha" type="matrix" values="0 0 0 0 0 0 0 0 0 0 0 0 0 0 0 0 0 0 127 0" result="hardAlpha"/>
<feOffset dy="17"/>
<feGaussianBlur stdDeviation="32"/>
<feComposite in2="hardAlpha" operator="out"/>
<feColorMatrix type="matrix" values="0 0 0 0 0.501961 0 0 0 0 0.435294 0 0 0 0 0.960784 0 0 0 0.16 0"/>
<feBlend mode="normal" in2="BackgroundImageFix" result="effect1_dropShadow_207_2018"/>
<feBlend mode="normal" in="SourceGraphic" in2="effect1_dropShadow_207_2018" result="shape"/>
</filter>
</defs>
</svg>
