<svg width="151" height="40" viewBox="0 0 151 40" fill="none" xmlns="http://www.w3.org/2000/svg"><path fill-rule="evenodd" clip-rule="evenodd" d="M0 8.43C0 3.776 3.807 0 8.503 0H25.51c4.696 0 8.503 3.775 8.503 8.43 0 .064 0 .127-.002.19l.002-.002v8.751c0 2.365-2.272 3.222-4.038 1.632-1.402-1.262-3.37-2.14-7.866-2.14H8.503C3.807 16.862 0 13.088 0 8.432Zm9.826-1.498c-.94 0-1.7.755-1.7 1.686 0 .932.76 1.687 1.7 1.687s1.7-.755 1.7-1.687c0-.931-.76-1.686-1.7-1.686Zm5.48 1.686c0-.931.761-1.686 1.7-1.686.94 0 1.701.755 1.701 1.686 0 .932-.761 1.687-1.7 1.687-.94 0-1.701-.755-1.701-1.687Zm8.881-1.686c-.939 0-1.7.755-1.7 1.686 0 .932.761 1.687 1.7 1.687.94 0 1.7-.755 1.7-1.687 0-.931-.76-1.686-1.7-1.686ZM34.013 31.57c0 4.655-3.807 8.43-8.503 8.43H8.503C3.807 40 0 36.225 0 31.57c0-.064 0-.127.002-.19L0 31.382v-9.033c0-2.311 2.132-3.112 3.917-1.625 1.595 1.33 3.864 2.414 7.988 2.414H25.51c4.696 0 8.503 3.775 8.503 8.431ZM9.826 29.601c-.939 0-1.7.755-1.7 1.686 0 .931.761 1.686 1.7 1.686.94 0 1.7-.755 1.7-1.686 0-.931-.76-1.686-1.7-1.686Zm5.48 1.686c0-.931.762-1.686 1.7-1.686.94 0 1.701.755 1.701 1.686 0 .931-.76 1.686-1.7 1.686s-1.7-.755-1.7-1.686Zm8.882-1.686c-.94 0-1.701.755-1.701 1.686 0 .931.761 1.686 1.7 1.686.94 0 1.701-.755 1.701-1.686 0-.931-.761-1.686-1.7-1.686Z" fill="#fff"/><path d="M58.603 20.49v5.101c-1.524.548-2.78.821-3.767.821-2.612 0-4.773-.83-6.48-2.488a8.655 8.655 0 0 1-1.885-2.787 8.644 8.644 0 0 1-.653-3.26c0-1.145.226-2.257.678-3.335a9.06 9.06 0 0 1 1.86-2.787c1.707-1.726 3.817-2.589 6.329-2.589 1.222 0 2.528.283 3.918.847v5.151c-.988-1.211-2.252-1.817-3.792-1.817-1.19 0-2.194.365-3.015 1.095-.97.896-1.457 2.033-1.457 3.41 0 1.31.453 2.389 1.357 3.235.82.763 1.858 1.145 3.115 1.145 1.456 0 2.72-.581 3.792-1.742ZM62.77 26.039v-7.864h-2.915v-3.26h9.847v3.26h-2.914v7.864h-4.019ZM79.71 15.985v-1.07h4.018v11.124H79.71v-1.22c-.77 1.062-1.935 1.593-3.492 1.593-1.574 0-2.922-.589-4.044-1.767-1.072-1.128-1.608-2.488-1.608-4.08 0-1.826.578-3.31 1.733-4.456 1.055-1.045 2.404-1.567 4.045-1.567 1.373 0 2.495.48 3.366 1.443Zm-2.462 1.941c-.67 0-1.256.24-1.758.722-.536.514-.804 1.12-.804 1.817 0 .73.26 1.335.778 1.816.536.498 1.139.747 1.809.747.686 0 1.29-.257 1.808-.772a2.432 2.432 0 0 0 .754-1.791c0-.714-.26-1.32-.779-1.817-.519-.481-1.122-.722-1.808-.722ZM90.515 24.97v6.768h-4.019V14.915h4.019v1.22c.854-1.062 2-1.593 3.441-1.593 1.574 0 2.906.54 3.994 1.618 1.138 1.128 1.708 2.563 1.708 4.305 0 1.775-.603 3.243-1.809 4.405-1.055 1.028-2.336 1.543-3.843 1.543-1.39 0-2.553-.482-3.491-1.444Zm2.461-7.044c-.703 0-1.306.25-1.808.747-.52.514-.779 1.128-.779 1.842 0 .663.26 1.252.78 1.767a2.477 2.477 0 0 0 1.807.746c.72 0 1.315-.249 1.784-.746.519-.515.778-1.104.778-1.767 0-.714-.26-1.328-.778-1.842-.469-.498-1.064-.747-1.784-.747ZM103.757 26.039v-7.864h-2.913v-3.26h9.846v3.26h-2.914v7.864h-4.019ZM122.91 9.44v6.197h6.279V9.44h4.371v16.6h-4.371v-6.72h-6.279v6.72h-4.346V9.44h4.346ZM137.084 9.44h6.782c1.775 0 3.14.49 4.094 1.469.954.962 1.432 2.206 1.432 3.733 0 1.46-.444 2.613-1.331 3.459-.62.58-1.39.962-2.311 1.144l5.249 6.794h-5.4l-4.169-6.37v6.37h-4.346V9.44Zm4.346 3.335v4.106h.828c.938 0 1.641-.224 2.11-.672.369-.365.553-.83.553-1.393 0-.58-.193-1.045-.578-1.394-.435-.431-1.13-.647-2.085-.647h-.828Z" fill="#fff"/></svg>