<svg width="151" height="40" viewBox="0 0 151 40" fill="none" xmlns="http://www.w3.org/2000/svg">
<g clip-path="url(#clip0_172_313)">
<path fill-rule="evenodd" clip-rule="evenodd" d="M0 8.43091C0 3.77466 3.80705 0 8.50332 0H25.51C30.2061 0 34.0133 3.77466 34.0133 8.43091C34.0133 8.49411 34.0125 8.55714 34.011 8.62003L34.0133 8.61826V17.3694C34.0133 19.7338 31.7406 20.5908 29.9752 19.0013C28.5735 17.7393 26.6053 16.8618 22.1086 16.8618H8.50332C3.80708 16.8618 0 13.0872 0 8.43091ZM9.82604 6.93209C8.88682 6.93209 8.12539 7.687 8.12539 8.61826C8.12539 9.54951 8.88682 10.3045 9.82604 10.3045C10.7653 10.3045 11.5267 9.54951 11.5267 8.61826C11.5267 7.687 10.7653 6.93209 9.82604 6.93209ZM15.306 8.61826C15.306 7.687 16.0674 6.93209 17.0066 6.93209C17.9459 6.93209 18.7073 7.687 18.7073 8.61826C18.7073 9.54951 17.9459 10.3045 17.0066 10.3045C16.0674 10.3045 15.306 9.54951 15.306 8.61826ZM24.1872 6.93209C23.248 6.93209 22.4866 7.687 22.4866 8.61826C22.4866 9.54951 23.248 10.3045 24.1872 10.3045C25.1265 10.3045 25.8879 9.54951 25.8879 8.61826C25.8879 7.687 25.1265 6.93209 24.1872 6.93209Z" fill="url(#paint0_linear_172_313)"/>
<path fill-rule="evenodd" clip-rule="evenodd" d="M34.0132 31.5691C34.0132 36.2254 30.2062 39.9999 25.5099 39.9999H8.50331C3.80707 39.9999 0 36.2254 0 31.5691C0 31.5059 0.000701335 31.4428 0.00209741 31.3799L4.39687e-06 31.3816V22.3494C4.39687e-06 20.0378 2.13218 19.2373 3.91695 20.7244C5.51213 22.0536 7.78108 23.1381 11.9046 23.1381H25.5099C30.2062 23.1381 34.0132 26.9128 34.0132 31.5691ZM9.82618 29.6019C8.88692 29.6019 8.12552 30.3568 8.12552 31.2879C8.12552 32.2194 8.88692 32.9742 9.82618 32.9742C10.7654 32.9742 11.5268 32.2194 11.5268 31.2879C11.5268 30.3568 10.7654 29.6019 9.82618 29.6019ZM15.3061 31.2879C15.3061 30.3568 16.0675 29.6019 17.0067 29.6019C17.946 29.6019 18.7074 30.3568 18.7074 31.2879C18.7074 32.2194 17.946 32.9742 17.0067 32.9742C16.0675 32.9742 15.3061 32.2194 15.3061 31.2879ZM24.1873 29.6019C23.2481 29.6019 22.4867 30.3568 22.4867 31.2879C22.4867 32.2194 23.2481 32.9742 24.1873 32.9742C25.1266 32.9742 25.888 32.2194 25.888 31.2879C25.888 30.3568 25.1266 29.6019 24.1873 29.6019Z" fill="url(#paint1_linear_172_313)"/>
<path d="M58.6032 20.4898V25.5914C57.0794 26.1389 55.8236 26.4126 54.8357 26.4126C52.2235 26.4126 50.0634 25.5831 48.3554 23.924C47.5514 23.1277 46.9235 22.1986 46.4713 21.1368C46.0359 20.0584 45.8184 18.9717 45.8184 17.8768C45.8184 16.732 46.0443 15.6205 46.4964 14.5421C46.9653 13.4637 47.5851 12.5346 48.3554 11.7549C50.0634 10.0295 52.173 9.16675 54.685 9.16675C55.9074 9.16675 57.2134 9.44878 58.6032 10.0129V15.1642C57.6154 13.9531 56.3512 13.3476 54.8106 13.3476C53.6217 13.3476 52.6168 13.7125 51.7964 14.4425C50.8253 15.3384 50.3394 16.4749 50.3394 17.8519C50.3394 19.1625 50.7916 20.2409 51.6958 21.0871C52.5165 21.8502 53.5545 22.2318 54.8106 22.2318C56.2673 22.2318 57.5315 21.6511 58.6032 20.4898Z" fill="#2A093F"/>
<path d="M62.7691 26.0392V18.1753H59.8555V14.9153H69.7016V18.1753H66.7879V26.0392H62.7691Z" fill="#2A093F"/>
<path d="M79.7095 15.9854V14.9153H83.7283V26.0392H79.7095V24.8198C78.9393 25.8816 77.7753 26.4125 76.2181 26.4125C74.6441 26.4125 73.2961 25.8236 72.1739 24.6456C71.1022 23.5175 70.5665 22.157 70.5665 20.5643C70.5665 18.7394 71.1443 17.2545 72.2996 16.1098C73.3546 15.0646 74.7026 14.542 76.3437 14.542C77.7168 14.542 78.8387 15.0231 79.7095 15.9854ZM77.2477 17.9264C76.578 17.9264 75.9919 18.167 75.4896 18.6481C74.9539 19.1624 74.6859 19.768 74.6859 20.4648C74.6859 21.1948 74.9452 21.8003 75.4645 22.2815C76.0002 22.7792 76.6031 23.028 77.2731 23.028C77.9595 23.028 78.5623 22.7709 79.0813 22.2566C79.5839 21.7589 79.8349 21.1616 79.8349 20.4648C79.8349 19.7514 79.5755 19.1458 79.0562 18.6481C78.5373 18.167 77.9344 17.9264 77.2477 17.9264Z" fill="#2A093F"/>
<path d="M90.5149 24.9691V31.7381H86.4961V14.9153H90.5149V16.1347C91.369 15.0729 92.5159 14.542 93.9562 14.542C95.5302 14.542 96.8615 15.0812 97.9499 16.1596C99.0884 17.2877 99.6579 18.7228 99.6579 20.4648C99.6579 22.24 99.055 23.7082 97.8493 24.8696C96.7943 25.8982 95.5134 26.4125 94.0063 26.4125C92.6165 26.4125 91.4529 25.9314 90.5149 24.9691ZM92.9764 17.9264C92.2733 17.9264 91.6704 18.1753 91.1682 18.673C90.6489 19.1873 90.3895 19.8012 90.3895 20.5146C90.3895 21.1782 90.6489 21.7672 91.1682 22.2815C91.6704 22.7792 92.2733 23.028 92.9764 23.028C93.6965 23.028 94.291 22.7792 94.7599 22.2815C95.2789 21.7672 95.5385 21.1782 95.5385 20.5146C95.5385 19.8012 95.2789 19.1873 94.7599 18.673C94.291 18.1753 93.6965 17.9264 92.9764 17.9264Z" fill="#2A093F"/>
<path d="M103.757 26.0392V18.1753H100.844V14.9153H110.69V18.1753H107.776V26.0392H103.757Z" fill="#2A093F"/>
<path d="M122.91 9.44043V15.637H129.189V9.44043H133.56V26.0393H129.189V19.3201H122.91V26.0393H118.564V9.44043H122.91Z" fill="#2A093F"/>
<path d="M137.084 9.44043H143.866C145.641 9.44043 147.006 9.92986 147.96 10.9087C148.914 11.8709 149.392 13.1152 149.392 14.6416C149.392 16.1015 148.948 17.2546 148.061 18.1007C147.441 18.6814 146.671 19.0629 145.75 19.2454L150.999 26.0393H145.599L141.43 19.6685V26.0393H137.084V9.44043ZM141.43 12.7751V16.8813H142.258C143.196 16.8813 143.899 16.6573 144.368 16.2094C144.737 15.8444 144.921 15.3798 144.921 14.8158C144.921 14.2351 144.728 13.7706 144.343 13.4222C143.908 12.9908 143.213 12.7751 142.258 12.7751H141.43Z" fill="#2A093F"/>
</g>
<defs>
<linearGradient id="paint0_linear_172_313" x1="-16.4218" y1="9.56511" x2="0.218153" y2="38.1334" gradientUnits="userSpaceOnUse">
<stop stop-color="#EE9AE5"/>
<stop offset="1" stop-color="#736EFE"/>
</linearGradient>
<linearGradient id="paint1_linear_172_313" x1="51.02" y1="29.9851" x2="33.504" y2="0.240459" gradientUnits="userSpaceOnUse">
<stop stop-color="#5EFCE8"/>
<stop offset="1" stop-color="#736EFE"/>
</linearGradient>
<clipPath id="clip0_172_313">
<rect width="151" height="40" fill="white"/>
</clipPath>
</defs>
</svg>
