<svg width="51" height="51" viewBox="0 0 51 51" fill="none" xmlns="http://www.w3.org/2000/svg">
<rect x="0.193359" y="0.271729" width="50.0356" height="50.0356" rx="25.0178" fill="#F5F4FF"/>
<path fill-rule="evenodd" clip-rule="evenodd" d="M13.8394 17.4189C13.8394 14.2293 16.4473 11.6436 19.6644 11.6436H31.3143C34.5313 11.6436 37.1393 14.2293 37.1393 17.4189C37.1393 17.4622 37.1387 17.5054 37.1378 17.5485L37.1393 17.5473V23.542C37.1393 25.1616 35.5824 25.7487 34.3731 24.6599C33.4129 23.7954 32.0647 23.1943 28.9843 23.1943H19.6644C16.4474 23.1943 13.8394 20.6086 13.8394 17.4189ZM20.5705 16.3922C19.9271 16.3922 19.4055 16.9093 19.4055 17.5473C19.4055 18.1852 19.9271 18.7023 20.5705 18.7023C21.2139 18.7023 21.7355 18.1852 21.7355 17.5473C21.7355 16.9093 21.2139 16.3922 20.5705 16.3922ZM24.3244 17.5473C24.3244 16.9093 24.8459 16.3922 25.4894 16.3922C26.1328 16.3922 26.6543 16.9093 26.6543 17.5473C26.6543 18.1852 26.1328 18.7023 25.4894 18.7023C24.8459 18.7023 24.3244 18.1852 24.3244 17.5473ZM30.4082 16.3922C29.7648 16.3922 29.2432 16.9093 29.2432 17.5473C29.2432 18.1852 29.7648 18.7023 30.4082 18.7023C31.0516 18.7023 31.5732 18.1852 31.5732 17.5473C31.5732 16.9093 31.0516 16.3922 30.4082 16.3922Z" fill="url(#paint0_linear_172_556)"/>
<path fill-rule="evenodd" clip-rule="evenodd" d="M37.1392 33.1603C37.1392 36.35 34.5314 38.9357 31.3143 38.9357H19.6644C16.4473 38.9357 13.8394 36.35 13.8394 33.1603C13.8394 33.1171 13.8399 33.0738 13.8409 33.0308L13.8394 33.0319V26.8446C13.8394 25.2612 15.3 24.7128 16.5226 25.7315C17.6154 26.642 19.1696 27.3849 21.9944 27.3849H31.3143C34.5314 27.3849 37.1392 29.9706 37.1392 33.1603ZM20.5706 31.8128C19.9272 31.8128 19.4056 32.3299 19.4056 32.9677C19.4056 33.6058 19.9272 34.1229 20.5706 34.1229C21.214 34.1229 21.7356 33.6058 21.7356 32.9677C21.7356 32.3299 21.214 31.8128 20.5706 31.8128ZM24.3244 32.9677C24.3244 32.3299 24.846 31.8128 25.4894 31.8128C26.1328 31.8128 26.6544 32.3299 26.6544 32.9677C26.6544 33.6058 26.1328 34.1229 25.4894 34.1229C24.846 34.1229 24.3244 33.6058 24.3244 32.9677ZM30.4083 31.8128C29.7649 31.8128 29.2433 32.3299 29.2433 32.9677C29.2433 33.6058 29.7649 34.1229 30.4083 34.1229C31.0517 34.1229 31.5733 33.6058 31.5733 32.9677C31.5733 32.3299 31.0517 31.8128 30.4083 31.8128Z" fill="url(#paint1_linear_172_556)"/>
<defs>
<linearGradient id="paint0_linear_172_556" x1="2.59011" y1="18.1959" x2="13.9889" y2="37.7658" gradientUnits="userSpaceOnUse">
<stop stop-color="#EE9AE5"/>
<stop offset="1" stop-color="#736EFE"/>
</linearGradient>
<linearGradient id="paint1_linear_172_556" x1="48.7893" y1="32.0752" x2="36.7905" y2="11.6995" gradientUnits="userSpaceOnUse">
<stop stop-color="#5EFCE8"/>
<stop offset="1" stop-color="#736EFE"/>
</linearGradient>
</defs>
</svg>
